%TF.GenerationSoftware,KiCad,Pcbnew,7.0.0-da2b9df05c~171~ubuntu22.04.1*%
%TF.CreationDate,2023-03-05T16:33:25-08:00*%
%TF.ProjectId,UsbCanAdapter,55736243-616e-4416-9461-707465722e6b,rev?*%
%TF.SameCoordinates,Original*%
%TF.FileFunction,Legend,Bot*%
%TF.FilePolarity,Positive*%
%FSLAX46Y46*%
G04 Gerber Fmt 4.6, Leading zero omitted, Abs format (unit mm)*
G04 Created by KiCad (PCBNEW 7.0.0-da2b9df05c~171~ubuntu22.04.1) date 2023-03-05 16:33:25*
%MOMM*%
%LPD*%
G01*
G04 APERTURE LIST*
%ADD10C,0.120000*%
%ADD11C,0.260000*%
%ADD12C,0.150000*%
G04 APERTURE END LIST*
D10*
X188236000Y-80490476D02*
X188274095Y-80566666D01*
X188274095Y-80566666D02*
X188274095Y-80680952D01*
X188274095Y-80680952D02*
X188236000Y-80795238D01*
X188236000Y-80795238D02*
X188159809Y-80871428D01*
X188159809Y-80871428D02*
X188083619Y-80909523D01*
X188083619Y-80909523D02*
X187931238Y-80947619D01*
X187931238Y-80947619D02*
X187816952Y-80947619D01*
X187816952Y-80947619D02*
X187664571Y-80909523D01*
X187664571Y-80909523D02*
X187588380Y-80871428D01*
X187588380Y-80871428D02*
X187512190Y-80795238D01*
X187512190Y-80795238D02*
X187474095Y-80680952D01*
X187474095Y-80680952D02*
X187474095Y-80604761D01*
X187474095Y-80604761D02*
X187512190Y-80490476D01*
X187512190Y-80490476D02*
X187550285Y-80452380D01*
X187550285Y-80452380D02*
X187816952Y-80452380D01*
X187816952Y-80452380D02*
X187816952Y-80604761D01*
X187474095Y-80109523D02*
X188274095Y-80109523D01*
X188274095Y-80109523D02*
X187474095Y-79652380D01*
X187474095Y-79652380D02*
X188274095Y-79652380D01*
X187474095Y-79271428D02*
X188274095Y-79271428D01*
X188274095Y-79271428D02*
X188274095Y-79080952D01*
X188274095Y-79080952D02*
X188236000Y-78966666D01*
X188236000Y-78966666D02*
X188159809Y-78890476D01*
X188159809Y-78890476D02*
X188083619Y-78852381D01*
X188083619Y-78852381D02*
X187931238Y-78814285D01*
X187931238Y-78814285D02*
X187816952Y-78814285D01*
X187816952Y-78814285D02*
X187664571Y-78852381D01*
X187664571Y-78852381D02*
X187588380Y-78890476D01*
X187588380Y-78890476D02*
X187512190Y-78966666D01*
X187512190Y-78966666D02*
X187474095Y-79080952D01*
X187474095Y-79080952D02*
X187474095Y-79271428D01*
X185012190Y-80923619D02*
X184974095Y-80809333D01*
X184974095Y-80809333D02*
X184974095Y-80618857D01*
X184974095Y-80618857D02*
X185012190Y-80542666D01*
X185012190Y-80542666D02*
X185050285Y-80504571D01*
X185050285Y-80504571D02*
X185126476Y-80466476D01*
X185126476Y-80466476D02*
X185202666Y-80466476D01*
X185202666Y-80466476D02*
X185278857Y-80504571D01*
X185278857Y-80504571D02*
X185316952Y-80542666D01*
X185316952Y-80542666D02*
X185355047Y-80618857D01*
X185355047Y-80618857D02*
X185393142Y-80771238D01*
X185393142Y-80771238D02*
X185431238Y-80847428D01*
X185431238Y-80847428D02*
X185469333Y-80885523D01*
X185469333Y-80885523D02*
X185545523Y-80923619D01*
X185545523Y-80923619D02*
X185621714Y-80923619D01*
X185621714Y-80923619D02*
X185697904Y-80885523D01*
X185697904Y-80885523D02*
X185736000Y-80847428D01*
X185736000Y-80847428D02*
X185774095Y-80771238D01*
X185774095Y-80771238D02*
X185774095Y-80580761D01*
X185774095Y-80580761D02*
X185736000Y-80466476D01*
X185774095Y-80199809D02*
X184974095Y-80009333D01*
X184974095Y-80009333D02*
X185545523Y-79856952D01*
X185545523Y-79856952D02*
X184974095Y-79704571D01*
X184974095Y-79704571D02*
X185774095Y-79514095D01*
X185050285Y-78752189D02*
X185012190Y-78790285D01*
X185012190Y-78790285D02*
X184974095Y-78904570D01*
X184974095Y-78904570D02*
X184974095Y-78980761D01*
X184974095Y-78980761D02*
X185012190Y-79095047D01*
X185012190Y-79095047D02*
X185088380Y-79171237D01*
X185088380Y-79171237D02*
X185164571Y-79209332D01*
X185164571Y-79209332D02*
X185316952Y-79247428D01*
X185316952Y-79247428D02*
X185431238Y-79247428D01*
X185431238Y-79247428D02*
X185583619Y-79209332D01*
X185583619Y-79209332D02*
X185659809Y-79171237D01*
X185659809Y-79171237D02*
X185736000Y-79095047D01*
X185736000Y-79095047D02*
X185774095Y-78980761D01*
X185774095Y-78980761D02*
X185774095Y-78904570D01*
X185774095Y-78904570D02*
X185736000Y-78790285D01*
X185736000Y-78790285D02*
X185697904Y-78752189D01*
X184974095Y-78028380D02*
X184974095Y-78409332D01*
X184974095Y-78409332D02*
X185774095Y-78409332D01*
X184974095Y-77761713D02*
X185774095Y-77761713D01*
X184974095Y-77304570D02*
X185431238Y-77647428D01*
X185774095Y-77304570D02*
X185316952Y-77761713D01*
X182512190Y-80847619D02*
X182474095Y-80733333D01*
X182474095Y-80733333D02*
X182474095Y-80542857D01*
X182474095Y-80542857D02*
X182512190Y-80466666D01*
X182512190Y-80466666D02*
X182550285Y-80428571D01*
X182550285Y-80428571D02*
X182626476Y-80390476D01*
X182626476Y-80390476D02*
X182702666Y-80390476D01*
X182702666Y-80390476D02*
X182778857Y-80428571D01*
X182778857Y-80428571D02*
X182816952Y-80466666D01*
X182816952Y-80466666D02*
X182855047Y-80542857D01*
X182855047Y-80542857D02*
X182893142Y-80695238D01*
X182893142Y-80695238D02*
X182931238Y-80771428D01*
X182931238Y-80771428D02*
X182969333Y-80809523D01*
X182969333Y-80809523D02*
X183045523Y-80847619D01*
X183045523Y-80847619D02*
X183121714Y-80847619D01*
X183121714Y-80847619D02*
X183197904Y-80809523D01*
X183197904Y-80809523D02*
X183236000Y-80771428D01*
X183236000Y-80771428D02*
X183274095Y-80695238D01*
X183274095Y-80695238D02*
X183274095Y-80504761D01*
X183274095Y-80504761D02*
X183236000Y-80390476D01*
X183274095Y-80123809D02*
X182474095Y-79933333D01*
X182474095Y-79933333D02*
X183045523Y-79780952D01*
X183045523Y-79780952D02*
X182474095Y-79628571D01*
X182474095Y-79628571D02*
X183274095Y-79438095D01*
X182474095Y-79133332D02*
X183274095Y-79133332D01*
X183274095Y-79133332D02*
X183274095Y-78942856D01*
X183274095Y-78942856D02*
X183236000Y-78828570D01*
X183236000Y-78828570D02*
X183159809Y-78752380D01*
X183159809Y-78752380D02*
X183083619Y-78714285D01*
X183083619Y-78714285D02*
X182931238Y-78676189D01*
X182931238Y-78676189D02*
X182816952Y-78676189D01*
X182816952Y-78676189D02*
X182664571Y-78714285D01*
X182664571Y-78714285D02*
X182588380Y-78752380D01*
X182588380Y-78752380D02*
X182512190Y-78828570D01*
X182512190Y-78828570D02*
X182474095Y-78942856D01*
X182474095Y-78942856D02*
X182474095Y-79133332D01*
X182474095Y-78333332D02*
X183274095Y-78333332D01*
X183274095Y-77799999D02*
X183274095Y-77647618D01*
X183274095Y-77647618D02*
X183236000Y-77571428D01*
X183236000Y-77571428D02*
X183159809Y-77495237D01*
X183159809Y-77495237D02*
X183007428Y-77457142D01*
X183007428Y-77457142D02*
X182740761Y-77457142D01*
X182740761Y-77457142D02*
X182588380Y-77495237D01*
X182588380Y-77495237D02*
X182512190Y-77571428D01*
X182512190Y-77571428D02*
X182474095Y-77647618D01*
X182474095Y-77647618D02*
X182474095Y-77799999D01*
X182474095Y-77799999D02*
X182512190Y-77876190D01*
X182512190Y-77876190D02*
X182588380Y-77952380D01*
X182588380Y-77952380D02*
X182740761Y-77990476D01*
X182740761Y-77990476D02*
X183007428Y-77990476D01*
X183007428Y-77990476D02*
X183159809Y-77952380D01*
X183159809Y-77952380D02*
X183236000Y-77876190D01*
X183236000Y-77876190D02*
X183274095Y-77799999D01*
X180074095Y-80352380D02*
X180455047Y-80619047D01*
X180074095Y-80809523D02*
X180874095Y-80809523D01*
X180874095Y-80809523D02*
X180874095Y-80504761D01*
X180874095Y-80504761D02*
X180836000Y-80428571D01*
X180836000Y-80428571D02*
X180797904Y-80390476D01*
X180797904Y-80390476D02*
X180721714Y-80352380D01*
X180721714Y-80352380D02*
X180607428Y-80352380D01*
X180607428Y-80352380D02*
X180531238Y-80390476D01*
X180531238Y-80390476D02*
X180493142Y-80428571D01*
X180493142Y-80428571D02*
X180455047Y-80504761D01*
X180455047Y-80504761D02*
X180455047Y-80809523D01*
X180112190Y-80047619D02*
X180074095Y-79933333D01*
X180074095Y-79933333D02*
X180074095Y-79742857D01*
X180074095Y-79742857D02*
X180112190Y-79666666D01*
X180112190Y-79666666D02*
X180150285Y-79628571D01*
X180150285Y-79628571D02*
X180226476Y-79590476D01*
X180226476Y-79590476D02*
X180302666Y-79590476D01*
X180302666Y-79590476D02*
X180378857Y-79628571D01*
X180378857Y-79628571D02*
X180416952Y-79666666D01*
X180416952Y-79666666D02*
X180455047Y-79742857D01*
X180455047Y-79742857D02*
X180493142Y-79895238D01*
X180493142Y-79895238D02*
X180531238Y-79971428D01*
X180531238Y-79971428D02*
X180569333Y-80009523D01*
X180569333Y-80009523D02*
X180645523Y-80047619D01*
X180645523Y-80047619D02*
X180721714Y-80047619D01*
X180721714Y-80047619D02*
X180797904Y-80009523D01*
X180797904Y-80009523D02*
X180836000Y-79971428D01*
X180836000Y-79971428D02*
X180874095Y-79895238D01*
X180874095Y-79895238D02*
X180874095Y-79704761D01*
X180874095Y-79704761D02*
X180836000Y-79590476D01*
X180874095Y-79361904D02*
X180874095Y-78904761D01*
X180074095Y-79133333D02*
X180874095Y-79133333D01*
X178074095Y-80923809D02*
X177274095Y-80657142D01*
X177274095Y-80657142D02*
X178074095Y-80390476D01*
X177350285Y-79666666D02*
X177312190Y-79704762D01*
X177312190Y-79704762D02*
X177274095Y-79819047D01*
X177274095Y-79819047D02*
X177274095Y-79895238D01*
X177274095Y-79895238D02*
X177312190Y-80009524D01*
X177312190Y-80009524D02*
X177388380Y-80085714D01*
X177388380Y-80085714D02*
X177464571Y-80123809D01*
X177464571Y-80123809D02*
X177616952Y-80161905D01*
X177616952Y-80161905D02*
X177731238Y-80161905D01*
X177731238Y-80161905D02*
X177883619Y-80123809D01*
X177883619Y-80123809D02*
X177959809Y-80085714D01*
X177959809Y-80085714D02*
X178036000Y-80009524D01*
X178036000Y-80009524D02*
X178074095Y-79895238D01*
X178074095Y-79895238D02*
X178074095Y-79819047D01*
X178074095Y-79819047D02*
X178036000Y-79704762D01*
X178036000Y-79704762D02*
X177997904Y-79666666D01*
X177350285Y-78866666D02*
X177312190Y-78904762D01*
X177312190Y-78904762D02*
X177274095Y-79019047D01*
X177274095Y-79019047D02*
X177274095Y-79095238D01*
X177274095Y-79095238D02*
X177312190Y-79209524D01*
X177312190Y-79209524D02*
X177388380Y-79285714D01*
X177388380Y-79285714D02*
X177464571Y-79323809D01*
X177464571Y-79323809D02*
X177616952Y-79361905D01*
X177616952Y-79361905D02*
X177731238Y-79361905D01*
X177731238Y-79361905D02*
X177883619Y-79323809D01*
X177883619Y-79323809D02*
X177959809Y-79285714D01*
X177959809Y-79285714D02*
X178036000Y-79209524D01*
X178036000Y-79209524D02*
X178074095Y-79095238D01*
X178074095Y-79095238D02*
X178074095Y-79019047D01*
X178074095Y-79019047D02*
X178036000Y-78904762D01*
X178036000Y-78904762D02*
X177997904Y-78866666D01*
D11*
G36*
X210865469Y-83686089D02*
G01*
X210879182Y-83688753D01*
X210892300Y-83693194D01*
X210904822Y-83699410D01*
X210916748Y-83707403D01*
X210928080Y-83717171D01*
X210938816Y-83728716D01*
X210948956Y-83742037D01*
X210955992Y-83752964D01*
X210962337Y-83764433D01*
X210967989Y-83776443D01*
X210972949Y-83788994D01*
X210977216Y-83802087D01*
X210980792Y-83815721D01*
X210983676Y-83829897D01*
X210985867Y-83844614D01*
X210987367Y-83859872D01*
X210988174Y-83875672D01*
X210988328Y-83886506D01*
X210988328Y-84091304D01*
X210693991Y-84091304D01*
X210693991Y-83952232D01*
X210694166Y-83938017D01*
X210694691Y-83924107D01*
X210695565Y-83910502D01*
X210696789Y-83897203D01*
X210698363Y-83884208D01*
X210700287Y-83871518D01*
X210703828Y-83853056D01*
X210708157Y-83835281D01*
X210713272Y-83818192D01*
X210719174Y-83801789D01*
X210725863Y-83786073D01*
X210733340Y-83771043D01*
X210738761Y-83761405D01*
X210747356Y-83747787D01*
X210756353Y-83735508D01*
X210765752Y-83724568D01*
X210775553Y-83714968D01*
X210785756Y-83706708D01*
X210799984Y-83697778D01*
X210814927Y-83691229D01*
X210830585Y-83687062D01*
X210846957Y-83685276D01*
X210851161Y-83685201D01*
X210865469Y-83686089D01*
G37*
G36*
X210988328Y-81010449D02*
G01*
X210988685Y-81025060D01*
X210989757Y-81038728D01*
X210991543Y-81051453D01*
X210995562Y-81068774D01*
X211001188Y-81083974D01*
X211008421Y-81097053D01*
X211017262Y-81108011D01*
X211027710Y-81116848D01*
X211039766Y-81123564D01*
X211049568Y-81126860D01*
X211039291Y-81130384D01*
X211025008Y-81138570D01*
X211013007Y-81149733D01*
X211005504Y-81160058D01*
X210999284Y-81172058D01*
X210994349Y-81185733D01*
X210990697Y-81201081D01*
X210988328Y-81218104D01*
X210287889Y-81218104D01*
X210287531Y-81204609D01*
X210285656Y-81185998D01*
X210282173Y-81169346D01*
X210277083Y-81154653D01*
X210270385Y-81141919D01*
X210262080Y-81131144D01*
X210252168Y-81122329D01*
X210245560Y-81118395D01*
X210252168Y-81114138D01*
X210262080Y-81104594D01*
X210270385Y-81092929D01*
X210277083Y-81079143D01*
X210282173Y-81063236D01*
X210285656Y-81045208D01*
X210287085Y-81032012D01*
X210287799Y-81017872D01*
X210287889Y-81010449D01*
X210287889Y-80983143D01*
X210988328Y-80983143D01*
X210988328Y-81010449D01*
G37*
G36*
X210834511Y-80381925D02*
G01*
X210848379Y-80383348D01*
X210861651Y-80385720D01*
X210874325Y-80389041D01*
X210886402Y-80393311D01*
X210901576Y-80400480D01*
X210915688Y-80409335D01*
X210928738Y-80419878D01*
X210937830Y-80428892D01*
X210943558Y-80435428D01*
X210951559Y-80445855D01*
X210958773Y-80457013D01*
X210965200Y-80468902D01*
X210970840Y-80481522D01*
X210975693Y-80494874D01*
X210979759Y-80508957D01*
X210983038Y-80523770D01*
X210985530Y-80539315D01*
X210987235Y-80555591D01*
X210988153Y-80572599D01*
X210988328Y-80584343D01*
X210988328Y-80800254D01*
X210653667Y-80800254D01*
X210653667Y-80584343D01*
X210654060Y-80566848D01*
X210655241Y-80550085D01*
X210657208Y-80534052D01*
X210659962Y-80518751D01*
X210663504Y-80504181D01*
X210667832Y-80490342D01*
X210672947Y-80477234D01*
X210678850Y-80464858D01*
X210685539Y-80453212D01*
X210693015Y-80442298D01*
X210698436Y-80435428D01*
X210707113Y-80425782D01*
X210719558Y-80414396D01*
X210733005Y-80404697D01*
X210747454Y-80396684D01*
X210762906Y-80390359D01*
X210775152Y-80386722D01*
X210787962Y-80384033D01*
X210801336Y-80382294D01*
X210815274Y-80381503D01*
X210820045Y-80381450D01*
X210834511Y-80381925D01*
G37*
G36*
X208681469Y-77685677D02*
G01*
X208695182Y-77688341D01*
X208708300Y-77692782D01*
X208720822Y-77698998D01*
X208732748Y-77706991D01*
X208744080Y-77716759D01*
X208754816Y-77728304D01*
X208764956Y-77741625D01*
X208771992Y-77752552D01*
X208778337Y-77764021D01*
X208783989Y-77776031D01*
X208788949Y-77788582D01*
X208793216Y-77801675D01*
X208796792Y-77815309D01*
X208799676Y-77829485D01*
X208801867Y-77844202D01*
X208803367Y-77859460D01*
X208804174Y-77875260D01*
X208804328Y-77886094D01*
X208804328Y-78090892D01*
X208509991Y-78090892D01*
X208509991Y-77951820D01*
X208510166Y-77937605D01*
X208510691Y-77923695D01*
X208511565Y-77910090D01*
X208512789Y-77896791D01*
X208514363Y-77883796D01*
X208516287Y-77871106D01*
X208519828Y-77852644D01*
X208524157Y-77834869D01*
X208529272Y-77817780D01*
X208535174Y-77801377D01*
X208541863Y-77785661D01*
X208549340Y-77770631D01*
X208554761Y-77760993D01*
X208563356Y-77747375D01*
X208572353Y-77735096D01*
X208581752Y-77724156D01*
X208591553Y-77714556D01*
X208601756Y-77706296D01*
X208615984Y-77697366D01*
X208630927Y-77690817D01*
X208646585Y-77686650D01*
X208662957Y-77684864D01*
X208667161Y-77684789D01*
X208681469Y-77685677D01*
G37*
G36*
X210928000Y-77338697D02*
G01*
X210576828Y-77483167D01*
X210576828Y-77196133D01*
X210928000Y-77338697D01*
G37*
G36*
X210928000Y-74065746D02*
G01*
X210576828Y-74210215D01*
X210576828Y-73923181D01*
X210928000Y-74065746D01*
G37*
G36*
X210515462Y-72729933D02*
G01*
X210528699Y-72730815D01*
X210541607Y-72732285D01*
X210554185Y-72734343D01*
X210572433Y-72738532D01*
X210589939Y-72744043D01*
X210606703Y-72750877D01*
X210622724Y-72759035D01*
X210638003Y-72768514D01*
X210652539Y-72779317D01*
X210666333Y-72791443D01*
X210679385Y-72804891D01*
X210691472Y-72819373D01*
X210702369Y-72834721D01*
X210712078Y-72850934D01*
X210720598Y-72868012D01*
X210725617Y-72879878D01*
X210730109Y-72892128D01*
X210734071Y-72904763D01*
X210737506Y-72917782D01*
X210740412Y-72931186D01*
X210742789Y-72944975D01*
X210744639Y-72959148D01*
X210745960Y-72973705D01*
X210746752Y-72988647D01*
X210747016Y-73003973D01*
X210746741Y-73019105D01*
X210745915Y-73033859D01*
X210744538Y-73048237D01*
X210742611Y-73062237D01*
X210740133Y-73075861D01*
X210737104Y-73089107D01*
X210733524Y-73101976D01*
X210729394Y-73114469D01*
X210724713Y-73126584D01*
X210719482Y-73138322D01*
X210713699Y-73149683D01*
X210703993Y-73166018D01*
X210693049Y-73181504D01*
X210680864Y-73196142D01*
X210676528Y-73200833D01*
X210663046Y-73214054D01*
X210649034Y-73225975D01*
X210634492Y-73236595D01*
X210619420Y-73245915D01*
X210603817Y-73253935D01*
X210587684Y-73260654D01*
X210571021Y-73266072D01*
X210553828Y-73270190D01*
X210536104Y-73273008D01*
X210517851Y-73274525D01*
X210505387Y-73274814D01*
X210492504Y-73274518D01*
X210473686Y-73272961D01*
X210455477Y-73270071D01*
X210437877Y-73265847D01*
X210420884Y-73260289D01*
X210404500Y-73253397D01*
X210388725Y-73245171D01*
X210373557Y-73235611D01*
X210358998Y-73224717D01*
X210345048Y-73212489D01*
X210331706Y-73198928D01*
X210323285Y-73189267D01*
X210315408Y-73179257D01*
X210304611Y-73163585D01*
X210295036Y-73147127D01*
X210289332Y-73135717D01*
X210284171Y-73123958D01*
X210279554Y-73111849D01*
X210275479Y-73099390D01*
X210271948Y-73086582D01*
X210268960Y-73073423D01*
X210266516Y-73059915D01*
X210264614Y-73046058D01*
X210263256Y-73031850D01*
X210262441Y-73017293D01*
X210262170Y-73002386D01*
X210262438Y-72987478D01*
X210263241Y-72972921D01*
X210264581Y-72958713D01*
X210266456Y-72944856D01*
X210268867Y-72931348D01*
X210271814Y-72918189D01*
X210275297Y-72905381D01*
X210279316Y-72892922D01*
X210283870Y-72880813D01*
X210288960Y-72869054D01*
X210294586Y-72857644D01*
X210304030Y-72841186D01*
X210314679Y-72825514D01*
X210326534Y-72810630D01*
X210330753Y-72805843D01*
X210343911Y-72792225D01*
X210357666Y-72779946D01*
X210372019Y-72769007D01*
X210386968Y-72759407D01*
X210402515Y-72751146D01*
X210418659Y-72744225D01*
X210435400Y-72738644D01*
X210452739Y-72734402D01*
X210470674Y-72731500D01*
X210489207Y-72729937D01*
X210501894Y-72729640D01*
X210515462Y-72729933D01*
G37*
G36*
X210445894Y-71729795D02*
G01*
X210448160Y-71743882D01*
X210450269Y-71757756D01*
X210452223Y-71771417D01*
X210454020Y-71784864D01*
X210455661Y-71798098D01*
X210457145Y-71811119D01*
X210458474Y-71823926D01*
X210460173Y-71842737D01*
X210461521Y-71861068D01*
X210462518Y-71878919D01*
X210463162Y-71896290D01*
X210463455Y-71913181D01*
X210463475Y-71918704D01*
X210463120Y-71935967D01*
X210462057Y-71952866D01*
X210460285Y-71969402D01*
X210457804Y-71985576D01*
X210454614Y-72001387D01*
X210450716Y-72016835D01*
X210446108Y-72031921D01*
X210440792Y-72046643D01*
X210434767Y-72061003D01*
X210428033Y-72075000D01*
X210423150Y-72084130D01*
X210415532Y-72097068D01*
X210407679Y-72108733D01*
X210399591Y-72119125D01*
X210388444Y-72131002D01*
X210376879Y-72140617D01*
X210364898Y-72147969D01*
X210352500Y-72153060D01*
X210339685Y-72155887D01*
X210329801Y-72156524D01*
X210316827Y-72154594D01*
X210304857Y-72148805D01*
X210293889Y-72139157D01*
X210285287Y-72127816D01*
X210278681Y-72116199D01*
X210272918Y-72103156D01*
X210268132Y-72089229D01*
X210264323Y-72074418D01*
X210261978Y-72061933D01*
X210260259Y-72048883D01*
X210259165Y-72035267D01*
X210258697Y-72021086D01*
X210258677Y-72017452D01*
X210259042Y-71998672D01*
X210260136Y-71979881D01*
X210261959Y-71961077D01*
X210264511Y-71942260D01*
X210267793Y-71923431D01*
X210271804Y-71904590D01*
X210276545Y-71885736D01*
X210282015Y-71866870D01*
X210288214Y-71847991D01*
X210295142Y-71829100D01*
X210302799Y-71810197D01*
X210311186Y-71791281D01*
X210320302Y-71772353D01*
X210330148Y-71753413D01*
X210340723Y-71734460D01*
X210352027Y-71715494D01*
X210443471Y-71715494D01*
X210445894Y-71729795D01*
G37*
G36*
X210542960Y-70460696D02*
G01*
X210559950Y-70462672D01*
X210576359Y-70465965D01*
X210592188Y-70470575D01*
X210607436Y-70476502D01*
X210622104Y-70483747D01*
X210636191Y-70492309D01*
X210649698Y-70502187D01*
X210662624Y-70513384D01*
X210674970Y-70525897D01*
X210682878Y-70534971D01*
X210694000Y-70549423D01*
X210704028Y-70564679D01*
X210712961Y-70580738D01*
X210720801Y-70597601D01*
X210727547Y-70615268D01*
X210731437Y-70627492D01*
X210734840Y-70640074D01*
X210737757Y-70653012D01*
X210740188Y-70666308D01*
X210742133Y-70679962D01*
X210743592Y-70693972D01*
X210744564Y-70708340D01*
X210745050Y-70723064D01*
X210745111Y-70730561D01*
X210744868Y-70745696D01*
X210744139Y-70760462D01*
X210742923Y-70774858D01*
X210741222Y-70788884D01*
X210739034Y-70802541D01*
X210736360Y-70815829D01*
X210733199Y-70828746D01*
X210729553Y-70841294D01*
X210725420Y-70853473D01*
X210718310Y-70871047D01*
X210710105Y-70887790D01*
X210700807Y-70903702D01*
X210690414Y-70918782D01*
X210682878Y-70928373D01*
X210670939Y-70941764D01*
X210658458Y-70953839D01*
X210645436Y-70964596D01*
X210631872Y-70974036D01*
X210617767Y-70982158D01*
X210603121Y-70988964D01*
X210587933Y-70994452D01*
X210572204Y-70998623D01*
X210555934Y-71001477D01*
X210539122Y-71003014D01*
X210527613Y-71003307D01*
X210509702Y-71002640D01*
X210492406Y-71000639D01*
X210475723Y-70997304D01*
X210459655Y-70992635D01*
X210444200Y-70986632D01*
X210429359Y-70979296D01*
X210415132Y-70970625D01*
X210401519Y-70960621D01*
X210388521Y-70949282D01*
X210376136Y-70936610D01*
X210368220Y-70927420D01*
X210357155Y-70912795D01*
X210347178Y-70897378D01*
X210338290Y-70881168D01*
X210330490Y-70864165D01*
X210323779Y-70846370D01*
X210319909Y-70834066D01*
X210316523Y-70821410D01*
X210313621Y-70808402D01*
X210311202Y-70795042D01*
X210309267Y-70781329D01*
X210307816Y-70767264D01*
X210306849Y-70752847D01*
X210306365Y-70738077D01*
X210306304Y-70730561D01*
X210306546Y-70715884D01*
X210307272Y-70701543D01*
X210308481Y-70687536D01*
X210310174Y-70673864D01*
X210312351Y-70660527D01*
X210315011Y-70647525D01*
X210318155Y-70634858D01*
X210321783Y-70622526D01*
X210328132Y-70604655D01*
X210335569Y-70587538D01*
X210344095Y-70571175D01*
X210353709Y-70555565D01*
X210364411Y-70540708D01*
X210368220Y-70535924D01*
X210380176Y-70522362D01*
X210392707Y-70510134D01*
X210405813Y-70499240D01*
X210419494Y-70489680D01*
X210433749Y-70481454D01*
X210448580Y-70474562D01*
X210463985Y-70469004D01*
X210479966Y-70464780D01*
X210496521Y-70461890D01*
X210513651Y-70460334D01*
X210525390Y-70460037D01*
X210542960Y-70460696D01*
G37*
G36*
X210594423Y-68355658D02*
G01*
X210607678Y-68361122D01*
X210620402Y-68367490D01*
X210632596Y-68374763D01*
X210644261Y-68382939D01*
X210655394Y-68392020D01*
X210665998Y-68402005D01*
X210676071Y-68412894D01*
X210685614Y-68424688D01*
X210694627Y-68437385D01*
X210700341Y-68446353D01*
X210708342Y-68460288D01*
X210715556Y-68474710D01*
X210721983Y-68489616D01*
X210727623Y-68505009D01*
X210732476Y-68520887D01*
X210736542Y-68537250D01*
X210739821Y-68554099D01*
X210742313Y-68571434D01*
X210744018Y-68589254D01*
X210744936Y-68607560D01*
X210745111Y-68620034D01*
X210744709Y-68638672D01*
X210743504Y-68656841D01*
X210741494Y-68674541D01*
X210738681Y-68691772D01*
X210735065Y-68708535D01*
X210730644Y-68724829D01*
X210725420Y-68740654D01*
X210719392Y-68756010D01*
X210712561Y-68770897D01*
X210704926Y-68785316D01*
X210699389Y-68794667D01*
X210690576Y-68808067D01*
X210681283Y-68820524D01*
X210671510Y-68832037D01*
X210661257Y-68842607D01*
X210650524Y-68852234D01*
X210639311Y-68860918D01*
X210627619Y-68868658D01*
X210615446Y-68875455D01*
X210602793Y-68881309D01*
X210589660Y-68886220D01*
X210580638Y-68888970D01*
X210580638Y-68351098D01*
X210594423Y-68355658D01*
G37*
G36*
X211819961Y-84998187D02*
G01*
X207345286Y-84998187D01*
X207345286Y-84301817D01*
X210105000Y-84301817D01*
X210105357Y-84316427D01*
X210106428Y-84330096D01*
X210108214Y-84342821D01*
X210112233Y-84360142D01*
X210117859Y-84375341D01*
X210125092Y-84388420D01*
X210133933Y-84399378D01*
X210144381Y-84408216D01*
X210156437Y-84414932D01*
X210170100Y-84419527D01*
X210185371Y-84422001D01*
X210196444Y-84422473D01*
X210212786Y-84421412D01*
X210227521Y-84418231D01*
X210240648Y-84412929D01*
X210252168Y-84405505D01*
X210262080Y-84395961D01*
X210270385Y-84384296D01*
X210277083Y-84370511D01*
X210282173Y-84354604D01*
X210285656Y-84336576D01*
X210287085Y-84323379D01*
X210287799Y-84309240D01*
X210287889Y-84301817D01*
X210287889Y-84274193D01*
X210988328Y-84274193D01*
X210988328Y-84301817D01*
X210988685Y-84316427D01*
X210989757Y-84330096D01*
X210991543Y-84342821D01*
X210995562Y-84360142D01*
X211001188Y-84375341D01*
X211008421Y-84388420D01*
X211017262Y-84399378D01*
X211027710Y-84408216D01*
X211039766Y-84414932D01*
X211053429Y-84419527D01*
X211068699Y-84422001D01*
X211079773Y-84422473D01*
X211092498Y-84421987D01*
X211106912Y-84420011D01*
X211119667Y-84416517D01*
X211132783Y-84410318D01*
X211143510Y-84401931D01*
X211151849Y-84391356D01*
X211158431Y-84378728D01*
X211162876Y-84366737D01*
X211166375Y-84353413D01*
X211168929Y-84338756D01*
X211170290Y-84326070D01*
X211171047Y-84312531D01*
X211171217Y-84301817D01*
X211171217Y-83893809D01*
X211170864Y-83871877D01*
X211169803Y-83850453D01*
X211168036Y-83829538D01*
X211165561Y-83809132D01*
X211162380Y-83789234D01*
X211158492Y-83769844D01*
X211153896Y-83750963D01*
X211148594Y-83732590D01*
X211142585Y-83714727D01*
X211135869Y-83697371D01*
X211128446Y-83680524D01*
X211120315Y-83664186D01*
X211111478Y-83648356D01*
X211101934Y-83633034D01*
X211091683Y-83618222D01*
X211080725Y-83603917D01*
X211069203Y-83590306D01*
X211057259Y-83577573D01*
X211044893Y-83565719D01*
X211032106Y-83554742D01*
X211018897Y-83544644D01*
X211005266Y-83535423D01*
X210991213Y-83527081D01*
X210976739Y-83519617D01*
X210961843Y-83513031D01*
X210946525Y-83507323D01*
X210930786Y-83502493D01*
X210914625Y-83498542D01*
X210898042Y-83495468D01*
X210881038Y-83493273D01*
X210863611Y-83491956D01*
X210845764Y-83491517D01*
X210824964Y-83492288D01*
X210804635Y-83494603D01*
X210784778Y-83498460D01*
X210765392Y-83503860D01*
X210746478Y-83510803D01*
X210728035Y-83519289D01*
X210710063Y-83529318D01*
X210692562Y-83540890D01*
X210675533Y-83554005D01*
X210658975Y-83568663D01*
X210642888Y-83584864D01*
X210627273Y-83602608D01*
X210612129Y-83621894D01*
X210597456Y-83642724D01*
X210590297Y-83653717D01*
X210583255Y-83665096D01*
X210576331Y-83676861D01*
X210569525Y-83689011D01*
X210556220Y-83674195D01*
X210542343Y-83659433D01*
X210527892Y-83644725D01*
X210512868Y-83630073D01*
X210497272Y-83615474D01*
X210481102Y-83600931D01*
X210464359Y-83586441D01*
X210447043Y-83572007D01*
X210429155Y-83557627D01*
X210410693Y-83543302D01*
X210391658Y-83529031D01*
X210372050Y-83514814D01*
X210351869Y-83500653D01*
X210331115Y-83486546D01*
X210320524Y-83479512D01*
X210309788Y-83472493D01*
X210298910Y-83465487D01*
X210287889Y-83458495D01*
X210287889Y-83434681D01*
X210287531Y-83420071D01*
X210286460Y-83406403D01*
X210284674Y-83393677D01*
X210280655Y-83376356D01*
X210275029Y-83361157D01*
X210267796Y-83348078D01*
X210258955Y-83337120D01*
X210248507Y-83328283D01*
X210236451Y-83321566D01*
X210222788Y-83316971D01*
X210207517Y-83314497D01*
X210196444Y-83314025D01*
X210180102Y-83315086D01*
X210165367Y-83318267D01*
X210152240Y-83323569D01*
X210140720Y-83330993D01*
X210130808Y-83340537D01*
X210122503Y-83352202D01*
X210115805Y-83365988D01*
X210110715Y-83381894D01*
X210107232Y-83399922D01*
X210105803Y-83413119D01*
X210105089Y-83427258D01*
X210105000Y-83434681D01*
X210105000Y-83579151D01*
X210121452Y-83587752D01*
X210137867Y-83596649D01*
X210154245Y-83605841D01*
X210170586Y-83615328D01*
X210186890Y-83625110D01*
X210203157Y-83635188D01*
X210219386Y-83645560D01*
X210235578Y-83656228D01*
X210251733Y-83667191D01*
X210267850Y-83678449D01*
X210283931Y-83690002D01*
X210299974Y-83701851D01*
X210315980Y-83713995D01*
X210331949Y-83726434D01*
X210347880Y-83739168D01*
X210363775Y-83752197D01*
X210379234Y-83765152D01*
X210393859Y-83777742D01*
X210407651Y-83789968D01*
X210420610Y-83801829D01*
X210432735Y-83813325D01*
X210444027Y-83824457D01*
X210454485Y-83835224D01*
X210464110Y-83845626D01*
X210472901Y-83855664D01*
X210484525Y-83870037D01*
X210494274Y-83883589D01*
X210502147Y-83896321D01*
X210508145Y-83908232D01*
X210511102Y-83915718D01*
X210511102Y-84091304D01*
X210287889Y-84091304D01*
X210287889Y-84027483D01*
X210287531Y-84012834D01*
X210286460Y-83999130D01*
X210284674Y-83986371D01*
X210280655Y-83969005D01*
X210275029Y-83953765D01*
X210267796Y-83940652D01*
X210258955Y-83929665D01*
X210248507Y-83920804D01*
X210236451Y-83914071D01*
X210222788Y-83909463D01*
X210207517Y-83906982D01*
X210196444Y-83906510D01*
X210180102Y-83907573D01*
X210165367Y-83910763D01*
X210152240Y-83916079D01*
X210140720Y-83923522D01*
X210130808Y-83933091D01*
X210122503Y-83944786D01*
X210115805Y-83958609D01*
X210110715Y-83974557D01*
X210107232Y-83992632D01*
X210105803Y-84005864D01*
X210105089Y-84020040D01*
X210105000Y-84027483D01*
X210105000Y-84301817D01*
X207345286Y-84301817D01*
X207345286Y-82845055D01*
X210079281Y-82845055D01*
X210079746Y-82864562D01*
X210081141Y-82884744D01*
X210083467Y-82905601D01*
X210086723Y-82927133D01*
X210090909Y-82949339D01*
X210096025Y-82972220D01*
X210102071Y-82995775D01*
X210109048Y-83020006D01*
X210112885Y-83032374D01*
X210116955Y-83044911D01*
X210121257Y-83057617D01*
X210125792Y-83070491D01*
X210130559Y-83083534D01*
X210135559Y-83096745D01*
X210140792Y-83110126D01*
X210146257Y-83123675D01*
X210151954Y-83137392D01*
X210157884Y-83151279D01*
X210164047Y-83165334D01*
X210170442Y-83179558D01*
X210177070Y-83193950D01*
X210183931Y-83208511D01*
X210191024Y-83223241D01*
X210198349Y-83238139D01*
X210494591Y-83238139D01*
X210509433Y-83237782D01*
X210523317Y-83236710D01*
X210536243Y-83234924D01*
X210553837Y-83230906D01*
X210569277Y-83225280D01*
X210582562Y-83218046D01*
X210593693Y-83209206D01*
X210602670Y-83198757D01*
X210609492Y-83186702D01*
X210614160Y-83173039D01*
X210616674Y-83157768D01*
X210617152Y-83146695D01*
X210616651Y-83133538D01*
X210614616Y-83118710D01*
X210611014Y-83105681D01*
X210604625Y-83092419D01*
X210595982Y-83081748D01*
X210585083Y-83073666D01*
X210572131Y-83067408D01*
X210559922Y-83063181D01*
X210546426Y-83059854D01*
X210531643Y-83057426D01*
X210518890Y-83056131D01*
X210505314Y-83055412D01*
X210494591Y-83055250D01*
X210319005Y-83055250D01*
X210312123Y-83039642D01*
X210305684Y-83024332D01*
X210299690Y-83009319D01*
X210294140Y-82994605D01*
X210289033Y-82980187D01*
X210284371Y-82966068D01*
X210280153Y-82952246D01*
X210276379Y-82938722D01*
X210273048Y-82925495D01*
X210270162Y-82912567D01*
X210267720Y-82899935D01*
X210264889Y-82881547D01*
X210263058Y-82863828D01*
X210262225Y-82846779D01*
X210262170Y-82841245D01*
X210262428Y-82828362D01*
X210263782Y-82809544D01*
X210266297Y-82791335D01*
X210269974Y-82773734D01*
X210274811Y-82756742D01*
X210280809Y-82740358D01*
X210287968Y-82724582D01*
X210296288Y-82709415D01*
X210305769Y-82694856D01*
X210316410Y-82680906D01*
X210328213Y-82667563D01*
X210338978Y-82657379D01*
X210349363Y-82648736D01*
X210360999Y-82640598D01*
X210373665Y-82633866D01*
X210381238Y-82631049D01*
X210395526Y-82627854D01*
X210409368Y-82626057D01*
X210422949Y-82624952D01*
X210438391Y-82624203D01*
X210452084Y-82623860D01*
X210466967Y-82623746D01*
X210988328Y-82623746D01*
X210988328Y-82841245D01*
X210988685Y-82855855D01*
X210989757Y-82869523D01*
X210991543Y-82882249D01*
X210995562Y-82899569D01*
X211001188Y-82914769D01*
X211008421Y-82927848D01*
X211017262Y-82938806D01*
X211027710Y-82947643D01*
X211039766Y-82954360D01*
X211053429Y-82958955D01*
X211068699Y-82961429D01*
X211079773Y-82961901D01*
X211092498Y-82961414D01*
X211106912Y-82959439D01*
X211119667Y-82955945D01*
X211132783Y-82949746D01*
X211143510Y-82941359D01*
X211151849Y-82930784D01*
X211158431Y-82918155D01*
X211162876Y-82906165D01*
X211166375Y-82892841D01*
X211168929Y-82878184D01*
X211170290Y-82865498D01*
X211171047Y-82851959D01*
X211171217Y-82841245D01*
X211171217Y-82336395D01*
X211170860Y-82321784D01*
X211169788Y-82308116D01*
X211168002Y-82295390D01*
X211163984Y-82278070D01*
X211158358Y-82262870D01*
X211151124Y-82249791D01*
X211142726Y-82239381D01*
X211143593Y-82238600D01*
X211152981Y-82227671D01*
X211159321Y-82216603D01*
X211164311Y-82203752D01*
X211167953Y-82189118D01*
X211169895Y-82176128D01*
X211170974Y-82161996D01*
X211171217Y-82150648D01*
X211171217Y-81944263D01*
X210626360Y-81691838D01*
X211171217Y-81444810D01*
X211171217Y-81243823D01*
X211170860Y-81229174D01*
X211169788Y-81215470D01*
X211168002Y-81202711D01*
X211163984Y-81185345D01*
X211158358Y-81170105D01*
X211151124Y-81156991D01*
X211142284Y-81146005D01*
X211131835Y-81137144D01*
X211119780Y-81130410D01*
X211111121Y-81127490D01*
X211119667Y-81125149D01*
X211132783Y-81118950D01*
X211143510Y-81110563D01*
X211151849Y-81099988D01*
X211158431Y-81087360D01*
X211162876Y-81075369D01*
X211166375Y-81062045D01*
X211168929Y-81047388D01*
X211170290Y-81034702D01*
X211171047Y-81021163D01*
X211171217Y-81010449D01*
X211171217Y-80584343D01*
X211170839Y-80562876D01*
X211169704Y-80541895D01*
X211167813Y-80521400D01*
X211165165Y-80501392D01*
X211161760Y-80481870D01*
X211157599Y-80462834D01*
X211152681Y-80444284D01*
X211147007Y-80426220D01*
X211140576Y-80408643D01*
X211133388Y-80391551D01*
X211125444Y-80374946D01*
X211116743Y-80358827D01*
X211107286Y-80343195D01*
X211097072Y-80328048D01*
X211086102Y-80313388D01*
X211074375Y-80299214D01*
X211062054Y-80285680D01*
X211049301Y-80273019D01*
X211036117Y-80261231D01*
X211022501Y-80250316D01*
X211008453Y-80240275D01*
X210993974Y-80231107D01*
X210979063Y-80222812D01*
X210963721Y-80215390D01*
X210947947Y-80208841D01*
X210931741Y-80203165D01*
X210915104Y-80198363D01*
X210898035Y-80194434D01*
X210880534Y-80191378D01*
X210862602Y-80189195D01*
X210844238Y-80187885D01*
X210825443Y-80187448D01*
X210810148Y-80187720D01*
X210795024Y-80188534D01*
X210780071Y-80189890D01*
X210765288Y-80191789D01*
X210750676Y-80194231D01*
X210736234Y-80197216D01*
X210730505Y-80198561D01*
X210716147Y-80202431D01*
X210701650Y-80207293D01*
X210687013Y-80213147D01*
X210675203Y-80218545D01*
X210663303Y-80224578D01*
X210651315Y-80231246D01*
X210639237Y-80238548D01*
X210636203Y-80240473D01*
X210624331Y-80248496D01*
X210612846Y-80257004D01*
X210601748Y-80265999D01*
X210591037Y-80275480D01*
X210580712Y-80285447D01*
X210570775Y-80295900D01*
X210561225Y-80306839D01*
X210552062Y-80318265D01*
X210543370Y-80330420D01*
X210535075Y-80343547D01*
X210527176Y-80357647D01*
X210519675Y-80372719D01*
X210514309Y-80384661D01*
X210509167Y-80397150D01*
X210504248Y-80410186D01*
X210499552Y-80423769D01*
X210495080Y-80437899D01*
X210493639Y-80442731D01*
X210489553Y-80457461D01*
X210485870Y-80472598D01*
X210482588Y-80488143D01*
X210479708Y-80504096D01*
X210477230Y-80520456D01*
X210475153Y-80537223D01*
X210473479Y-80554398D01*
X210472206Y-80571980D01*
X210471336Y-80589969D01*
X210470867Y-80608366D01*
X210470778Y-80620857D01*
X210470778Y-80800254D01*
X210287889Y-80800254D01*
X210287889Y-80618952D01*
X210287531Y-80604341D01*
X210286460Y-80590673D01*
X210284674Y-80577948D01*
X210280655Y-80560627D01*
X210275029Y-80545427D01*
X210267796Y-80532348D01*
X210258955Y-80521390D01*
X210248507Y-80512553D01*
X210236451Y-80505837D01*
X210222788Y-80501242D01*
X210207517Y-80498767D01*
X210196444Y-80498296D01*
X210180102Y-80499357D01*
X210165367Y-80502538D01*
X210152240Y-80507840D01*
X210140720Y-80515263D01*
X210130808Y-80524808D01*
X210122503Y-80536472D01*
X210115805Y-80550258D01*
X210110715Y-80566165D01*
X210107232Y-80584193D01*
X210105803Y-80597390D01*
X210105089Y-80611529D01*
X210105000Y-80618952D01*
X210105000Y-81010449D01*
X210105357Y-81025060D01*
X210106428Y-81038728D01*
X210108214Y-81051453D01*
X210112233Y-81068774D01*
X210117859Y-81083974D01*
X210125092Y-81097053D01*
X210133933Y-81108011D01*
X210144381Y-81116848D01*
X210148056Y-81118895D01*
X210140720Y-81123624D01*
X210130808Y-81133168D01*
X210122503Y-81144833D01*
X210115805Y-81158618D01*
X210110715Y-81174525D01*
X210107232Y-81192553D01*
X210105803Y-81205750D01*
X210105089Y-81219889D01*
X210105000Y-81227312D01*
X210105000Y-81464814D01*
X210105357Y-81479463D01*
X210106428Y-81493167D01*
X210108214Y-81505926D01*
X210112233Y-81523292D01*
X210117859Y-81538532D01*
X210125092Y-81551646D01*
X210133933Y-81562632D01*
X210144381Y-81571493D01*
X210156437Y-81578227D01*
X210170100Y-81582834D01*
X210185371Y-81585315D01*
X210196444Y-81585787D01*
X210209169Y-81585301D01*
X210223583Y-81583326D01*
X210236338Y-81579832D01*
X210249454Y-81573633D01*
X210260182Y-81565246D01*
X210268520Y-81554671D01*
X210275102Y-81542031D01*
X210279547Y-81530014D01*
X210283046Y-81516648D01*
X210285600Y-81501934D01*
X210286962Y-81489191D01*
X210287718Y-81475585D01*
X210287889Y-81464814D01*
X210287889Y-81400993D01*
X210816552Y-81400993D01*
X210355519Y-81603886D01*
X210355519Y-81770264D01*
X210814647Y-81986175D01*
X210287889Y-81986175D01*
X210287889Y-81922037D01*
X210287586Y-81907426D01*
X210286678Y-81893758D01*
X210285165Y-81881032D01*
X210282422Y-81866451D01*
X210278734Y-81853343D01*
X210273060Y-81839557D01*
X210268520Y-81831545D01*
X210260182Y-81821294D01*
X210249454Y-81813163D01*
X210236338Y-81807154D01*
X210223583Y-81803767D01*
X210209169Y-81801852D01*
X210196444Y-81801381D01*
X210180102Y-81802441D01*
X210165367Y-81805622D01*
X210152240Y-81810925D01*
X210140720Y-81818348D01*
X210130808Y-81827892D01*
X210122503Y-81839557D01*
X210115805Y-81853343D01*
X210110715Y-81869250D01*
X210107232Y-81887277D01*
X210105803Y-81900474D01*
X210105089Y-81914613D01*
X210105000Y-81922037D01*
X210105000Y-82158268D01*
X210105357Y-82173071D01*
X210106428Y-82186919D01*
X210108214Y-82199812D01*
X210112233Y-82217361D01*
X210117859Y-82232760D01*
X210125092Y-82246011D01*
X210133933Y-82257114D01*
X210144381Y-82266067D01*
X210156437Y-82272872D01*
X210170100Y-82277527D01*
X210185371Y-82280034D01*
X210196444Y-82280512D01*
X210212786Y-82279532D01*
X210227521Y-82276594D01*
X210240648Y-82271696D01*
X210252168Y-82264839D01*
X210262080Y-82256024D01*
X210270385Y-82245249D01*
X210277083Y-82232515D01*
X210282173Y-82217822D01*
X210285656Y-82201170D01*
X210287531Y-82182559D01*
X210287889Y-82169064D01*
X210986423Y-82169064D01*
X210988808Y-82186087D01*
X210992510Y-82201436D01*
X210997530Y-82215110D01*
X211003867Y-82227110D01*
X211011520Y-82237435D01*
X211015434Y-82241000D01*
X211014136Y-82242250D01*
X211005831Y-82253915D01*
X210999134Y-82267701D01*
X210994043Y-82283608D01*
X210990561Y-82301635D01*
X210989132Y-82314832D01*
X210988417Y-82328971D01*
X210988328Y-82336395D01*
X210988328Y-82440857D01*
X210446964Y-82440857D01*
X210426650Y-82441311D01*
X210406828Y-82442673D01*
X210387497Y-82444943D01*
X210368657Y-82448120D01*
X210350308Y-82452206D01*
X210332450Y-82457199D01*
X210315083Y-82463101D01*
X210298208Y-82469910D01*
X210281823Y-82477627D01*
X210265930Y-82486252D01*
X210250528Y-82495785D01*
X210235618Y-82506226D01*
X210221198Y-82517574D01*
X210207269Y-82529831D01*
X210193832Y-82542996D01*
X210180886Y-82557068D01*
X210168582Y-82571774D01*
X210157072Y-82586919D01*
X210146356Y-82602504D01*
X210136434Y-82618527D01*
X210127305Y-82634990D01*
X210118970Y-82651891D01*
X210111429Y-82669232D01*
X210104682Y-82687011D01*
X210098729Y-82705230D01*
X210093569Y-82723888D01*
X210089203Y-82742985D01*
X210085631Y-82762520D01*
X210082853Y-82782495D01*
X210080868Y-82802909D01*
X210079678Y-82823763D01*
X210079281Y-82845055D01*
X207345286Y-82845055D01*
X207345286Y-78301405D01*
X207921000Y-78301405D01*
X207921357Y-78316015D01*
X207922428Y-78329684D01*
X207924214Y-78342409D01*
X207928233Y-78359730D01*
X207933859Y-78374929D01*
X207941092Y-78388008D01*
X207949933Y-78398966D01*
X207960381Y-78407804D01*
X207972437Y-78414520D01*
X207986100Y-78419115D01*
X208001371Y-78421589D01*
X208012444Y-78422061D01*
X208028786Y-78421000D01*
X208043521Y-78417819D01*
X208056648Y-78412517D01*
X208068168Y-78405093D01*
X208078080Y-78395549D01*
X208086385Y-78383884D01*
X208093083Y-78370099D01*
X208098173Y-78354192D01*
X208101656Y-78336164D01*
X208103085Y-78322967D01*
X208103799Y-78308828D01*
X208103889Y-78301405D01*
X208103889Y-78273781D01*
X208804328Y-78273781D01*
X208804328Y-78301405D01*
X208804685Y-78316015D01*
X208805757Y-78329684D01*
X208807543Y-78342409D01*
X208811562Y-78359730D01*
X208817188Y-78374929D01*
X208824421Y-78388008D01*
X208833262Y-78398966D01*
X208843710Y-78407804D01*
X208855766Y-78414520D01*
X208869429Y-78419115D01*
X208884699Y-78421589D01*
X208895773Y-78422061D01*
X208908498Y-78421575D01*
X208922912Y-78419599D01*
X208935667Y-78416105D01*
X208948783Y-78409906D01*
X208959510Y-78401519D01*
X208967849Y-78390944D01*
X208974431Y-78378316D01*
X208975753Y-78374751D01*
X210079281Y-78374751D01*
X210079414Y-78389200D01*
X210079813Y-78403493D01*
X210080478Y-78417630D01*
X210081409Y-78431611D01*
X210082606Y-78445437D01*
X210084070Y-78459107D01*
X210085799Y-78472622D01*
X210087794Y-78485981D01*
X210090055Y-78499184D01*
X210092583Y-78512232D01*
X210095376Y-78525124D01*
X210098436Y-78537860D01*
X210101761Y-78550441D01*
X210105353Y-78562866D01*
X210109211Y-78575135D01*
X210113334Y-78587249D01*
X210117724Y-78599207D01*
X210127302Y-78622656D01*
X210137943Y-78645482D01*
X210149649Y-78667686D01*
X210162419Y-78689267D01*
X210176254Y-78710225D01*
X210191152Y-78730561D01*
X210207115Y-78750275D01*
X210215495Y-78759898D01*
X210224098Y-78769294D01*
X210241725Y-78787191D01*
X210259913Y-78803896D01*
X210278661Y-78819407D01*
X210297970Y-78833725D01*
X210317840Y-78846850D01*
X210338270Y-78858781D01*
X210359261Y-78869520D01*
X210380812Y-78879065D01*
X210402924Y-78887417D01*
X210425597Y-78894576D01*
X210448830Y-78900542D01*
X210472624Y-78905315D01*
X210496978Y-78908894D01*
X210521893Y-78911280D01*
X210547369Y-78912474D01*
X210560317Y-78912623D01*
X210680973Y-78912623D01*
X210694635Y-78912484D01*
X210708158Y-78912066D01*
X210721540Y-78911370D01*
X210734782Y-78910395D01*
X210747884Y-78909142D01*
X210760846Y-78907611D01*
X210773667Y-78905801D01*
X210786349Y-78903712D01*
X210798890Y-78901346D01*
X210823552Y-78895777D01*
X210847653Y-78889094D01*
X210871194Y-78881298D01*
X210894174Y-78872387D01*
X210916594Y-78862363D01*
X210938453Y-78851225D01*
X210959751Y-78838974D01*
X210980489Y-78825608D01*
X211000666Y-78811129D01*
X211020283Y-78795536D01*
X211039338Y-78778829D01*
X211048656Y-78770058D01*
X211057779Y-78761060D01*
X211066612Y-78751928D01*
X211083409Y-78733256D01*
X211099048Y-78714044D01*
X211113529Y-78694291D01*
X211126851Y-78673997D01*
X211139014Y-78653163D01*
X211150019Y-78631788D01*
X211159866Y-78609872D01*
X211168554Y-78587415D01*
X211176084Y-78564417D01*
X211182456Y-78540879D01*
X211187669Y-78516800D01*
X211191723Y-78492180D01*
X211194619Y-78467019D01*
X211195633Y-78454236D01*
X211196357Y-78441318D01*
X211196791Y-78428264D01*
X211196936Y-78415076D01*
X211196693Y-78399066D01*
X211195964Y-78383026D01*
X211194748Y-78366957D01*
X211193046Y-78350858D01*
X211190859Y-78334729D01*
X211188184Y-78318571D01*
X211185024Y-78302382D01*
X211181378Y-78286164D01*
X211177245Y-78269916D01*
X211172626Y-78253639D01*
X211167521Y-78237331D01*
X211161930Y-78220994D01*
X211155852Y-78204627D01*
X211149289Y-78188231D01*
X211142239Y-78171804D01*
X211134703Y-78155348D01*
X211127400Y-78137249D01*
X211137670Y-78129242D01*
X211148581Y-78118591D01*
X211157353Y-78107227D01*
X211163986Y-78095149D01*
X211168479Y-78082359D01*
X211170832Y-78068855D01*
X211171217Y-78060411D01*
X211170731Y-78047685D01*
X211168756Y-78033271D01*
X211165261Y-78020517D01*
X211159062Y-78007400D01*
X211150675Y-77996673D01*
X211140101Y-77988335D01*
X211127472Y-77981752D01*
X211115481Y-77977307D01*
X211102158Y-77973808D01*
X211087500Y-77971255D01*
X211074815Y-77969893D01*
X211061276Y-77969136D01*
X211050561Y-77968966D01*
X210896884Y-77968966D01*
X210882273Y-77969323D01*
X210868605Y-77970395D01*
X210855879Y-77972181D01*
X210838559Y-77976200D01*
X210823359Y-77981825D01*
X210810280Y-77989059D01*
X210799322Y-77997900D01*
X210790485Y-78008348D01*
X210783769Y-78020404D01*
X210779173Y-78034067D01*
X210776699Y-78049337D01*
X210776228Y-78060411D01*
X210777094Y-78074172D01*
X210779692Y-78086839D01*
X210784782Y-78099976D01*
X210792134Y-78111684D01*
X210794326Y-78114388D01*
X210803355Y-78123854D01*
X210813086Y-78132084D01*
X210824366Y-78138663D01*
X210828300Y-78140107D01*
X210840610Y-78143276D01*
X210853081Y-78146036D01*
X210865980Y-78148615D01*
X210873070Y-78149950D01*
X210886470Y-78153428D01*
X210899205Y-78158305D01*
X210911276Y-78164581D01*
X210922682Y-78172256D01*
X210933423Y-78181330D01*
X210943499Y-78191803D01*
X210952910Y-78203675D01*
X210961657Y-78216946D01*
X210969763Y-78230713D01*
X210977096Y-78244232D01*
X210983655Y-78257504D01*
X210989439Y-78270527D01*
X210994450Y-78283302D01*
X210998687Y-78295829D01*
X211002150Y-78308108D01*
X211004839Y-78320138D01*
X211007492Y-78334752D01*
X211009695Y-78349025D01*
X211011448Y-78362957D01*
X211012752Y-78376547D01*
X211013606Y-78389797D01*
X211014011Y-78402705D01*
X211014047Y-78407773D01*
X211013679Y-78424971D01*
X211012573Y-78441797D01*
X211010732Y-78458250D01*
X211008153Y-78474332D01*
X211004838Y-78490042D01*
X211000786Y-78505379D01*
X210995997Y-78520345D01*
X210990471Y-78534938D01*
X210984209Y-78549159D01*
X210977210Y-78563008D01*
X210969474Y-78576485D01*
X210961002Y-78589590D01*
X210951793Y-78602323D01*
X210941847Y-78614684D01*
X210931164Y-78626673D01*
X210919745Y-78638289D01*
X210907761Y-78649363D01*
X210895385Y-78659722D01*
X210882618Y-78669366D01*
X210869458Y-78678296D01*
X210855907Y-78686512D01*
X210841963Y-78694013D01*
X210827628Y-78700800D01*
X210812901Y-78706873D01*
X210797782Y-78712231D01*
X210782270Y-78716874D01*
X210766367Y-78720804D01*
X210750072Y-78724018D01*
X210733385Y-78726519D01*
X210716307Y-78728305D01*
X210698836Y-78729377D01*
X210680973Y-78729734D01*
X210564127Y-78729734D01*
X210547195Y-78729352D01*
X210530689Y-78728206D01*
X210514610Y-78726296D01*
X210498957Y-78723622D01*
X210483731Y-78720183D01*
X210468932Y-78715981D01*
X210454559Y-78711015D01*
X210440614Y-78705285D01*
X210427094Y-78698791D01*
X210414002Y-78691533D01*
X210401336Y-78683510D01*
X210389097Y-78674724D01*
X210377284Y-78665174D01*
X210365898Y-78654860D01*
X210354939Y-78643781D01*
X210344406Y-78631939D01*
X210334448Y-78619453D01*
X210325132Y-78606443D01*
X210316459Y-78592911D01*
X210308428Y-78578854D01*
X210301039Y-78564275D01*
X210294293Y-78549171D01*
X210288190Y-78533545D01*
X210282729Y-78517395D01*
X210277910Y-78500722D01*
X210273734Y-78483525D01*
X210270201Y-78465805D01*
X210267310Y-78447561D01*
X210265061Y-78428795D01*
X210263455Y-78409504D01*
X210262491Y-78389691D01*
X210262170Y-78369353D01*
X210262354Y-78353440D01*
X210262907Y-78337968D01*
X210263827Y-78322936D01*
X210265117Y-78308346D01*
X210266774Y-78294196D01*
X210268800Y-78280487D01*
X210271195Y-78267220D01*
X210273958Y-78254393D01*
X210277089Y-78242007D01*
X210281837Y-78226178D01*
X210283126Y-78222344D01*
X210288494Y-78207579D01*
X210293961Y-78193926D01*
X210299527Y-78181384D01*
X210305193Y-78169954D01*
X210312415Y-78157228D01*
X210319791Y-78146239D01*
X210328848Y-78135344D01*
X210338001Y-78125677D01*
X210346887Y-78115966D01*
X210355505Y-78106210D01*
X210363854Y-78096409D01*
X210371936Y-78086564D01*
X210374570Y-78083272D01*
X210382860Y-78071740D01*
X210389113Y-78060481D01*
X210393766Y-78047949D01*
X210395823Y-78034278D01*
X210395844Y-78032787D01*
X210394873Y-78019418D01*
X210391959Y-78006696D01*
X210387104Y-77994622D01*
X210380305Y-77983195D01*
X210371565Y-77972415D01*
X210368220Y-77968966D01*
X210357656Y-77959578D01*
X210346445Y-77952133D01*
X210334587Y-77946630D01*
X210322081Y-77943069D01*
X210308928Y-77941450D01*
X210304399Y-77941342D01*
X210289682Y-77942445D01*
X210275060Y-77945751D01*
X210260533Y-77951263D01*
X210246101Y-77958979D01*
X210231763Y-77968900D01*
X210217520Y-77981025D01*
X210208078Y-77990334D01*
X210198678Y-78000622D01*
X210189320Y-78011890D01*
X210180004Y-78024138D01*
X210170730Y-78037366D01*
X210161499Y-78051574D01*
X210152309Y-78066761D01*
X210143466Y-78082624D01*
X210135193Y-78098939D01*
X210127491Y-78115705D01*
X210120359Y-78132923D01*
X210113798Y-78150593D01*
X210107808Y-78168713D01*
X210102387Y-78187285D01*
X210097538Y-78206309D01*
X210093259Y-78225784D01*
X210089550Y-78245711D01*
X210086412Y-78266089D01*
X210083845Y-78286918D01*
X210081848Y-78308199D01*
X210080422Y-78329932D01*
X210079566Y-78352116D01*
X210079281Y-78374751D01*
X208975753Y-78374751D01*
X208978876Y-78366325D01*
X208982375Y-78353001D01*
X208984929Y-78338344D01*
X208986290Y-78325658D01*
X208987047Y-78312119D01*
X208987217Y-78301405D01*
X208987217Y-77893397D01*
X208986864Y-77871465D01*
X208985803Y-77850041D01*
X208984036Y-77829126D01*
X208981561Y-77808720D01*
X208980124Y-77799730D01*
X210105000Y-77799730D01*
X210105357Y-77814341D01*
X210106428Y-77828009D01*
X210108214Y-77840734D01*
X210112233Y-77858055D01*
X210117859Y-77873255D01*
X210125092Y-77886334D01*
X210133933Y-77897292D01*
X210144381Y-77906129D01*
X210156437Y-77912845D01*
X210170100Y-77917440D01*
X210185371Y-77919915D01*
X210196444Y-77920386D01*
X210209601Y-77919885D01*
X210224429Y-77917849D01*
X210237458Y-77914248D01*
X210250719Y-77907859D01*
X210261391Y-77899216D01*
X210269473Y-77888317D01*
X210275731Y-77875365D01*
X210279957Y-77863156D01*
X210283285Y-77849660D01*
X210285712Y-77834877D01*
X210287007Y-77822124D01*
X210287727Y-77808548D01*
X210287889Y-77797825D01*
X210988328Y-77514284D01*
X210988328Y-77629542D01*
X210988685Y-77644383D01*
X210989757Y-77658267D01*
X210991543Y-77671193D01*
X210995562Y-77688788D01*
X211001188Y-77704227D01*
X211008421Y-77717513D01*
X211017262Y-77728644D01*
X211027710Y-77737621D01*
X211039766Y-77744443D01*
X211053429Y-77749111D01*
X211068699Y-77751624D01*
X211079773Y-77752103D01*
X211092930Y-77751602D01*
X211107757Y-77749566D01*
X211120787Y-77745965D01*
X211134048Y-77739576D01*
X211144720Y-77730932D01*
X211152801Y-77720034D01*
X211159060Y-77707081D01*
X211163286Y-77694872D01*
X211166613Y-77681376D01*
X211169041Y-77666593D01*
X211170336Y-77653841D01*
X211171055Y-77640264D01*
X211171217Y-77629542D01*
X211171217Y-77234552D01*
X210287889Y-76870679D01*
X210287531Y-76855607D01*
X210286460Y-76841508D01*
X210284674Y-76828380D01*
X210280655Y-76810513D01*
X210275029Y-76794833D01*
X210267796Y-76781341D01*
X210258955Y-76770037D01*
X210248507Y-76760921D01*
X210243942Y-76758297D01*
X210252168Y-76753402D01*
X210262080Y-76744586D01*
X210270385Y-76733811D01*
X210277083Y-76721078D01*
X210282173Y-76706385D01*
X210285656Y-76689733D01*
X210287531Y-76671122D01*
X210287889Y-76657626D01*
X210988328Y-76657626D01*
X210988328Y-76684933D01*
X210988685Y-76699543D01*
X210989757Y-76713211D01*
X210991543Y-76725937D01*
X210995562Y-76743258D01*
X211001188Y-76758457D01*
X211008421Y-76771536D01*
X211017262Y-76782494D01*
X211027710Y-76791331D01*
X211039766Y-76798048D01*
X211053429Y-76802643D01*
X211068699Y-76805117D01*
X211079773Y-76805589D01*
X211092498Y-76805102D01*
X211106912Y-76803127D01*
X211119667Y-76799633D01*
X211132783Y-76793434D01*
X211143510Y-76785047D01*
X211151849Y-76774472D01*
X211158431Y-76761843D01*
X211162876Y-76749853D01*
X211166375Y-76736529D01*
X211168929Y-76721872D01*
X211170290Y-76709186D01*
X211171047Y-76695647D01*
X211171217Y-76684933D01*
X211171217Y-76474737D01*
X210454267Y-76002591D01*
X210988328Y-76002591D01*
X210988328Y-76066730D01*
X210988685Y-76081340D01*
X210989757Y-76095008D01*
X210991543Y-76107734D01*
X210995562Y-76125054D01*
X211001188Y-76140254D01*
X211008421Y-76153333D01*
X211017262Y-76164291D01*
X211027710Y-76173128D01*
X211039766Y-76179845D01*
X211053429Y-76184440D01*
X211068699Y-76186914D01*
X211079773Y-76187386D01*
X211092498Y-76186899D01*
X211106912Y-76184924D01*
X211119667Y-76181430D01*
X211132783Y-76175231D01*
X211143510Y-76166844D01*
X211151849Y-76156269D01*
X211158431Y-76143640D01*
X211162876Y-76131650D01*
X211166375Y-76118326D01*
X211168929Y-76103669D01*
X211170290Y-76090983D01*
X211171047Y-76077444D01*
X211171217Y-76066730D01*
X211171217Y-75828910D01*
X211170860Y-75814300D01*
X211169788Y-75800632D01*
X211168002Y-75787906D01*
X211163984Y-75770585D01*
X211158358Y-75755386D01*
X211151124Y-75742307D01*
X211142284Y-75731349D01*
X211131835Y-75722512D01*
X211119780Y-75715795D01*
X211106117Y-75711200D01*
X211090846Y-75708726D01*
X211079773Y-75708254D01*
X211063431Y-75709234D01*
X211048696Y-75712172D01*
X211035569Y-75717070D01*
X211024049Y-75723927D01*
X211014136Y-75732742D01*
X211005831Y-75743517D01*
X210999134Y-75756251D01*
X210994043Y-75770944D01*
X210990561Y-75787596D01*
X210988685Y-75806207D01*
X210988328Y-75819702D01*
X210105000Y-75819702D01*
X210105000Y-76001004D01*
X210825443Y-76474737D01*
X210287889Y-76474737D01*
X210287889Y-76410599D01*
X210287586Y-76396420D01*
X210286678Y-76383094D01*
X210284692Y-76367637D01*
X210281760Y-76353513D01*
X210277883Y-76340723D01*
X210271981Y-76327134D01*
X210268520Y-76321060D01*
X210260182Y-76310485D01*
X210249454Y-76302098D01*
X210236338Y-76295899D01*
X210223583Y-76292404D01*
X210209169Y-76290429D01*
X210196444Y-76289943D01*
X210180102Y-76291004D01*
X210165367Y-76294185D01*
X210152240Y-76299487D01*
X210140720Y-76306910D01*
X210130808Y-76316454D01*
X210122503Y-76328119D01*
X210115805Y-76341905D01*
X210110715Y-76357812D01*
X210107232Y-76375840D01*
X210105803Y-76389037D01*
X210105089Y-76403176D01*
X210105000Y-76410599D01*
X210105000Y-76646513D01*
X210105357Y-76661355D01*
X210106428Y-76675238D01*
X210108214Y-76688165D01*
X210112233Y-76705759D01*
X210117859Y-76721199D01*
X210125092Y-76734484D01*
X210133933Y-76745615D01*
X210144381Y-76754592D01*
X210149528Y-76757504D01*
X210140720Y-76763180D01*
X210130808Y-76772724D01*
X210122503Y-76784389D01*
X210115805Y-76798175D01*
X210110715Y-76814082D01*
X210107232Y-76832110D01*
X210105803Y-76845307D01*
X210105089Y-76859446D01*
X210105000Y-76866869D01*
X210105000Y-77121199D01*
X210105357Y-77135810D01*
X210106428Y-77149478D01*
X210108214Y-77162203D01*
X210112233Y-77179524D01*
X210117859Y-77194724D01*
X210125092Y-77207803D01*
X210133933Y-77218761D01*
X210144381Y-77227598D01*
X210156437Y-77234314D01*
X210170100Y-77238909D01*
X210185371Y-77241384D01*
X210196444Y-77241855D01*
X210209169Y-77241369D01*
X210223583Y-77239394D01*
X210236338Y-77235899D01*
X210249454Y-77229700D01*
X210260182Y-77221313D01*
X210268520Y-77210739D01*
X210275102Y-77198110D01*
X210279547Y-77186119D01*
X210283046Y-77172795D01*
X210285600Y-77158138D01*
X210286962Y-77145453D01*
X210287718Y-77131913D01*
X210287889Y-77121199D01*
X210287889Y-77078970D01*
X210393939Y-77121199D01*
X210393939Y-77196133D01*
X210393939Y-77556513D01*
X210287889Y-77598425D01*
X210287889Y-77556513D01*
X210287531Y-77541903D01*
X210286460Y-77528234D01*
X210284674Y-77515509D01*
X210280655Y-77498188D01*
X210275029Y-77482988D01*
X210267796Y-77469910D01*
X210258955Y-77458952D01*
X210248507Y-77450114D01*
X210236451Y-77443398D01*
X210222788Y-77438803D01*
X210207517Y-77436329D01*
X210196444Y-77435857D01*
X210180102Y-77436918D01*
X210165367Y-77440099D01*
X210152240Y-77445401D01*
X210140720Y-77452824D01*
X210130808Y-77462369D01*
X210122503Y-77474034D01*
X210115805Y-77487819D01*
X210110715Y-77503726D01*
X210107232Y-77521754D01*
X210105803Y-77534951D01*
X210105089Y-77549090D01*
X210105000Y-77556513D01*
X210105000Y-77799730D01*
X208980124Y-77799730D01*
X208978380Y-77788822D01*
X208974492Y-77769432D01*
X208969896Y-77750551D01*
X208964594Y-77732178D01*
X208958585Y-77714315D01*
X208951869Y-77696959D01*
X208944446Y-77680112D01*
X208936315Y-77663774D01*
X208927478Y-77647944D01*
X208917934Y-77632622D01*
X208907683Y-77617810D01*
X208896725Y-77603505D01*
X208885203Y-77589894D01*
X208873259Y-77577161D01*
X208860893Y-77565307D01*
X208848106Y-77554330D01*
X208834897Y-77544232D01*
X208821266Y-77535011D01*
X208807213Y-77526669D01*
X208792739Y-77519205D01*
X208777843Y-77512619D01*
X208762525Y-77506911D01*
X208746786Y-77502081D01*
X208730625Y-77498130D01*
X208714042Y-77495056D01*
X208697038Y-77492861D01*
X208679611Y-77491544D01*
X208661764Y-77491105D01*
X208640964Y-77491876D01*
X208620635Y-77494191D01*
X208600778Y-77498048D01*
X208581392Y-77503448D01*
X208562478Y-77510391D01*
X208544035Y-77518877D01*
X208526063Y-77528906D01*
X208508562Y-77540478D01*
X208491533Y-77553593D01*
X208474975Y-77568251D01*
X208458888Y-77584452D01*
X208443273Y-77602196D01*
X208428129Y-77621482D01*
X208413456Y-77642312D01*
X208406297Y-77653305D01*
X208399255Y-77664684D01*
X208392331Y-77676449D01*
X208385525Y-77688599D01*
X208372220Y-77673783D01*
X208358343Y-77659021D01*
X208343892Y-77644313D01*
X208328868Y-77629661D01*
X208313272Y-77615062D01*
X208297102Y-77600519D01*
X208280359Y-77586029D01*
X208263043Y-77571595D01*
X208245155Y-77557215D01*
X208226693Y-77542890D01*
X208207658Y-77528619D01*
X208188050Y-77514402D01*
X208167869Y-77500241D01*
X208147115Y-77486134D01*
X208136524Y-77479100D01*
X208125788Y-77472081D01*
X208114910Y-77465075D01*
X208103889Y-77458083D01*
X208103889Y-77434269D01*
X208103531Y-77419659D01*
X208102460Y-77405991D01*
X208100674Y-77393265D01*
X208096655Y-77375944D01*
X208091029Y-77360745D01*
X208083796Y-77347666D01*
X208074955Y-77336708D01*
X208064507Y-77327871D01*
X208052451Y-77321154D01*
X208038788Y-77316559D01*
X208023517Y-77314085D01*
X208012444Y-77313613D01*
X207996102Y-77314674D01*
X207981367Y-77317855D01*
X207968240Y-77323157D01*
X207956720Y-77330581D01*
X207946808Y-77340125D01*
X207938503Y-77351790D01*
X207931805Y-77365576D01*
X207926715Y-77381482D01*
X207923232Y-77399510D01*
X207921803Y-77412707D01*
X207921089Y-77426846D01*
X207921000Y-77434269D01*
X207921000Y-77578739D01*
X207937452Y-77587340D01*
X207953867Y-77596237D01*
X207970245Y-77605429D01*
X207986586Y-77614916D01*
X208002890Y-77624698D01*
X208019157Y-77634776D01*
X208035386Y-77645148D01*
X208051578Y-77655816D01*
X208067733Y-77666779D01*
X208083850Y-77678037D01*
X208099931Y-77689590D01*
X208115974Y-77701439D01*
X208131980Y-77713583D01*
X208147949Y-77726022D01*
X208163880Y-77738756D01*
X208179775Y-77751785D01*
X208195234Y-77764740D01*
X208209859Y-77777330D01*
X208223651Y-77789556D01*
X208236610Y-77801417D01*
X208248735Y-77812913D01*
X208260027Y-77824045D01*
X208270485Y-77834812D01*
X208280110Y-77845214D01*
X208288901Y-77855252D01*
X208300525Y-77869625D01*
X208310274Y-77883177D01*
X208318147Y-77895909D01*
X208324145Y-77907820D01*
X208327102Y-77915306D01*
X208327102Y-78090892D01*
X208103889Y-78090892D01*
X208103889Y-78027071D01*
X208103531Y-78012422D01*
X208102460Y-77998718D01*
X208100674Y-77985959D01*
X208096655Y-77968593D01*
X208091029Y-77953353D01*
X208083796Y-77940240D01*
X208074955Y-77929253D01*
X208064507Y-77920392D01*
X208052451Y-77913659D01*
X208038788Y-77909051D01*
X208023517Y-77906570D01*
X208012444Y-77906098D01*
X207996102Y-77907161D01*
X207981367Y-77910351D01*
X207968240Y-77915667D01*
X207956720Y-77923110D01*
X207946808Y-77932679D01*
X207938503Y-77944374D01*
X207931805Y-77958197D01*
X207926715Y-77974145D01*
X207923232Y-77992220D01*
X207921803Y-78005452D01*
X207921089Y-78019628D01*
X207921000Y-78027071D01*
X207921000Y-78301405D01*
X207345286Y-78301405D01*
X207345286Y-76330585D01*
X207921000Y-76330585D01*
X207921000Y-77192005D01*
X207921357Y-77206616D01*
X207922428Y-77220284D01*
X207924214Y-77233009D01*
X207928233Y-77250330D01*
X207933859Y-77265530D01*
X207941092Y-77278609D01*
X207949933Y-77289567D01*
X207960381Y-77298404D01*
X207972437Y-77305120D01*
X207986100Y-77309715D01*
X208001371Y-77312190D01*
X208012444Y-77312661D01*
X208028786Y-77311600D01*
X208043521Y-77308419D01*
X208056648Y-77303117D01*
X208068168Y-77295694D01*
X208078080Y-77286150D01*
X208086385Y-77274485D01*
X208093083Y-77260699D01*
X208098173Y-77244792D01*
X208101656Y-77226764D01*
X208103085Y-77213567D01*
X208103799Y-77199428D01*
X208103889Y-77192005D01*
X208103889Y-77164699D01*
X208804328Y-77164699D01*
X208804328Y-77192005D01*
X208804685Y-77206616D01*
X208805757Y-77220284D01*
X208807543Y-77233009D01*
X208811562Y-77250330D01*
X208817188Y-77265530D01*
X208824421Y-77278609D01*
X208833262Y-77289567D01*
X208843710Y-77298404D01*
X208855766Y-77305120D01*
X208869429Y-77309715D01*
X208884699Y-77312190D01*
X208895773Y-77312661D01*
X208908498Y-77312175D01*
X208922912Y-77310200D01*
X208935667Y-77306705D01*
X208948783Y-77300506D01*
X208959510Y-77292119D01*
X208967849Y-77281544D01*
X208974431Y-77268916D01*
X208978876Y-77256925D01*
X208982375Y-77243601D01*
X208984929Y-77228944D01*
X208986290Y-77216258D01*
X208987047Y-77202719D01*
X208987217Y-77192005D01*
X208987217Y-76370909D01*
X208712884Y-76370909D01*
X208698042Y-76371267D01*
X208684158Y-76372338D01*
X208671232Y-76374124D01*
X208653638Y-76378143D01*
X208638198Y-76383769D01*
X208624913Y-76391002D01*
X208613782Y-76399843D01*
X208604805Y-76410291D01*
X208597983Y-76422347D01*
X208593315Y-76436010D01*
X208590801Y-76451280D01*
X208590323Y-76462354D01*
X208591400Y-76478696D01*
X208594631Y-76493431D01*
X208600017Y-76506558D01*
X208607558Y-76518078D01*
X208617253Y-76527990D01*
X208629102Y-76536295D01*
X208643105Y-76542993D01*
X208659263Y-76548083D01*
X208677576Y-76551566D01*
X208690981Y-76552995D01*
X208705343Y-76553709D01*
X208712884Y-76553798D01*
X208804328Y-76553798D01*
X208804328Y-76981810D01*
X208546505Y-76981810D01*
X208546505Y-76826227D01*
X208559206Y-76826227D01*
X208574047Y-76825877D01*
X208587931Y-76824828D01*
X208600858Y-76823079D01*
X208618452Y-76819144D01*
X208633892Y-76813635D01*
X208647177Y-76806553D01*
X208658308Y-76797896D01*
X208667285Y-76787665D01*
X208674107Y-76775861D01*
X208678775Y-76762482D01*
X208681288Y-76747530D01*
X208681767Y-76736687D01*
X208680690Y-76720345D01*
X208677458Y-76705611D01*
X208672072Y-76692483D01*
X208664532Y-76680963D01*
X208654837Y-76671051D01*
X208642988Y-76662746D01*
X208628984Y-76656048D01*
X208612827Y-76650958D01*
X208594514Y-76647475D01*
X208581109Y-76646047D01*
X208566746Y-76645332D01*
X208559206Y-76645243D01*
X208352503Y-76645243D01*
X208337893Y-76645593D01*
X208324225Y-76646642D01*
X208311499Y-76648391D01*
X208294178Y-76652326D01*
X208278979Y-76657834D01*
X208265900Y-76664917D01*
X208254942Y-76673574D01*
X208246105Y-76683804D01*
X208239388Y-76695609D01*
X208234793Y-76708987D01*
X208232319Y-76723940D01*
X208231847Y-76734782D01*
X208232908Y-76751124D01*
X208236089Y-76765859D01*
X208241391Y-76778986D01*
X208248815Y-76790506D01*
X208258359Y-76800419D01*
X208270024Y-76808724D01*
X208283810Y-76815421D01*
X208299716Y-76820512D01*
X208317744Y-76823994D01*
X208330941Y-76825423D01*
X208345080Y-76826138D01*
X208352503Y-76826227D01*
X208365521Y-76826227D01*
X208365521Y-76981810D01*
X208103889Y-76981810D01*
X208103889Y-76513474D01*
X208199143Y-76513474D01*
X208213946Y-76513117D01*
X208227794Y-76512045D01*
X208240687Y-76510259D01*
X208258236Y-76506240D01*
X208273635Y-76500614D01*
X208286886Y-76493381D01*
X208297989Y-76484540D01*
X208306942Y-76474092D01*
X208313747Y-76462036D01*
X208318402Y-76448373D01*
X208320909Y-76433103D01*
X208321387Y-76422029D01*
X208320312Y-76405687D01*
X208317089Y-76390952D01*
X208311717Y-76377825D01*
X208304196Y-76366305D01*
X208294527Y-76356393D01*
X208282708Y-76348088D01*
X208268741Y-76341390D01*
X208252625Y-76336300D01*
X208234360Y-76332817D01*
X208220990Y-76331389D01*
X208206664Y-76330674D01*
X208199143Y-76330585D01*
X207921000Y-76330585D01*
X207345286Y-76330585D01*
X207345286Y-75790173D01*
X207921000Y-75790173D01*
X208804328Y-76159444D01*
X208804685Y-76174516D01*
X208805757Y-76188616D01*
X208807543Y-76201743D01*
X208811562Y-76219611D01*
X208817188Y-76235290D01*
X208824421Y-76248782D01*
X208833262Y-76260086D01*
X208843710Y-76269203D01*
X208855766Y-76276131D01*
X208869429Y-76280871D01*
X208884699Y-76283424D01*
X208895773Y-76283910D01*
X208908498Y-76283424D01*
X208922912Y-76281449D01*
X208935667Y-76277954D01*
X208948783Y-76271755D01*
X208959510Y-76263368D01*
X208967849Y-76252793D01*
X208974431Y-76240165D01*
X208978876Y-76228174D01*
X208982375Y-76214850D01*
X208984929Y-76200193D01*
X208986290Y-76187507D01*
X208987047Y-76173968D01*
X208987217Y-76163254D01*
X208987217Y-75920037D01*
X208986915Y-75905788D01*
X208986007Y-75892413D01*
X208984021Y-75876922D01*
X208981089Y-75862795D01*
X208977211Y-75850032D01*
X208971310Y-75836518D01*
X208967849Y-75830498D01*
X208959510Y-75819923D01*
X208948783Y-75811536D01*
X208935667Y-75805337D01*
X208922912Y-75801842D01*
X208908498Y-75799867D01*
X208895773Y-75799381D01*
X208879431Y-75800441D01*
X208864696Y-75803623D01*
X208851569Y-75808925D01*
X208840049Y-75816348D01*
X208830136Y-75825892D01*
X208821831Y-75837557D01*
X208815134Y-75851343D01*
X208810043Y-75867250D01*
X208806561Y-75885278D01*
X208805132Y-75898474D01*
X208804417Y-75912614D01*
X208804328Y-75920037D01*
X208804328Y-75954646D01*
X208184220Y-75691426D01*
X208804328Y-75427888D01*
X208804328Y-75472022D01*
X208804626Y-75486201D01*
X208805519Y-75499527D01*
X208807472Y-75514984D01*
X208810356Y-75529108D01*
X208814170Y-75541899D01*
X208819975Y-75555487D01*
X208823379Y-75561562D01*
X208831826Y-75572137D01*
X208842638Y-75580523D01*
X208855818Y-75586722D01*
X208868608Y-75590217D01*
X208883042Y-75592192D01*
X208895773Y-75592678D01*
X208908498Y-75592192D01*
X208922912Y-75590217D01*
X208935667Y-75586722D01*
X208948783Y-75580523D01*
X208959510Y-75572137D01*
X208967849Y-75561562D01*
X208974431Y-75548933D01*
X208978876Y-75536943D01*
X208982375Y-75523619D01*
X208984929Y-75508961D01*
X208986290Y-75496276D01*
X208987047Y-75482737D01*
X208987217Y-75472022D01*
X208987217Y-75230393D01*
X208986860Y-75215782D01*
X208985788Y-75202114D01*
X208984002Y-75189389D01*
X208979984Y-75172068D01*
X208974358Y-75156868D01*
X208967124Y-75143789D01*
X208958284Y-75132831D01*
X208947835Y-75123994D01*
X208935780Y-75117278D01*
X208922117Y-75112683D01*
X208906846Y-75110208D01*
X208895773Y-75109737D01*
X208879431Y-75110831D01*
X208864696Y-75114113D01*
X208851569Y-75119582D01*
X208840049Y-75127240D01*
X208830136Y-75137085D01*
X208821831Y-75149119D01*
X208815134Y-75163340D01*
X208810043Y-75179749D01*
X208806561Y-75198346D01*
X208805132Y-75211960D01*
X208804417Y-75226546D01*
X208804328Y-75234203D01*
X207921000Y-75609189D01*
X207921000Y-75790173D01*
X207345286Y-75790173D01*
X207345286Y-74526778D01*
X210105000Y-74526778D01*
X210105357Y-74541389D01*
X210106428Y-74555057D01*
X210108214Y-74567783D01*
X210112233Y-74585103D01*
X210117859Y-74600303D01*
X210125092Y-74613382D01*
X210133933Y-74624340D01*
X210144381Y-74633177D01*
X210156437Y-74639893D01*
X210170100Y-74644489D01*
X210185371Y-74646963D01*
X210196444Y-74647434D01*
X210209601Y-74646933D01*
X210224429Y-74644898D01*
X210237458Y-74641296D01*
X210250719Y-74634907D01*
X210261391Y-74626264D01*
X210269473Y-74615365D01*
X210275731Y-74602413D01*
X210279957Y-74590204D01*
X210283285Y-74576708D01*
X210285712Y-74561925D01*
X210287007Y-74549172D01*
X210287727Y-74535596D01*
X210287889Y-74524873D01*
X210988328Y-74241332D01*
X210988328Y-74356590D01*
X210988685Y-74371431D01*
X210989757Y-74385315D01*
X210991543Y-74398242D01*
X210995562Y-74415836D01*
X211001188Y-74431276D01*
X211008421Y-74444561D01*
X211017262Y-74455692D01*
X211027710Y-74464669D01*
X211039766Y-74471491D01*
X211053429Y-74476159D01*
X211068699Y-74478672D01*
X211079773Y-74479151D01*
X211092930Y-74478650D01*
X211107757Y-74476614D01*
X211120787Y-74473013D01*
X211134048Y-74466624D01*
X211144720Y-74457980D01*
X211152801Y-74447082D01*
X211159060Y-74434130D01*
X211163286Y-74421920D01*
X211166613Y-74408424D01*
X211169041Y-74393642D01*
X211170336Y-74380889D01*
X211171055Y-74367313D01*
X211171217Y-74356590D01*
X211171217Y-73961600D01*
X210287889Y-73597727D01*
X210287531Y-73582655D01*
X210286460Y-73568556D01*
X210284674Y-73555428D01*
X210280655Y-73537561D01*
X210275029Y-73521881D01*
X210267796Y-73508389D01*
X210258955Y-73497085D01*
X210248507Y-73487969D01*
X210236451Y-73481040D01*
X210222788Y-73476300D01*
X210207517Y-73473747D01*
X210196444Y-73473261D01*
X210180102Y-73474322D01*
X210165367Y-73477503D01*
X210152240Y-73482805D01*
X210140720Y-73490229D01*
X210130808Y-73499773D01*
X210122503Y-73511438D01*
X210115805Y-73525223D01*
X210110715Y-73541130D01*
X210107232Y-73559158D01*
X210105803Y-73572355D01*
X210105089Y-73586494D01*
X210105000Y-73593917D01*
X210105000Y-73848247D01*
X210105357Y-73862858D01*
X210106428Y-73876526D01*
X210108214Y-73889252D01*
X210112233Y-73906572D01*
X210117859Y-73921772D01*
X210125092Y-73934851D01*
X210133933Y-73945809D01*
X210144381Y-73954646D01*
X210156437Y-73961362D01*
X210170100Y-73965958D01*
X210185371Y-73968432D01*
X210196444Y-73968903D01*
X210209169Y-73968417D01*
X210223583Y-73966442D01*
X210236338Y-73962947D01*
X210249454Y-73956748D01*
X210260182Y-73948362D01*
X210268520Y-73937787D01*
X210275102Y-73925158D01*
X210279547Y-73913168D01*
X210283046Y-73899844D01*
X210285600Y-73885186D01*
X210286962Y-73872501D01*
X210287718Y-73858962D01*
X210287889Y-73848247D01*
X210287889Y-73806018D01*
X210393939Y-73848247D01*
X210393939Y-73923181D01*
X210393939Y-74283561D01*
X210287889Y-74325473D01*
X210287889Y-74283561D01*
X210287531Y-74268951D01*
X210286460Y-74255283D01*
X210284674Y-74242557D01*
X210280655Y-74225236D01*
X210275029Y-74210037D01*
X210267796Y-74196958D01*
X210258955Y-74186000D01*
X210248507Y-74177163D01*
X210236451Y-74170446D01*
X210222788Y-74165851D01*
X210207517Y-74163377D01*
X210196444Y-74162905D01*
X210180102Y-74163966D01*
X210165367Y-74167147D01*
X210152240Y-74172449D01*
X210140720Y-74179873D01*
X210130808Y-74189417D01*
X210122503Y-74201082D01*
X210115805Y-74214868D01*
X210110715Y-74230774D01*
X210107232Y-74248802D01*
X210105803Y-74261999D01*
X210105089Y-74276138D01*
X210105000Y-74283561D01*
X210105000Y-74526778D01*
X207345286Y-74526778D01*
X207345286Y-73791094D01*
X207921000Y-73791094D01*
X207921357Y-73805705D01*
X207922428Y-73819373D01*
X207924214Y-73832098D01*
X207928233Y-73849419D01*
X207933859Y-73864619D01*
X207941092Y-73877698D01*
X207949933Y-73888656D01*
X207960381Y-73897493D01*
X207972437Y-73904209D01*
X207986100Y-73908804D01*
X208001371Y-73911279D01*
X208012444Y-73911750D01*
X208025169Y-73911264D01*
X208039583Y-73909289D01*
X208052338Y-73905794D01*
X208065454Y-73899595D01*
X208076182Y-73891208D01*
X208084520Y-73880634D01*
X208091102Y-73868005D01*
X208095547Y-73856014D01*
X208099046Y-73842691D01*
X208101600Y-73828033D01*
X208102962Y-73815348D01*
X208103718Y-73801809D01*
X208103889Y-73791094D01*
X208103889Y-73606300D01*
X208886565Y-73606300D01*
X208780515Y-73756168D01*
X208772422Y-73767219D01*
X208766003Y-73779654D01*
X208761259Y-73793473D01*
X208758585Y-73806047D01*
X208757073Y-73819581D01*
X208756701Y-73831101D01*
X208757658Y-73844320D01*
X208760530Y-73856748D01*
X208766156Y-73869984D01*
X208773129Y-73880720D01*
X208776704Y-73885079D01*
X208786202Y-73893987D01*
X208798546Y-73901488D01*
X208810649Y-73905707D01*
X208823967Y-73907739D01*
X208830047Y-73907940D01*
X208844018Y-73907146D01*
X208856718Y-73904765D01*
X208869488Y-73900188D01*
X208878309Y-73895239D01*
X208889405Y-73886639D01*
X208899605Y-73876548D01*
X208908791Y-73865829D01*
X208916858Y-73855240D01*
X208919586Y-73851422D01*
X209087870Y-73604395D01*
X209087870Y-73423411D01*
X208103889Y-73423411D01*
X208103889Y-73238617D01*
X208103531Y-73224006D01*
X208102460Y-73210338D01*
X208100674Y-73197613D01*
X208096655Y-73180292D01*
X208091029Y-73165092D01*
X208083796Y-73152013D01*
X208074955Y-73141055D01*
X208064507Y-73132218D01*
X208052451Y-73125502D01*
X208038788Y-73120907D01*
X208023517Y-73118432D01*
X208012444Y-73117961D01*
X207996102Y-73119021D01*
X207981367Y-73122203D01*
X207968240Y-73127505D01*
X207956720Y-73134928D01*
X207946808Y-73144472D01*
X207938503Y-73156137D01*
X207931805Y-73169923D01*
X207926715Y-73185830D01*
X207923232Y-73203858D01*
X207921803Y-73217054D01*
X207921089Y-73231194D01*
X207921000Y-73238617D01*
X207921000Y-73791094D01*
X207345286Y-73791094D01*
X207345286Y-73005878D01*
X210079281Y-73005878D01*
X210079400Y-73018599D01*
X210080358Y-73043563D01*
X210082273Y-73067893D01*
X210085145Y-73091588D01*
X210088975Y-73114647D01*
X210093763Y-73137072D01*
X210099508Y-73158861D01*
X210106211Y-73180016D01*
X210113871Y-73200535D01*
X210122488Y-73220420D01*
X210132063Y-73239669D01*
X210142596Y-73258283D01*
X210154086Y-73276263D01*
X210166534Y-73293607D01*
X210179939Y-73310316D01*
X210194301Y-73326390D01*
X210201842Y-73334189D01*
X210217390Y-73349146D01*
X210233395Y-73363138D01*
X210249856Y-73376165D01*
X210266774Y-73388227D01*
X210284148Y-73399324D01*
X210301978Y-73409456D01*
X210320265Y-73418623D01*
X210339009Y-73426825D01*
X210358208Y-73434062D01*
X210377865Y-73440334D01*
X210397977Y-73445641D01*
X210418546Y-73449983D01*
X210439572Y-73453361D01*
X210461054Y-73455773D01*
X210482992Y-73457221D01*
X210505387Y-73457703D01*
X210527816Y-73457221D01*
X210549779Y-73455773D01*
X210571276Y-73453361D01*
X210592307Y-73449983D01*
X210612871Y-73445641D01*
X210632969Y-73440334D01*
X210652600Y-73434062D01*
X210671765Y-73426825D01*
X210690464Y-73418623D01*
X210708696Y-73409456D01*
X210726462Y-73399324D01*
X210743762Y-73388227D01*
X210760595Y-73376165D01*
X210776962Y-73363138D01*
X210792863Y-73349146D01*
X210808297Y-73334189D01*
X210823023Y-73318425D01*
X210836799Y-73302011D01*
X210849625Y-73284947D01*
X210861501Y-73267233D01*
X210872426Y-73248869D01*
X210882402Y-73229856D01*
X210891428Y-73210192D01*
X210899503Y-73189879D01*
X210906629Y-73168915D01*
X210912804Y-73147302D01*
X210918029Y-73125038D01*
X210922305Y-73102125D01*
X210925630Y-73078562D01*
X210928005Y-73054349D01*
X210929430Y-73029486D01*
X210929905Y-73003973D01*
X210929548Y-72984260D01*
X210928476Y-72964889D01*
X210926690Y-72945860D01*
X210924190Y-72927174D01*
X210920975Y-72908830D01*
X210917046Y-72890828D01*
X210912402Y-72873169D01*
X210907044Y-72855852D01*
X210900972Y-72838877D01*
X210894185Y-72822245D01*
X210886683Y-72805955D01*
X210878468Y-72790007D01*
X210869538Y-72774402D01*
X210859893Y-72759139D01*
X210849534Y-72744218D01*
X210838461Y-72729640D01*
X211063262Y-72729640D01*
X211063262Y-72759168D01*
X211063560Y-72773348D01*
X211064453Y-72786673D01*
X211066406Y-72802130D01*
X211069290Y-72816254D01*
X211073104Y-72829045D01*
X211078908Y-72842634D01*
X211082313Y-72848708D01*
X211090759Y-72859283D01*
X211101572Y-72867670D01*
X211114752Y-72873869D01*
X211127542Y-72877363D01*
X211141976Y-72879338D01*
X211154706Y-72879824D01*
X211169990Y-72879065D01*
X211183692Y-72876786D01*
X211195813Y-72872987D01*
X211208270Y-72866424D01*
X211218451Y-72857672D01*
X211225195Y-72848708D01*
X211231669Y-72836079D01*
X211236041Y-72824089D01*
X211239483Y-72810765D01*
X211241995Y-72796108D01*
X211243334Y-72783422D01*
X211244078Y-72769883D01*
X211244246Y-72759168D01*
X211244246Y-72546750D01*
X210287889Y-72546750D01*
X210287889Y-72517539D01*
X210287531Y-72502928D01*
X210286460Y-72489260D01*
X210284674Y-72476535D01*
X210280655Y-72459214D01*
X210275029Y-72444014D01*
X210267796Y-72430935D01*
X210258955Y-72419977D01*
X210248507Y-72411140D01*
X210236451Y-72404424D01*
X210222788Y-72399829D01*
X210207517Y-72397354D01*
X210196444Y-72396883D01*
X210180102Y-72397944D01*
X210165367Y-72401125D01*
X210152240Y-72406427D01*
X210140720Y-72413850D01*
X210130808Y-72423394D01*
X210122503Y-72435059D01*
X210115805Y-72448845D01*
X210110715Y-72464752D01*
X210107232Y-72482780D01*
X210105803Y-72495976D01*
X210105089Y-72510116D01*
X210105000Y-72517539D01*
X210105000Y-72729640D01*
X210169138Y-72729640D01*
X210158257Y-72746160D01*
X210148077Y-72762780D01*
X210138600Y-72779499D01*
X210129825Y-72796318D01*
X210121752Y-72813235D01*
X210114381Y-72830252D01*
X210107712Y-72847368D01*
X210101745Y-72864584D01*
X210096480Y-72881898D01*
X210091917Y-72899312D01*
X210088056Y-72916825D01*
X210084897Y-72934437D01*
X210082440Y-72952149D01*
X210080685Y-72969959D01*
X210079632Y-72987869D01*
X210079349Y-73002386D01*
X210079281Y-73005878D01*
X207345286Y-73005878D01*
X207345286Y-72020944D01*
X210075788Y-72020944D01*
X210076070Y-72037741D01*
X210076914Y-72054234D01*
X210078322Y-72070425D01*
X210080293Y-72086313D01*
X210082827Y-72101899D01*
X210085924Y-72117181D01*
X210089584Y-72132162D01*
X210093807Y-72146839D01*
X210098593Y-72161214D01*
X210103943Y-72175287D01*
X210109855Y-72189057D01*
X210116331Y-72202524D01*
X210123370Y-72215688D01*
X210130971Y-72228550D01*
X210139136Y-72241109D01*
X210147864Y-72253366D01*
X210157030Y-72265093D01*
X210166429Y-72276063D01*
X210176061Y-72286277D01*
X210185926Y-72295734D01*
X210196025Y-72304435D01*
X210206356Y-72312379D01*
X210216921Y-72319567D01*
X210233206Y-72328929D01*
X210250015Y-72336590D01*
X210267349Y-72342548D01*
X210285207Y-72346804D01*
X210303590Y-72349357D01*
X210322498Y-72350208D01*
X210337931Y-72349729D01*
X210353113Y-72348293D01*
X210368045Y-72345899D01*
X210382727Y-72342548D01*
X210397157Y-72338239D01*
X210411338Y-72332973D01*
X210425267Y-72326749D01*
X210438947Y-72319568D01*
X210452375Y-72311429D01*
X210465553Y-72302333D01*
X210478481Y-72292279D01*
X210491158Y-72281268D01*
X210503585Y-72269299D01*
X210515761Y-72256372D01*
X210527686Y-72242489D01*
X210539361Y-72227647D01*
X210550550Y-72212034D01*
X210561017Y-72195836D01*
X210570762Y-72179052D01*
X210579785Y-72161683D01*
X210588086Y-72143729D01*
X210595665Y-72125189D01*
X210602523Y-72106063D01*
X210608659Y-72086353D01*
X210614073Y-72066057D01*
X210618765Y-72045175D01*
X210622735Y-72023708D01*
X210625983Y-72001655D01*
X210628510Y-71979018D01*
X210630314Y-71955794D01*
X210631397Y-71931986D01*
X210631758Y-71907591D01*
X210631596Y-71891946D01*
X210631111Y-71875848D01*
X210630301Y-71859299D01*
X210629168Y-71842297D01*
X210627712Y-71824843D01*
X210625931Y-71806938D01*
X210623827Y-71788580D01*
X210621399Y-71769770D01*
X210619601Y-71756979D01*
X210617658Y-71743986D01*
X210615572Y-71730793D01*
X210613342Y-71717399D01*
X210655572Y-71717399D01*
X210671573Y-71718895D01*
X210686001Y-71723383D01*
X210698855Y-71730862D01*
X210710135Y-71741332D01*
X210719841Y-71754794D01*
X210727973Y-71771248D01*
X210732520Y-71783879D01*
X210736367Y-71797840D01*
X210739515Y-71813130D01*
X210741963Y-71829750D01*
X210743712Y-71847700D01*
X210744761Y-71866979D01*
X210745111Y-71887588D01*
X210744927Y-71901817D01*
X210744374Y-71916402D01*
X210743453Y-71931346D01*
X210742164Y-71946646D01*
X210740507Y-71962303D01*
X210738481Y-71978318D01*
X210736086Y-71994690D01*
X210733323Y-72011419D01*
X210730192Y-72028505D01*
X210726693Y-72045949D01*
X210724155Y-72057776D01*
X210720410Y-72074918D01*
X210717033Y-72090743D01*
X210714025Y-72105251D01*
X210711385Y-72118442D01*
X210708438Y-72133980D01*
X210706146Y-72147177D01*
X210704202Y-72160380D01*
X210703199Y-72172717D01*
X210704126Y-72186678D01*
X210706905Y-72199746D01*
X210711538Y-72211920D01*
X210718023Y-72223202D01*
X210726362Y-72233591D01*
X210729553Y-72236855D01*
X210740023Y-72245596D01*
X210751432Y-72252528D01*
X210763778Y-72257651D01*
X210777061Y-72260966D01*
X210791282Y-72262473D01*
X210796231Y-72262574D01*
X210810281Y-72261716D01*
X210823061Y-72259141D01*
X210837250Y-72253508D01*
X210849455Y-72245194D01*
X210859675Y-72234197D01*
X210867910Y-72220518D01*
X210873070Y-72207644D01*
X210879722Y-72188182D01*
X210885944Y-72168693D01*
X210891738Y-72149177D01*
X210897102Y-72129634D01*
X210902037Y-72110063D01*
X210906543Y-72090466D01*
X210910620Y-72070840D01*
X210914268Y-72051188D01*
X210917486Y-72031508D01*
X210920276Y-72011801D01*
X210922636Y-71992067D01*
X210924567Y-71972305D01*
X210926069Y-71952516D01*
X210927142Y-71932700D01*
X210927786Y-71912856D01*
X210928000Y-71892986D01*
X210927721Y-71872233D01*
X210926884Y-71852046D01*
X210925489Y-71832424D01*
X210923535Y-71813369D01*
X210921024Y-71794878D01*
X210917954Y-71776953D01*
X210914326Y-71759594D01*
X210910140Y-71742801D01*
X210905396Y-71726573D01*
X210900094Y-71710910D01*
X210894233Y-71695813D01*
X210887815Y-71681282D01*
X210880838Y-71667316D01*
X210873303Y-71653916D01*
X210865210Y-71641082D01*
X210856559Y-71628813D01*
X210847447Y-71617162D01*
X210837890Y-71606264D01*
X210827890Y-71596117D01*
X210817445Y-71586722D01*
X210806557Y-71578078D01*
X210795224Y-71570186D01*
X210783447Y-71563046D01*
X210771227Y-71556657D01*
X210758562Y-71551020D01*
X210745453Y-71546134D01*
X210731901Y-71542001D01*
X210717904Y-71538618D01*
X210703463Y-71535988D01*
X210688578Y-71534109D01*
X210673250Y-71532981D01*
X210657477Y-71532605D01*
X210287889Y-71532605D01*
X210287889Y-71503394D01*
X210287531Y-71488783D01*
X210286460Y-71475115D01*
X210284674Y-71462390D01*
X210280655Y-71445069D01*
X210275029Y-71429869D01*
X210267796Y-71416790D01*
X210258955Y-71405832D01*
X210248507Y-71396995D01*
X210236451Y-71390279D01*
X210222788Y-71385684D01*
X210207517Y-71383209D01*
X210196444Y-71382738D01*
X210180102Y-71383798D01*
X210165367Y-71386980D01*
X210152240Y-71392282D01*
X210140720Y-71399705D01*
X210130808Y-71409249D01*
X210122503Y-71420914D01*
X210115805Y-71434700D01*
X210110715Y-71450607D01*
X210107232Y-71468635D01*
X210105803Y-71481831D01*
X210105089Y-71495971D01*
X210105000Y-71503394D01*
X210105000Y-71717399D01*
X210146912Y-71717399D01*
X210138299Y-71734659D01*
X210130242Y-71752148D01*
X210122741Y-71769864D01*
X210115795Y-71787809D01*
X210109405Y-71805981D01*
X210103571Y-71824382D01*
X210098292Y-71843012D01*
X210093569Y-71861869D01*
X210089402Y-71880955D01*
X210085790Y-71900269D01*
X210082734Y-71919811D01*
X210080233Y-71939581D01*
X210078288Y-71959580D01*
X210076899Y-71979806D01*
X210076066Y-72000261D01*
X210075835Y-72017452D01*
X210075788Y-72020944D01*
X207345286Y-72020944D01*
X207345286Y-71215407D01*
X209739221Y-71215407D01*
X209739579Y-71230018D01*
X209740650Y-71243686D01*
X209742436Y-71256411D01*
X209746455Y-71273732D01*
X209752081Y-71288932D01*
X209759314Y-71302011D01*
X209768155Y-71312969D01*
X209778603Y-71321806D01*
X209790659Y-71328522D01*
X209804322Y-71333117D01*
X209819593Y-71335592D01*
X209830666Y-71336063D01*
X209847008Y-71335003D01*
X209861743Y-71331821D01*
X209874870Y-71326519D01*
X209886390Y-71319096D01*
X209896302Y-71309552D01*
X209904607Y-71297887D01*
X209911305Y-71284101D01*
X209916395Y-71268194D01*
X209919878Y-71250166D01*
X209921307Y-71236970D01*
X209922021Y-71222830D01*
X209922110Y-71215407D01*
X209922110Y-71186196D01*
X210721297Y-71186196D01*
X210721297Y-71215407D01*
X210721595Y-71229586D01*
X210722488Y-71242912D01*
X210724442Y-71258369D01*
X210727325Y-71272493D01*
X210731139Y-71285284D01*
X210736944Y-71298872D01*
X210740348Y-71304947D01*
X210748795Y-71315521D01*
X210759608Y-71323908D01*
X210772787Y-71330107D01*
X210785578Y-71333602D01*
X210800012Y-71335577D01*
X210812742Y-71336063D01*
X210829084Y-71335003D01*
X210843819Y-71331821D01*
X210856946Y-71326519D01*
X210868466Y-71319096D01*
X210878378Y-71309552D01*
X210886683Y-71297887D01*
X210893381Y-71284101D01*
X210898471Y-71268194D01*
X210901954Y-71250166D01*
X210903383Y-71236970D01*
X210904097Y-71222830D01*
X210904187Y-71215407D01*
X210904187Y-71003307D01*
X210821950Y-71003307D01*
X210834792Y-70987627D01*
X210846805Y-70971704D01*
X210857990Y-70955538D01*
X210868347Y-70939129D01*
X210877875Y-70922477D01*
X210886574Y-70905581D01*
X210894445Y-70888443D01*
X210901488Y-70871061D01*
X210907702Y-70853437D01*
X210913087Y-70835569D01*
X210917644Y-70817458D01*
X210921372Y-70799104D01*
X210924272Y-70780507D01*
X210926343Y-70761667D01*
X210927586Y-70742584D01*
X210928000Y-70723258D01*
X210927539Y-70699538D01*
X210926155Y-70676325D01*
X210923848Y-70653618D01*
X210920618Y-70631416D01*
X210916465Y-70609721D01*
X210911390Y-70588532D01*
X210905392Y-70567849D01*
X210898471Y-70547672D01*
X210890628Y-70528001D01*
X210881861Y-70508835D01*
X210872172Y-70490176D01*
X210861560Y-70472024D01*
X210850025Y-70454377D01*
X210837568Y-70437236D01*
X210824187Y-70420601D01*
X210809884Y-70404472D01*
X210794926Y-70389054D01*
X210779502Y-70374631D01*
X210763611Y-70361202D01*
X210747254Y-70348768D01*
X210730431Y-70337329D01*
X210713141Y-70326884D01*
X210695385Y-70317434D01*
X210677163Y-70308979D01*
X210658474Y-70301519D01*
X210639319Y-70295053D01*
X210619697Y-70289582D01*
X210599610Y-70285106D01*
X210579055Y-70281624D01*
X210558035Y-70279138D01*
X210536548Y-70277646D01*
X210514595Y-70277148D01*
X210493781Y-70277642D01*
X210473412Y-70279123D01*
X210453487Y-70281591D01*
X210434005Y-70285046D01*
X210414968Y-70289489D01*
X210396375Y-70294919D01*
X210378225Y-70301336D01*
X210360520Y-70308741D01*
X210343259Y-70317133D01*
X210326442Y-70326512D01*
X210310069Y-70336878D01*
X210294140Y-70348232D01*
X210278655Y-70360573D01*
X210263613Y-70373901D01*
X210249016Y-70388217D01*
X210234863Y-70403519D01*
X210221368Y-70419527D01*
X210208743Y-70436035D01*
X210196989Y-70453044D01*
X210186105Y-70470555D01*
X210176092Y-70488567D01*
X210166950Y-70507079D01*
X210158678Y-70526093D01*
X210151277Y-70545608D01*
X210144747Y-70565624D01*
X210139088Y-70586141D01*
X210134299Y-70607159D01*
X210130381Y-70628678D01*
X210127334Y-70650698D01*
X210125157Y-70673219D01*
X210123851Y-70696242D01*
X210123415Y-70719765D01*
X210123646Y-70730561D01*
X210123815Y-70738435D01*
X210125013Y-70756979D01*
X210127010Y-70775396D01*
X210129805Y-70793687D01*
X210133400Y-70811851D01*
X210137793Y-70829889D01*
X210142985Y-70847800D01*
X210148975Y-70865584D01*
X210155765Y-70883242D01*
X210163353Y-70900774D01*
X210171740Y-70918179D01*
X210180925Y-70935458D01*
X210190910Y-70952610D01*
X210201693Y-70969635D01*
X210213275Y-70986534D01*
X210225655Y-71003307D01*
X209922110Y-71003307D01*
X209922110Y-70897256D01*
X209921813Y-70882646D01*
X209920920Y-70868978D01*
X209919431Y-70856252D01*
X209916734Y-70841671D01*
X209913106Y-70828563D01*
X209907525Y-70814777D01*
X209903060Y-70806764D01*
X209894613Y-70796405D01*
X209883800Y-70788190D01*
X209870621Y-70782117D01*
X209857830Y-70778694D01*
X209843396Y-70776759D01*
X209830666Y-70776283D01*
X209814324Y-70777346D01*
X209799589Y-70780536D01*
X209786462Y-70785852D01*
X209774942Y-70793295D01*
X209765029Y-70802864D01*
X209756724Y-70814560D01*
X209750027Y-70828382D01*
X209744937Y-70844331D01*
X209741454Y-70862406D01*
X209740025Y-70875637D01*
X209739311Y-70889814D01*
X209739221Y-70897256D01*
X209739221Y-71215407D01*
X207345286Y-71215407D01*
X207345286Y-69698317D01*
X210075788Y-69698317D01*
X210076052Y-69717476D01*
X210076845Y-69736136D01*
X210078166Y-69754298D01*
X210080015Y-69771961D01*
X210082393Y-69789125D01*
X210085299Y-69805791D01*
X210088733Y-69821958D01*
X210092696Y-69837627D01*
X210097187Y-69852797D01*
X210102206Y-69867469D01*
X210107754Y-69881642D01*
X210113830Y-69895316D01*
X210120435Y-69908491D01*
X210127568Y-69921168D01*
X210135229Y-69933347D01*
X210143419Y-69945027D01*
X210152066Y-69956100D01*
X210161101Y-69966459D01*
X210170522Y-69976104D01*
X210180330Y-69985034D01*
X210190525Y-69993250D01*
X210201108Y-70000751D01*
X210212077Y-70007538D01*
X210223433Y-70013610D01*
X210235176Y-70018968D01*
X210247306Y-70023612D01*
X210259823Y-70027541D01*
X210272727Y-70030756D01*
X210286018Y-70033256D01*
X210299696Y-70035043D01*
X210313761Y-70036114D01*
X210328213Y-70036471D01*
X210721297Y-70036471D01*
X210721297Y-70100610D01*
X210721655Y-70115220D01*
X210722726Y-70128888D01*
X210724512Y-70141614D01*
X210728531Y-70158934D01*
X210734157Y-70174134D01*
X210741390Y-70187213D01*
X210750231Y-70198171D01*
X210760679Y-70207008D01*
X210772735Y-70213724D01*
X210786398Y-70218320D01*
X210801669Y-70220794D01*
X210812742Y-70221265D01*
X210825467Y-70220779D01*
X210839881Y-70218804D01*
X210852636Y-70215310D01*
X210865752Y-70209111D01*
X210876480Y-70200724D01*
X210884818Y-70190149D01*
X210891400Y-70177520D01*
X210895845Y-70165530D01*
X210899344Y-70152206D01*
X210901898Y-70137549D01*
X210903260Y-70124863D01*
X210904016Y-70111324D01*
X210904187Y-70100610D01*
X210904187Y-70036471D01*
X211065167Y-70036471D01*
X211079778Y-70036114D01*
X211093446Y-70035043D01*
X211106171Y-70033256D01*
X211123492Y-70029238D01*
X211138692Y-70023612D01*
X211151771Y-70016379D01*
X211162729Y-70007538D01*
X211171566Y-69997089D01*
X211178282Y-69985034D01*
X211182877Y-69971371D01*
X211185352Y-69956100D01*
X211185823Y-69945027D01*
X211185337Y-69932301D01*
X211183362Y-69917888D01*
X211179867Y-69905133D01*
X211173668Y-69892017D01*
X211165281Y-69881289D01*
X211154706Y-69872951D01*
X211142078Y-69866369D01*
X211130087Y-69861924D01*
X211116763Y-69858424D01*
X211102106Y-69855871D01*
X211089420Y-69854509D01*
X211075881Y-69853753D01*
X211065167Y-69853582D01*
X210904187Y-69853582D01*
X210904187Y-69522731D01*
X210903884Y-69508482D01*
X210902976Y-69495107D01*
X210900990Y-69479616D01*
X210898058Y-69465489D01*
X210894181Y-69452726D01*
X210888279Y-69439212D01*
X210884818Y-69433192D01*
X210876480Y-69422617D01*
X210865752Y-69414230D01*
X210852636Y-69408031D01*
X210839881Y-69404536D01*
X210825467Y-69402561D01*
X210812742Y-69402075D01*
X210796400Y-69403135D01*
X210781665Y-69406317D01*
X210768538Y-69411619D01*
X210757018Y-69419042D01*
X210747106Y-69428586D01*
X210738801Y-69440251D01*
X210732103Y-69454037D01*
X210727013Y-69469944D01*
X210723530Y-69487972D01*
X210722101Y-69501168D01*
X210721387Y-69515308D01*
X210721297Y-69522731D01*
X210721297Y-69853582D01*
X210362822Y-69853582D01*
X210349204Y-69853101D01*
X210333618Y-69851146D01*
X210319629Y-69847687D01*
X210307237Y-69842724D01*
X210294474Y-69834784D01*
X210284011Y-69824678D01*
X210282491Y-69822783D01*
X210275630Y-69811493D01*
X210269933Y-69797072D01*
X210266212Y-69783280D01*
X210263235Y-69767483D01*
X210261491Y-69754321D01*
X210260165Y-69740031D01*
X210259258Y-69724613D01*
X210258770Y-69708068D01*
X210258677Y-69696412D01*
X210258789Y-69683123D01*
X210259124Y-69670046D01*
X210259682Y-69657181D01*
X210260773Y-69640357D01*
X210262262Y-69623911D01*
X210264147Y-69607842D01*
X210266429Y-69592150D01*
X210269108Y-69576834D01*
X210271378Y-69565596D01*
X210274598Y-69551208D01*
X210277907Y-69537734D01*
X210281305Y-69525172D01*
X210285679Y-69510753D01*
X210290192Y-69497761D01*
X210295792Y-69484054D01*
X210299637Y-69476056D01*
X210306307Y-69462859D01*
X210312703Y-69449663D01*
X210318826Y-69436466D01*
X210324676Y-69423269D01*
X210327896Y-69415728D01*
X210332968Y-69403002D01*
X210337240Y-69389612D01*
X210340100Y-69376019D01*
X210340914Y-69365243D01*
X210339943Y-69351941D01*
X210337029Y-69339420D01*
X210332173Y-69327681D01*
X210325375Y-69316723D01*
X210316635Y-69306546D01*
X210313290Y-69303328D01*
X210302659Y-69294587D01*
X210291247Y-69287655D01*
X210279054Y-69282532D01*
X210266079Y-69279216D01*
X210252323Y-69277709D01*
X210247564Y-69277609D01*
X210231829Y-69279508D01*
X210219588Y-69283762D01*
X210207654Y-69290447D01*
X210196027Y-69299564D01*
X210184708Y-69311111D01*
X210176421Y-69321366D01*
X210168306Y-69332990D01*
X210160365Y-69345980D01*
X210155167Y-69355400D01*
X210147680Y-69370131D01*
X210140577Y-69385152D01*
X210133860Y-69400464D01*
X210127528Y-69416066D01*
X210121581Y-69431957D01*
X210116020Y-69448140D01*
X210110843Y-69464612D01*
X210106051Y-69481375D01*
X210101645Y-69498427D01*
X210097623Y-69515770D01*
X210095157Y-69527494D01*
X210091695Y-69544965D01*
X210088574Y-69562135D01*
X210085794Y-69579004D01*
X210083354Y-69595571D01*
X210081254Y-69611837D01*
X210079495Y-69627801D01*
X210078077Y-69643464D01*
X210076999Y-69658826D01*
X210076261Y-69673886D01*
X210075864Y-69688645D01*
X210075788Y-69698317D01*
X207345286Y-69698317D01*
X207345286Y-68610826D01*
X210075788Y-68610826D01*
X210075904Y-68624007D01*
X210076252Y-68637039D01*
X210076832Y-68649922D01*
X210077644Y-68662655D01*
X210079963Y-68687673D01*
X210083210Y-68712094D01*
X210087385Y-68735916D01*
X210092487Y-68759140D01*
X210098518Y-68781767D01*
X210105476Y-68803796D01*
X210113362Y-68825227D01*
X210122175Y-68846060D01*
X210131916Y-68866296D01*
X210142585Y-68885933D01*
X210154182Y-68904973D01*
X210166707Y-68923415D01*
X210180159Y-68941259D01*
X210194539Y-68958506D01*
X210209685Y-68974885D01*
X210225358Y-68990207D01*
X210241556Y-69004473D01*
X210258280Y-69017683D01*
X210275530Y-69029835D01*
X210293306Y-69040931D01*
X210311608Y-69050970D01*
X210330436Y-69059952D01*
X210349789Y-69067877D01*
X210369669Y-69074746D01*
X210390074Y-69080558D01*
X210411005Y-69085313D01*
X210432462Y-69089012D01*
X210454445Y-69091654D01*
X210476954Y-69093239D01*
X210499989Y-69093767D01*
X210522388Y-69093235D01*
X210544337Y-69091639D01*
X210565838Y-69088978D01*
X210586889Y-69085254D01*
X210607492Y-69080465D01*
X210627645Y-69074612D01*
X210647350Y-69067695D01*
X210666605Y-69059714D01*
X210685412Y-69050668D01*
X210703770Y-69040559D01*
X210721678Y-69029385D01*
X210739138Y-69017147D01*
X210756149Y-69003845D01*
X210772710Y-68989478D01*
X210788823Y-68974048D01*
X210804487Y-68957553D01*
X210819443Y-68940279D01*
X210833435Y-68922512D01*
X210846462Y-68904251D01*
X210858524Y-68885497D01*
X210869621Y-68866249D01*
X210879753Y-68846507D01*
X210888920Y-68826271D01*
X210897122Y-68805542D01*
X210904359Y-68784320D01*
X210910631Y-68762603D01*
X210915938Y-68740393D01*
X210920281Y-68717690D01*
X210923658Y-68694492D01*
X210926070Y-68670802D01*
X210927518Y-68646617D01*
X210928000Y-68621939D01*
X210927879Y-68609208D01*
X210926906Y-68584159D01*
X210924961Y-68559661D01*
X210922044Y-68535713D01*
X210918155Y-68512316D01*
X210913293Y-68489470D01*
X210907458Y-68467174D01*
X210900652Y-68445429D01*
X210892873Y-68424235D01*
X210884121Y-68403592D01*
X210874397Y-68383499D01*
X210863701Y-68363957D01*
X210852032Y-68344965D01*
X210839391Y-68326525D01*
X210825778Y-68308635D01*
X210811192Y-68291295D01*
X210803534Y-68282832D01*
X210787764Y-68266530D01*
X210771490Y-68251279D01*
X210754712Y-68237080D01*
X210737431Y-68223933D01*
X210719647Y-68211838D01*
X210701358Y-68200794D01*
X210682567Y-68190802D01*
X210663271Y-68181862D01*
X210643473Y-68173974D01*
X210623170Y-68167137D01*
X210602364Y-68161353D01*
X210581055Y-68156620D01*
X210559242Y-68152938D01*
X210536925Y-68150309D01*
X210514105Y-68148731D01*
X210490781Y-68148205D01*
X210419658Y-68148205D01*
X210419658Y-68351098D01*
X210419658Y-68894367D01*
X210400164Y-68885902D01*
X210381928Y-68876066D01*
X210364949Y-68864857D01*
X210349229Y-68852277D01*
X210334766Y-68838325D01*
X210321560Y-68823001D01*
X210309612Y-68806305D01*
X210298922Y-68788238D01*
X210289490Y-68768799D01*
X210281315Y-68747988D01*
X210274398Y-68725805D01*
X210268738Y-68702251D01*
X210264337Y-68677324D01*
X210262607Y-68664347D01*
X210261192Y-68651026D01*
X210260092Y-68637363D01*
X210259306Y-68623357D01*
X210258834Y-68609007D01*
X210258677Y-68594315D01*
X210258942Y-68575965D01*
X210259738Y-68557229D01*
X210260562Y-68544525D01*
X210261623Y-68531649D01*
X210262919Y-68518602D01*
X210264451Y-68505385D01*
X210266218Y-68491996D01*
X210268221Y-68478435D01*
X210270460Y-68464704D01*
X210272934Y-68450802D01*
X210275644Y-68436728D01*
X210278590Y-68422483D01*
X210281771Y-68408067D01*
X210285188Y-68393480D01*
X210288841Y-68378722D01*
X210292494Y-68364210D01*
X210295911Y-68350443D01*
X210299092Y-68337420D01*
X210303422Y-68319281D01*
X210307222Y-68302816D01*
X210310492Y-68288025D01*
X210313232Y-68274909D01*
X210316059Y-68260026D01*
X210318269Y-68245607D01*
X210319005Y-68235840D01*
X210318067Y-68222538D01*
X210315254Y-68210017D01*
X210309602Y-68196397D01*
X210302726Y-68185569D01*
X210293975Y-68175523D01*
X210292334Y-68173924D01*
X210282027Y-68165184D01*
X210270872Y-68158252D01*
X210258868Y-68153128D01*
X210246016Y-68149813D01*
X210232316Y-68148306D01*
X210227561Y-68148205D01*
X210213277Y-68149862D01*
X210199639Y-68154834D01*
X210186646Y-68163119D01*
X210174297Y-68174718D01*
X210165459Y-68185592D01*
X210156984Y-68198331D01*
X210148872Y-68212933D01*
X210141122Y-68229400D01*
X210136157Y-68241414D01*
X210131353Y-68254256D01*
X210126782Y-68267459D01*
X210122433Y-68280555D01*
X210118308Y-68293545D01*
X210114406Y-68306428D01*
X210110727Y-68319204D01*
X210107272Y-68331873D01*
X210104040Y-68344436D01*
X210101031Y-68356893D01*
X210096936Y-68375377D01*
X210093343Y-68393622D01*
X210090253Y-68411626D01*
X210087665Y-68429390D01*
X210085580Y-68446915D01*
X210084996Y-68452703D01*
X210083350Y-68469793D01*
X210081867Y-68486414D01*
X210080545Y-68502567D01*
X210079385Y-68518250D01*
X210078387Y-68533465D01*
X210077551Y-68548211D01*
X210076876Y-68562488D01*
X210076364Y-68576296D01*
X210076013Y-68589635D01*
X210075824Y-68602506D01*
X210075788Y-68610826D01*
X207345286Y-68610826D01*
X207345286Y-67843708D01*
X210105000Y-67843708D01*
X210105357Y-67858319D01*
X210106428Y-67871987D01*
X210108214Y-67884712D01*
X210112233Y-67902033D01*
X210117859Y-67917233D01*
X210125092Y-67930312D01*
X210133933Y-67941270D01*
X210144381Y-67950107D01*
X210156437Y-67956823D01*
X210170100Y-67961418D01*
X210185371Y-67963893D01*
X210196444Y-67964364D01*
X210209169Y-67963878D01*
X210223583Y-67961903D01*
X210236338Y-67958408D01*
X210249454Y-67952209D01*
X210260182Y-67943822D01*
X210268520Y-67933247D01*
X210275102Y-67920619D01*
X210279547Y-67908628D01*
X210283046Y-67895304D01*
X210285600Y-67880647D01*
X210286962Y-67867961D01*
X210287718Y-67854422D01*
X210287889Y-67843708D01*
X210287889Y-67737658D01*
X210721297Y-67737658D01*
X210721297Y-67801478D01*
X210721655Y-67816089D01*
X210722726Y-67829757D01*
X210724512Y-67842482D01*
X210728531Y-67859803D01*
X210734157Y-67875003D01*
X210741390Y-67888082D01*
X210750231Y-67899040D01*
X210760679Y-67907877D01*
X210772735Y-67914593D01*
X210786398Y-67919189D01*
X210801669Y-67921663D01*
X210812742Y-67922134D01*
X210829084Y-67921074D01*
X210843819Y-67917892D01*
X210856946Y-67912590D01*
X210868466Y-67905167D01*
X210878378Y-67895623D01*
X210886683Y-67883958D01*
X210893381Y-67870172D01*
X210898471Y-67854265D01*
X210901954Y-67836238D01*
X210903383Y-67823041D01*
X210904097Y-67808901D01*
X210904187Y-67801478D01*
X210904187Y-67554769D01*
X210785436Y-67554769D01*
X210795508Y-67541216D01*
X210805166Y-67528023D01*
X210814410Y-67515190D01*
X210823240Y-67502716D01*
X210831655Y-67490602D01*
X210839656Y-67478848D01*
X210847243Y-67467453D01*
X210854416Y-67456418D01*
X210864398Y-67440540D01*
X210873448Y-67425472D01*
X210881566Y-67411212D01*
X210888752Y-67397762D01*
X210895006Y-67385121D01*
X210896884Y-67381088D01*
X210902104Y-67369031D01*
X210906811Y-67356913D01*
X210911004Y-67344734D01*
X210914684Y-67332493D01*
X210917851Y-67320191D01*
X210921274Y-67303692D01*
X210923784Y-67287085D01*
X210925382Y-67270368D01*
X210926067Y-67253542D01*
X210926095Y-67249319D01*
X210925677Y-67234911D01*
X210924421Y-67220504D01*
X210922328Y-67206097D01*
X210919398Y-67191689D01*
X210915630Y-67177282D01*
X210911026Y-67162875D01*
X210905584Y-67148468D01*
X210899305Y-67134060D01*
X210892189Y-67119653D01*
X210884235Y-67105246D01*
X210878468Y-67095641D01*
X210869483Y-67081909D01*
X210860269Y-67069528D01*
X210850826Y-67058497D01*
X210841155Y-67048817D01*
X210831254Y-67040488D01*
X210817698Y-67031484D01*
X210803735Y-67024880D01*
X210789365Y-67020678D01*
X210774588Y-67018877D01*
X210770830Y-67018802D01*
X210756802Y-67019773D01*
X210743533Y-67022687D01*
X210731024Y-67027542D01*
X210719273Y-67034341D01*
X210708282Y-67043081D01*
X210704787Y-67046426D01*
X210695507Y-67056990D01*
X210688147Y-67068201D01*
X210682707Y-67080059D01*
X210679187Y-67092565D01*
X210677587Y-67105718D01*
X210677480Y-67110247D01*
X210679045Y-67124301D01*
X210682878Y-67137048D01*
X210689010Y-67150444D01*
X210695876Y-67162101D01*
X210704340Y-67174208D01*
X210710184Y-67181688D01*
X210719697Y-67193973D01*
X210727598Y-67205824D01*
X210733886Y-67217241D01*
X210739304Y-67230368D01*
X210742400Y-67242870D01*
X210743206Y-67252811D01*
X210742245Y-67267068D01*
X210739361Y-67282256D01*
X210735670Y-67295076D01*
X210730749Y-67308491D01*
X210724597Y-67322501D01*
X210717214Y-67337107D01*
X210710870Y-67348452D01*
X210703834Y-67360131D01*
X210695906Y-67372525D01*
X210686766Y-67386129D01*
X210676416Y-67400945D01*
X210668843Y-67411495D01*
X210660731Y-67422583D01*
X210652081Y-67434210D01*
X210642893Y-67446375D01*
X210633167Y-67459078D01*
X210622902Y-67472319D01*
X210612099Y-67486099D01*
X210600758Y-67500417D01*
X210588878Y-67515273D01*
X210576460Y-67530667D01*
X210563504Y-67546600D01*
X210556824Y-67554769D01*
X210287889Y-67554769D01*
X210287889Y-67300439D01*
X210287531Y-67285597D01*
X210286460Y-67271713D01*
X210284674Y-67258787D01*
X210280655Y-67241193D01*
X210275029Y-67225753D01*
X210267796Y-67212467D01*
X210258955Y-67201336D01*
X210248507Y-67192360D01*
X210236451Y-67185538D01*
X210222788Y-67180870D01*
X210207517Y-67178356D01*
X210196444Y-67177877D01*
X210180102Y-67178955D01*
X210165367Y-67182186D01*
X210152240Y-67187572D01*
X210140720Y-67195113D01*
X210130808Y-67204807D01*
X210122503Y-67216657D01*
X210115805Y-67230660D01*
X210110715Y-67246818D01*
X210107232Y-67265130D01*
X210105803Y-67278536D01*
X210105089Y-67292898D01*
X210105000Y-67300439D01*
X210105000Y-67843708D01*
X207345286Y-67843708D01*
X207345286Y-66443088D01*
X211819961Y-66443088D01*
X211819961Y-84998187D01*
G37*
D12*
X201737619Y-83985714D02*
X201023333Y-83985714D01*
X201023333Y-83985714D02*
X200880476Y-84033333D01*
X200880476Y-84033333D02*
X200785238Y-84128571D01*
X200785238Y-84128571D02*
X200737619Y-84271428D01*
X200737619Y-84271428D02*
X200737619Y-84366666D01*
X200785238Y-83128571D02*
X200737619Y-83223809D01*
X200737619Y-83223809D02*
X200737619Y-83414285D01*
X200737619Y-83414285D02*
X200785238Y-83509523D01*
X200785238Y-83509523D02*
X200880476Y-83557142D01*
X200880476Y-83557142D02*
X201261428Y-83557142D01*
X201261428Y-83557142D02*
X201356666Y-83509523D01*
X201356666Y-83509523D02*
X201404285Y-83414285D01*
X201404285Y-83414285D02*
X201404285Y-83223809D01*
X201404285Y-83223809D02*
X201356666Y-83128571D01*
X201356666Y-83128571D02*
X201261428Y-83080952D01*
X201261428Y-83080952D02*
X201166190Y-83080952D01*
X201166190Y-83080952D02*
X201070952Y-83557142D01*
X201404285Y-82795237D02*
X201404285Y-82414285D01*
X200737619Y-82652380D02*
X201594761Y-82652380D01*
X201594761Y-82652380D02*
X201690000Y-82604761D01*
X201690000Y-82604761D02*
X201737619Y-82509523D01*
X201737619Y-82509523D02*
X201737619Y-82414285D01*
X201404285Y-82223808D02*
X201404285Y-81842856D01*
X200737619Y-82080951D02*
X201594761Y-82080951D01*
X201594761Y-82080951D02*
X201690000Y-82033332D01*
X201690000Y-82033332D02*
X201737619Y-81938094D01*
X201737619Y-81938094D02*
X201737619Y-81842856D01*
X200737619Y-80909522D02*
X201737619Y-80909522D01*
X201737619Y-80909522D02*
X201023333Y-80576189D01*
X201023333Y-80576189D02*
X201737619Y-80242856D01*
X201737619Y-80242856D02*
X200737619Y-80242856D01*
X200785238Y-79338094D02*
X200737619Y-79433332D01*
X200737619Y-79433332D02*
X200737619Y-79623808D01*
X200737619Y-79623808D02*
X200785238Y-79719046D01*
X200785238Y-79719046D02*
X200832857Y-79766665D01*
X200832857Y-79766665D02*
X200928095Y-79814284D01*
X200928095Y-79814284D02*
X201213809Y-79814284D01*
X201213809Y-79814284D02*
X201309047Y-79766665D01*
X201309047Y-79766665D02*
X201356666Y-79719046D01*
X201356666Y-79719046D02*
X201404285Y-79623808D01*
X201404285Y-79623808D02*
X201404285Y-79433332D01*
X201404285Y-79433332D02*
X201356666Y-79338094D01*
X201261428Y-78576189D02*
X201213809Y-78433332D01*
X201213809Y-78433332D02*
X201166190Y-78385713D01*
X201166190Y-78385713D02*
X201070952Y-78338094D01*
X201070952Y-78338094D02*
X200928095Y-78338094D01*
X200928095Y-78338094D02*
X200832857Y-78385713D01*
X200832857Y-78385713D02*
X200785238Y-78433332D01*
X200785238Y-78433332D02*
X200737619Y-78528570D01*
X200737619Y-78528570D02*
X200737619Y-78909522D01*
X200737619Y-78909522D02*
X201737619Y-78909522D01*
X201737619Y-78909522D02*
X201737619Y-78576189D01*
X201737619Y-78576189D02*
X201690000Y-78480951D01*
X201690000Y-78480951D02*
X201642380Y-78433332D01*
X201642380Y-78433332D02*
X201547142Y-78385713D01*
X201547142Y-78385713D02*
X201451904Y-78385713D01*
X201451904Y-78385713D02*
X201356666Y-78433332D01*
X201356666Y-78433332D02*
X201309047Y-78480951D01*
X201309047Y-78480951D02*
X201261428Y-78576189D01*
X201261428Y-78576189D02*
X201261428Y-78909522D01*
X200737619Y-77909522D02*
X201404285Y-77909522D01*
X201213809Y-77909522D02*
X201309047Y-77861903D01*
X201309047Y-77861903D02*
X201356666Y-77814284D01*
X201356666Y-77814284D02*
X201404285Y-77719046D01*
X201404285Y-77719046D02*
X201404285Y-77623808D01*
X200737619Y-77290474D02*
X201404285Y-77290474D01*
X201737619Y-77290474D02*
X201690000Y-77338093D01*
X201690000Y-77338093D02*
X201642380Y-77290474D01*
X201642380Y-77290474D02*
X201690000Y-77242855D01*
X201690000Y-77242855D02*
X201737619Y-77290474D01*
X201737619Y-77290474D02*
X201642380Y-77290474D01*
X200737619Y-76385713D02*
X201737619Y-76385713D01*
X200785238Y-76385713D02*
X200737619Y-76480951D01*
X200737619Y-76480951D02*
X200737619Y-76671427D01*
X200737619Y-76671427D02*
X200785238Y-76766665D01*
X200785238Y-76766665D02*
X200832857Y-76814284D01*
X200832857Y-76814284D02*
X200928095Y-76861903D01*
X200928095Y-76861903D02*
X201213809Y-76861903D01*
X201213809Y-76861903D02*
X201309047Y-76814284D01*
X201309047Y-76814284D02*
X201356666Y-76766665D01*
X201356666Y-76766665D02*
X201404285Y-76671427D01*
X201404285Y-76671427D02*
X201404285Y-76480951D01*
X201404285Y-76480951D02*
X201356666Y-76385713D01*
X200785238Y-75528570D02*
X200737619Y-75623808D01*
X200737619Y-75623808D02*
X200737619Y-75814284D01*
X200737619Y-75814284D02*
X200785238Y-75909522D01*
X200785238Y-75909522D02*
X200880476Y-75957141D01*
X200880476Y-75957141D02*
X201261428Y-75957141D01*
X201261428Y-75957141D02*
X201356666Y-75909522D01*
X201356666Y-75909522D02*
X201404285Y-75814284D01*
X201404285Y-75814284D02*
X201404285Y-75623808D01*
X201404285Y-75623808D02*
X201356666Y-75528570D01*
X201356666Y-75528570D02*
X201261428Y-75480951D01*
X201261428Y-75480951D02*
X201166190Y-75480951D01*
X201166190Y-75480951D02*
X201070952Y-75957141D01*
X199117619Y-84080952D02*
X200117619Y-84080952D01*
X200117619Y-84080952D02*
X199403333Y-83747619D01*
X199403333Y-83747619D02*
X200117619Y-83414286D01*
X200117619Y-83414286D02*
X199117619Y-83414286D01*
X199117619Y-82509524D02*
X199641428Y-82509524D01*
X199641428Y-82509524D02*
X199736666Y-82557143D01*
X199736666Y-82557143D02*
X199784285Y-82652381D01*
X199784285Y-82652381D02*
X199784285Y-82842857D01*
X199784285Y-82842857D02*
X199736666Y-82938095D01*
X199165238Y-82509524D02*
X199117619Y-82604762D01*
X199117619Y-82604762D02*
X199117619Y-82842857D01*
X199117619Y-82842857D02*
X199165238Y-82938095D01*
X199165238Y-82938095D02*
X199260476Y-82985714D01*
X199260476Y-82985714D02*
X199355714Y-82985714D01*
X199355714Y-82985714D02*
X199450952Y-82938095D01*
X199450952Y-82938095D02*
X199498571Y-82842857D01*
X199498571Y-82842857D02*
X199498571Y-82604762D01*
X199498571Y-82604762D02*
X199546190Y-82509524D01*
X199117619Y-82033333D02*
X199784285Y-82033333D01*
X199593809Y-82033333D02*
X199689047Y-81985714D01*
X199689047Y-81985714D02*
X199736666Y-81938095D01*
X199736666Y-81938095D02*
X199784285Y-81842857D01*
X199784285Y-81842857D02*
X199784285Y-81747619D01*
X199165238Y-80985714D02*
X199117619Y-81080952D01*
X199117619Y-81080952D02*
X199117619Y-81271428D01*
X199117619Y-81271428D02*
X199165238Y-81366666D01*
X199165238Y-81366666D02*
X199212857Y-81414285D01*
X199212857Y-81414285D02*
X199308095Y-81461904D01*
X199308095Y-81461904D02*
X199593809Y-81461904D01*
X199593809Y-81461904D02*
X199689047Y-81414285D01*
X199689047Y-81414285D02*
X199736666Y-81366666D01*
X199736666Y-81366666D02*
X199784285Y-81271428D01*
X199784285Y-81271428D02*
X199784285Y-81080952D01*
X199784285Y-81080952D02*
X199736666Y-80985714D01*
X199117619Y-80557142D02*
X200117619Y-80557142D01*
X199117619Y-80128571D02*
X199641428Y-80128571D01*
X199641428Y-80128571D02*
X199736666Y-80176190D01*
X199736666Y-80176190D02*
X199784285Y-80271428D01*
X199784285Y-80271428D02*
X199784285Y-80414285D01*
X199784285Y-80414285D02*
X199736666Y-80509523D01*
X199736666Y-80509523D02*
X199689047Y-80557142D01*
X200022380Y-79099999D02*
X200070000Y-79052380D01*
X200070000Y-79052380D02*
X200117619Y-78957142D01*
X200117619Y-78957142D02*
X200117619Y-78719047D01*
X200117619Y-78719047D02*
X200070000Y-78623809D01*
X200070000Y-78623809D02*
X200022380Y-78576190D01*
X200022380Y-78576190D02*
X199927142Y-78528571D01*
X199927142Y-78528571D02*
X199831904Y-78528571D01*
X199831904Y-78528571D02*
X199689047Y-78576190D01*
X199689047Y-78576190D02*
X199117619Y-79147618D01*
X199117619Y-79147618D02*
X199117619Y-78528571D01*
X200117619Y-77909523D02*
X200117619Y-77814285D01*
X200117619Y-77814285D02*
X200070000Y-77719047D01*
X200070000Y-77719047D02*
X200022380Y-77671428D01*
X200022380Y-77671428D02*
X199927142Y-77623809D01*
X199927142Y-77623809D02*
X199736666Y-77576190D01*
X199736666Y-77576190D02*
X199498571Y-77576190D01*
X199498571Y-77576190D02*
X199308095Y-77623809D01*
X199308095Y-77623809D02*
X199212857Y-77671428D01*
X199212857Y-77671428D02*
X199165238Y-77719047D01*
X199165238Y-77719047D02*
X199117619Y-77814285D01*
X199117619Y-77814285D02*
X199117619Y-77909523D01*
X199117619Y-77909523D02*
X199165238Y-78004761D01*
X199165238Y-78004761D02*
X199212857Y-78052380D01*
X199212857Y-78052380D02*
X199308095Y-78099999D01*
X199308095Y-78099999D02*
X199498571Y-78147618D01*
X199498571Y-78147618D02*
X199736666Y-78147618D01*
X199736666Y-78147618D02*
X199927142Y-78099999D01*
X199927142Y-78099999D02*
X200022380Y-78052380D01*
X200022380Y-78052380D02*
X200070000Y-78004761D01*
X200070000Y-78004761D02*
X200117619Y-77909523D01*
X200022380Y-77195237D02*
X200070000Y-77147618D01*
X200070000Y-77147618D02*
X200117619Y-77052380D01*
X200117619Y-77052380D02*
X200117619Y-76814285D01*
X200117619Y-76814285D02*
X200070000Y-76719047D01*
X200070000Y-76719047D02*
X200022380Y-76671428D01*
X200022380Y-76671428D02*
X199927142Y-76623809D01*
X199927142Y-76623809D02*
X199831904Y-76623809D01*
X199831904Y-76623809D02*
X199689047Y-76671428D01*
X199689047Y-76671428D02*
X199117619Y-77242856D01*
X199117619Y-77242856D02*
X199117619Y-76623809D01*
X200117619Y-76290475D02*
X200117619Y-75671428D01*
X200117619Y-75671428D02*
X199736666Y-76004761D01*
X199736666Y-76004761D02*
X199736666Y-75861904D01*
X199736666Y-75861904D02*
X199689047Y-75766666D01*
X199689047Y-75766666D02*
X199641428Y-75719047D01*
X199641428Y-75719047D02*
X199546190Y-75671428D01*
X199546190Y-75671428D02*
X199308095Y-75671428D01*
X199308095Y-75671428D02*
X199212857Y-75719047D01*
X199212857Y-75719047D02*
X199165238Y-75766666D01*
X199165238Y-75766666D02*
X199117619Y-75861904D01*
X199117619Y-75861904D02*
X199117619Y-76147618D01*
X199117619Y-76147618D02*
X199165238Y-76242856D01*
X199165238Y-76242856D02*
X199212857Y-76290475D01*
%TO.C,J3*%
X176066666Y-87132619D02*
X176066666Y-86418333D01*
X176066666Y-86418333D02*
X176019047Y-86275476D01*
X176019047Y-86275476D02*
X175923809Y-86180238D01*
X175923809Y-86180238D02*
X175780952Y-86132619D01*
X175780952Y-86132619D02*
X175685714Y-86132619D01*
X176447619Y-87132619D02*
X177066666Y-87132619D01*
X177066666Y-87132619D02*
X176733333Y-86751666D01*
X176733333Y-86751666D02*
X176876190Y-86751666D01*
X176876190Y-86751666D02*
X176971428Y-86704047D01*
X176971428Y-86704047D02*
X177019047Y-86656428D01*
X177019047Y-86656428D02*
X177066666Y-86561190D01*
X177066666Y-86561190D02*
X177066666Y-86323095D01*
X177066666Y-86323095D02*
X177019047Y-86227857D01*
X177019047Y-86227857D02*
X176971428Y-86180238D01*
X176971428Y-86180238D02*
X176876190Y-86132619D01*
X176876190Y-86132619D02*
X176590476Y-86132619D01*
X176590476Y-86132619D02*
X176495238Y-86180238D01*
X176495238Y-86180238D02*
X176447619Y-86227857D01*
%TD*%
M02*
