M48
; DRILL file {KiCad 7.0.0-da2b9df05c~171~ubuntu22.04.1} date Sun 05 Mar 2023 04:33:21 PM PST
; FORMAT={-:-/ absolute / inch / decimal}
; #@! TF.CreationDate,2023-03-05T16:33:21-08:00
; #@! TF.GenerationSoftware,Kicad,Pcbnew,7.0.0-da2b9df05c~171~ubuntu22.04.1
; #@! TF.FileFunction,MixedPlating,1,2
FMAT,2
INCH
; #@! TA.AperFunction,Plated,PTH,ViaDrill
T1C0.0118
; #@! TA.AperFunction,Plated,PTH,ComponentDrill
T2C0.0236
; #@! TA.AperFunction,Plated,PTH,ComponentDrill
T3C0.0300
; #@! TA.AperFunction,Plated,PTH,ComponentDrill
T4C0.0512
; #@! TA.AperFunction,NonPlated,NPTH,ComponentDrill
T5C0.0256
; #@! TA.AperFunction,NonPlated,NPTH,ComponentDrill
T6C0.0866
%
G90
G05
T1
X6.498Y-2.9976
X6.5335Y-2.6787
X6.5965Y-3.2693
X6.6339Y-2.7417
X6.6461Y-2.8567
X6.6488Y-3.0516
X6.6492Y-3.1087
X6.6512Y-2.9252
X6.685Y-2.6197
X6.722Y-2.924
X6.7579Y-2.7417
X6.766Y-3.2673
X6.8386Y-2.7496
X6.9409Y-3.2083
X6.9449Y-3.2441
X6.9459Y-2.9199
X7.063Y-3.1693
X7.0748Y-3.0236
X7.0907Y-2.6925
X7.1063Y-2.8776
X7.1378Y-2.8504
X7.1378Y-2.9038
X7.1441Y-3.0432
X7.1614Y-3.1693
X7.2677Y-3.1654
X7.2717Y-3.3386
X7.3878Y-3.0272
X7.4134Y-3.0787
X7.415Y-3.0433
X7.439Y-2.7634
X7.4567Y-3.3071
X7.4705Y-2.665
X7.4862Y-3.2752
X7.4921Y-2.976
X7.4921Y-3.0252
X7.5335Y-2.6354
X7.6295Y-3.1043
X7.6331Y-3.0594
X7.9921Y-2.663
X7.9921Y-2.9248
X7.9921Y-3.2752
T3
X7.6902Y-2.8047
X7.6906Y-2.6772
X7.7902Y-2.8047
X7.7906Y-2.6772
X8.076Y-3.0969
X8.076Y-3.1969
T4
X8.4154Y-2.6882
X8.4154Y-2.8882
X8.4154Y-3.0882
X8.4154Y-3.2882
T5
X6.5636Y-2.8689
X6.5636Y-3.0965
T6
X6.4016Y-2.4606
X6.4016Y-3.5039
X8.4803Y-2.4606
X8.4803Y-3.5039
T2
G00X6.4344Y-2.8126
M15
G01X6.403Y-2.8126
M16
G05
G00X6.4344Y-3.1528
M15
G01X6.403Y-3.1528
M16
G05
G00X6.6049Y-2.8126
M15
G01X6.5616Y-2.8126
M16
G05
G00X6.6049Y-3.1528
M15
G01X6.5616Y-3.1528
M16
G05
T0
M30
