%TF.GenerationSoftware,KiCad,Pcbnew,7.0.0-da2b9df05c~171~ubuntu22.04.1*%
%TF.CreationDate,2023-03-05T16:33:24-08:00*%
%TF.ProjectId,UsbCanAdapter,55736243-616e-4416-9461-707465722e6b,rev?*%
%TF.SameCoordinates,Original*%
%TF.FileFunction,Copper,L1,Top*%
%TF.FilePolarity,Positive*%
%FSLAX46Y46*%
G04 Gerber Fmt 4.6, Leading zero omitted, Abs format (unit mm)*
G04 Created by KiCad (PCBNEW 7.0.0-da2b9df05c~171~ubuntu22.04.1) date 2023-03-05 16:33:24*
%MOMM*%
%LPD*%
G01*
G04 APERTURE LIST*
G04 Aperture macros list*
%AMRoundRect*
0 Rectangle with rounded corners*
0 $1 Rounding radius*
0 $2 $3 $4 $5 $6 $7 $8 $9 X,Y pos of 4 corners*
0 Add a 4 corners polygon primitive as box body*
4,1,4,$2,$3,$4,$5,$6,$7,$8,$9,$2,$3,0*
0 Add four circle primitives for the rounded corners*
1,1,$1+$1,$2,$3*
1,1,$1+$1,$4,$5*
1,1,$1+$1,$6,$7*
1,1,$1+$1,$8,$9*
0 Add four rect primitives between the rounded corners*
20,1,$1+$1,$2,$3,$4,$5,0*
20,1,$1+$1,$4,$5,$6,$7,0*
20,1,$1+$1,$6,$7,$8,$9,0*
20,1,$1+$1,$8,$9,$2,$3,0*%
G04 Aperture macros list end*
%TA.AperFunction,SMDPad,CuDef*%
%ADD10RoundRect,0.200000X-0.200000X-0.275000X0.200000X-0.275000X0.200000X0.275000X-0.200000X0.275000X0*%
%TD*%
%TA.AperFunction,SMDPad,CuDef*%
%ADD11RoundRect,0.160000X-0.160000X0.222500X-0.160000X-0.222500X0.160000X-0.222500X0.160000X0.222500X0*%
%TD*%
%TA.AperFunction,ComponentPad*%
%ADD12C,1.524000*%
%TD*%
%TA.AperFunction,SMDPad,CuDef*%
%ADD13RoundRect,0.150000X-0.150000X0.587500X-0.150000X-0.587500X0.150000X-0.587500X0.150000X0.587500X0*%
%TD*%
%TA.AperFunction,SMDPad,CuDef*%
%ADD14RoundRect,0.150000X-0.875000X-0.150000X0.875000X-0.150000X0.875000X0.150000X-0.875000X0.150000X0*%
%TD*%
%TA.AperFunction,SMDPad,CuDef*%
%ADD15RoundRect,0.075000X-0.075000X0.662500X-0.075000X-0.662500X0.075000X-0.662500X0.075000X0.662500X0*%
%TD*%
%TA.AperFunction,SMDPad,CuDef*%
%ADD16RoundRect,0.075000X-0.662500X0.075000X-0.662500X-0.075000X0.662500X-0.075000X0.662500X0.075000X0*%
%TD*%
%TA.AperFunction,SMDPad,CuDef*%
%ADD17R,0.650000X1.050000*%
%TD*%
%TA.AperFunction,SMDPad,CuDef*%
%ADD18RoundRect,0.200000X0.200000X0.275000X-0.200000X0.275000X-0.200000X-0.275000X0.200000X-0.275000X0*%
%TD*%
%TA.AperFunction,ComponentPad*%
%ADD19O,2.100000X1.000000*%
%TD*%
%TA.AperFunction,ComponentPad*%
%ADD20O,1.800000X1.000000*%
%TD*%
%TA.AperFunction,SMDPad,CuDef*%
%ADD21R,1.150000X0.600000*%
%TD*%
%TA.AperFunction,SMDPad,CuDef*%
%ADD22R,1.150000X0.300000*%
%TD*%
%TA.AperFunction,ComponentPad*%
%ADD23C,2.300000*%
%TD*%
%TA.AperFunction,SMDPad,CuDef*%
%ADD24RoundRect,0.243750X-0.243750X-0.456250X0.243750X-0.456250X0.243750X0.456250X-0.243750X0.456250X0*%
%TD*%
%TA.AperFunction,SMDPad,CuDef*%
%ADD25RoundRect,0.250000X-0.250000X-0.475000X0.250000X-0.475000X0.250000X0.475000X-0.250000X0.475000X0*%
%TD*%
%TA.AperFunction,SMDPad,CuDef*%
%ADD26RoundRect,0.250000X0.475000X-0.250000X0.475000X0.250000X-0.475000X0.250000X-0.475000X-0.250000X0*%
%TD*%
%TA.AperFunction,SMDPad,CuDef*%
%ADD27RoundRect,0.225000X-0.225000X-0.250000X0.225000X-0.250000X0.225000X0.250000X-0.225000X0.250000X0*%
%TD*%
%TA.AperFunction,SMDPad,CuDef*%
%ADD28RoundRect,0.225000X0.225000X0.250000X-0.225000X0.250000X-0.225000X-0.250000X0.225000X-0.250000X0*%
%TD*%
%TA.AperFunction,SMDPad,CuDef*%
%ADD29RoundRect,0.225000X0.250000X-0.225000X0.250000X0.225000X-0.250000X0.225000X-0.250000X-0.225000X0*%
%TD*%
%TA.AperFunction,ViaPad*%
%ADD30C,0.600000*%
%TD*%
%TA.AperFunction,Conductor*%
%ADD31C,0.200000*%
%TD*%
%TA.AperFunction,Conductor*%
%ADD32C,0.500000*%
%TD*%
%TA.AperFunction,Conductor*%
%ADD33C,0.250000*%
%TD*%
G04 APERTURE END LIST*
D10*
%TO.P,RV1,1*%
%TO.N,GND1*%
X167000000Y-68040000D03*
%TO.P,RV1,2*%
%TO.N,Net-(JP1-A)*%
X168650000Y-68040000D03*
%TD*%
D11*
%TO.P,D4,1,K*%
%TO.N,/USB_DP*%
X168600000Y-81827500D03*
%TO.P,D4,2,A*%
%TO.N,GND1*%
X168600000Y-82972500D03*
%TD*%
%TO.P,D3,1,K*%
%TO.N,/USB_DM*%
X171007500Y-81837500D03*
%TO.P,D3,2,A*%
%TO.N,GND1*%
X171007500Y-82982500D03*
%TD*%
D12*
%TO.P,JP3,1,A*%
%TO.N,/CANH*%
X205130000Y-78660000D03*
%TO.P,JP3,2,B*%
%TO.N,Net-(JP3-B)*%
X205130000Y-81200000D03*
%TD*%
%TO.P,JP2,1,A*%
%TO.N,GND1*%
X195340000Y-68000000D03*
%TO.P,JP2,2,B*%
%TO.N,GND2*%
X197880000Y-68000000D03*
%TD*%
%TO.P,JP1,1,A*%
%TO.N,Net-(JP1-A)*%
X195330000Y-71240000D03*
%TO.P,JP1,2,B*%
%TO.N,VBUS*%
X197870000Y-71240000D03*
%TD*%
D13*
%TO.P,U3,1,GND*%
%TO.N,GND1*%
X174680000Y-76542500D03*
%TO.P,U3,2,VO*%
%TO.N,VCC*%
X172780000Y-76542500D03*
%TO.P,U3,3,VI*%
%TO.N,Net-(JP1-A)*%
X173730000Y-78417500D03*
%TD*%
D14*
%TO.P,U2,1,NC*%
%TO.N,unconnected-(U2-NC-Pad1)*%
X191940000Y-74305000D03*
%TO.P,U2,2,GND1*%
%TO.N,GND1*%
X191940000Y-75575000D03*
%TO.P,U2,3,GND1*%
X191940000Y-76845000D03*
%TO.P,U2,4,VDD2SENSE*%
%TO.N,/VBUS_SENSE*%
X191940000Y-78115000D03*
%TO.P,U2,5,RXD*%
%TO.N,/CAN_RX*%
X191940000Y-79385000D03*
%TO.P,U2,6,TXD*%
%TO.N,/CAN_TX*%
X191940000Y-80655000D03*
%TO.P,U2,7,VDD1*%
%TO.N,VCC*%
X191940000Y-81925000D03*
%TO.P,U2,8,GND1*%
%TO.N,GND1*%
X191940000Y-83195000D03*
%TO.P,U2,9,GND2*%
%TO.N,GND2*%
X201240000Y-83195000D03*
%TO.P,U2,10,VREF*%
%TO.N,unconnected-(U2-VREF-Pad10)*%
X201240000Y-81925000D03*
%TO.P,U2,11,CANL*%
%TO.N,/CANL*%
X201240000Y-80655000D03*
%TO.P,U2,12,CANH*%
%TO.N,/CANH*%
X201240000Y-79385000D03*
%TO.P,U2,13,VDD2*%
%TO.N,VBUS*%
X201240000Y-78115000D03*
%TO.P,U2,14,NC*%
%TO.N,unconnected-(U2-NC-Pad14)*%
X201240000Y-76845000D03*
%TO.P,U2,15,NC*%
%TO.N,unconnected-(U2-NC-Pad15)*%
X201240000Y-75575000D03*
%TO.P,U2,16,GND2*%
%TO.N,GND2*%
X201240000Y-74305000D03*
%TD*%
D15*
%TO.P,U1,1,VBAT*%
%TO.N,VCC*%
X184680000Y-75103750D03*
%TO.P,U1,2,PC13*%
%TO.N,unconnected-(U1-PC13-Pad2)*%
X184180000Y-75103750D03*
%TO.P,U1,3,PC14*%
%TO.N,unconnected-(U1-PC14-Pad3)*%
X183680000Y-75103750D03*
%TO.P,U1,4,PC15*%
%TO.N,unconnected-(U1-PC15-Pad4)*%
X183180000Y-75103750D03*
%TO.P,U1,5,PF0*%
%TO.N,unconnected-(U1-PF0-Pad5)*%
X182680000Y-75103750D03*
%TO.P,U1,6,PF1*%
%TO.N,unconnected-(U1-PF1-Pad6)*%
X182180000Y-75103750D03*
%TO.P,U1,7,NRST*%
%TO.N,/NRST*%
X181680000Y-75103750D03*
%TO.P,U1,8,VSSA*%
%TO.N,GND1*%
X181180000Y-75103750D03*
%TO.P,U1,9,VDDA*%
%TO.N,VCC*%
X180680000Y-75103750D03*
%TO.P,U1,10,PA0*%
%TO.N,unconnected-(U1-PA0-Pad10)*%
X180180000Y-75103750D03*
%TO.P,U1,11,PA1*%
%TO.N,unconnected-(U1-PA1-Pad11)*%
X179680000Y-75103750D03*
%TO.P,U1,12,PA2*%
%TO.N,unconnected-(U1-PA2-Pad12)*%
X179180000Y-75103750D03*
D16*
%TO.P,U1,13,PA3*%
%TO.N,unconnected-(U1-PA3-Pad13)*%
X177767500Y-76516250D03*
%TO.P,U1,14,PA4*%
%TO.N,unconnected-(U1-PA4-Pad14)*%
X177767500Y-77016250D03*
%TO.P,U1,15,PA5*%
%TO.N,unconnected-(U1-PA5-Pad15)*%
X177767500Y-77516250D03*
%TO.P,U1,16,PA6*%
%TO.N,unconnected-(U1-PA6-Pad16)*%
X177767500Y-78016250D03*
%TO.P,U1,17,PA7*%
%TO.N,unconnected-(U1-PA7-Pad17)*%
X177767500Y-78516250D03*
%TO.P,U1,18,PB0*%
%TO.N,unconnected-(U1-PB0-Pad18)*%
X177767500Y-79016250D03*
%TO.P,U1,19,PB1*%
%TO.N,unconnected-(U1-PB1-Pad19)*%
X177767500Y-79516250D03*
%TO.P,U1,20,PB2*%
%TO.N,unconnected-(U1-PB2-Pad20)*%
X177767500Y-80016250D03*
%TO.P,U1,21,PB10*%
%TO.N,unconnected-(U1-PB10-Pad21)*%
X177767500Y-80516250D03*
%TO.P,U1,22,PB11*%
%TO.N,unconnected-(U1-PB11-Pad22)*%
X177767500Y-81016250D03*
%TO.P,U1,23,VSS*%
%TO.N,GND1*%
X177767500Y-81516250D03*
%TO.P,U1,24,VDD*%
%TO.N,VCC*%
X177767500Y-82016250D03*
D15*
%TO.P,U1,25,PB12*%
%TO.N,unconnected-(U1-PB12-Pad25)*%
X179180000Y-83428750D03*
%TO.P,U1,26,PB13*%
%TO.N,unconnected-(U1-PB13-Pad26)*%
X179680000Y-83428750D03*
%TO.P,U1,27,PB14*%
%TO.N,unconnected-(U1-PB14-Pad27)*%
X180180000Y-83428750D03*
%TO.P,U1,28,PB15*%
%TO.N,unconnected-(U1-PB15-Pad28)*%
X180680000Y-83428750D03*
%TO.P,U1,29,PA8*%
%TO.N,unconnected-(U1-PA8-Pad29)*%
X181180000Y-83428750D03*
%TO.P,U1,30,PA9*%
%TO.N,unconnected-(U1-PA9-Pad30)*%
X181680000Y-83428750D03*
%TO.P,U1,31,PA10*%
%TO.N,unconnected-(U1-PA10-Pad31)*%
X182180000Y-83428750D03*
%TO.P,U1,32,PA11*%
%TO.N,/USB_DM*%
X182680000Y-83428750D03*
%TO.P,U1,33,PA12*%
%TO.N,/USB_DP*%
X183180000Y-83428750D03*
%TO.P,U1,34,PA13*%
%TO.N,/SWDIO*%
X183680000Y-83428750D03*
%TO.P,U1,35,VSS*%
%TO.N,GND1*%
X184180000Y-83428750D03*
%TO.P,U1,36,VDDIO2*%
%TO.N,VCC*%
X184680000Y-83428750D03*
D16*
%TO.P,U1,37,PA14*%
%TO.N,/SWCLK*%
X186092500Y-82016250D03*
%TO.P,U1,38,PA15*%
%TO.N,/VBUS_SENSE*%
X186092500Y-81516250D03*
%TO.P,U1,39,PB3*%
%TO.N,unconnected-(U1-PB3-Pad39)*%
X186092500Y-81016250D03*
%TO.P,U1,40,PB4*%
%TO.N,/LED1*%
X186092500Y-80516250D03*
%TO.P,U1,41,PB5*%
%TO.N,/LED2*%
X186092500Y-80016250D03*
%TO.P,U1,42,PB6*%
%TO.N,unconnected-(U1-PB6-Pad42)*%
X186092500Y-79516250D03*
%TO.P,U1,43,PB7*%
%TO.N,unconnected-(U1-PB7-Pad43)*%
X186092500Y-79016250D03*
%TO.P,U1,44,PF11*%
%TO.N,/BOOT0*%
X186092500Y-78516250D03*
%TO.P,U1,45,PB8*%
%TO.N,/CAN_RX*%
X186092500Y-78016250D03*
%TO.P,U1,46,PB9*%
%TO.N,/CAN_TX*%
X186092500Y-77516250D03*
%TO.P,U1,47,VSS*%
%TO.N,GND1*%
X186092500Y-77016250D03*
%TO.P,U1,48,VDD*%
%TO.N,VCC*%
X186092500Y-76516250D03*
%TD*%
D17*
%TO.P,SW1,1,1*%
%TO.N,GND1*%
X180104999Y-67054999D03*
X180104999Y-71204999D03*
%TO.P,SW1,2,2*%
%TO.N,/BOOT0*%
X177954999Y-71204999D03*
X177954999Y-67054999D03*
%TD*%
D18*
%TO.P,R5,1*%
%TO.N,GND1*%
X188060000Y-70760000D03*
%TO.P,R5,2*%
%TO.N,Net-(D2-K)*%
X186410000Y-70760000D03*
%TD*%
%TO.P,R4,2*%
%TO.N,Net-(D1-K)*%
X186475000Y-66730000D03*
%TO.P,R4,1*%
%TO.N,GND1*%
X188125000Y-66730000D03*
%TD*%
D10*
%TO.P,R3,1*%
%TO.N,/CANL*%
X204305000Y-83410000D03*
%TO.P,R3,2*%
%TO.N,Net-(JP3-B)*%
X205955000Y-83410000D03*
%TD*%
%TO.P,R2,1*%
%TO.N,Net-(J2-CC1)*%
X171995000Y-67980000D03*
%TO.P,R2,2*%
%TO.N,GND1*%
X173645000Y-67980000D03*
%TD*%
%TO.P,R1,1*%
%TO.N,Net-(J2-CC2)*%
X172055000Y-71050000D03*
%TO.P,R1,2*%
%TO.N,GND1*%
X173705000Y-71050000D03*
%TD*%
D19*
%TO.P,J2,S1,SHIELD*%
%TO.N,GND1*%
X167214999Y-71439999D03*
D20*
X163034999Y-80079999D03*
D19*
X167214999Y-80079999D03*
D20*
X163034999Y-71439999D03*
D21*
%TO.P,J2,B12,GND*%
X167789999Y-72559999D03*
%TO.P,J2,B9,VBUS*%
%TO.N,Net-(JP1-A)*%
X167789999Y-73359999D03*
D22*
%TO.P,J2,B8,SBU2*%
%TO.N,unconnected-(J2-SBU2-PadB8)*%
X167789999Y-74009999D03*
%TO.P,J2,B7,D-*%
%TO.N,/USB_DM*%
X167789999Y-75009999D03*
%TO.P,J2,B6,D+*%
%TO.N,/USB_DP*%
X167789999Y-76509999D03*
%TO.P,J2,B5,CC2*%
%TO.N,Net-(J2-CC2)*%
X167789999Y-77509999D03*
D21*
%TO.P,J2,B4,VBUS*%
%TO.N,Net-(JP1-A)*%
X167789999Y-78159999D03*
%TO.P,J2,B1,GND*%
%TO.N,GND1*%
X167789999Y-78959999D03*
%TO.P,J2,A12,GND*%
X167789999Y-78959999D03*
%TO.P,J2,A9,VBUS*%
%TO.N,Net-(JP1-A)*%
X167789999Y-78159999D03*
D22*
%TO.P,J2,A8,SBU1*%
%TO.N,unconnected-(J2-SBU1-PadA8)*%
X167789999Y-77009999D03*
%TO.P,J2,A7,D-*%
%TO.N,/USB_DM*%
X167789999Y-76009999D03*
%TO.P,J2,A6,D+*%
%TO.N,/USB_DP*%
X167789999Y-75509999D03*
%TO.P,J2,A5,CC1*%
%TO.N,Net-(J2-CC1)*%
X167789999Y-74509999D03*
D21*
%TO.P,J2,A4,VBUS*%
%TO.N,Net-(JP1-A)*%
X167789999Y-73359999D03*
%TO.P,J2,A1,GND*%
%TO.N,GND1*%
X167789999Y-72559999D03*
%TD*%
D23*
%TO.P,J1,1,Pin_1*%
%TO.N,VBUS*%
X213750000Y-68280000D03*
%TO.P,J1,2,Pin_2*%
%TO.N,/CANH*%
X213750000Y-73360000D03*
%TO.P,J1,3,Pin_3*%
%TO.N,/CANL*%
X213750000Y-78440000D03*
%TO.P,J1,4,Pin_4*%
%TO.N,GND2*%
X213750000Y-83520000D03*
%TD*%
D24*
%TO.P,D2,1,K*%
%TO.N,Net-(D2-K)*%
X186287500Y-72660000D03*
%TO.P,D2,2,A*%
%TO.N,/LED2*%
X188162500Y-72660000D03*
%TD*%
%TO.P,D1,1,K*%
%TO.N,Net-(D1-K)*%
X186290000Y-68680000D03*
%TO.P,D1,2,A*%
%TO.N,/LED1*%
X188165000Y-68680000D03*
%TD*%
D25*
%TO.P,C8,1*%
%TO.N,Net-(JP1-A)*%
X172770000Y-81050000D03*
%TO.P,C8,2*%
%TO.N,GND1*%
X174670000Y-81050000D03*
%TD*%
D26*
%TO.P,C7,1*%
%TO.N,VBUS*%
X204750000Y-69530000D03*
%TO.P,C7,2*%
%TO.N,GND2*%
X204750000Y-67630000D03*
%TD*%
D25*
%TO.P,C6,1*%
%TO.N,VCC*%
X172800000Y-74120000D03*
%TO.P,C6,2*%
%TO.N,GND1*%
X174700000Y-74120000D03*
%TD*%
D27*
%TO.P,C5,1*%
%TO.N,VCC*%
X186395000Y-74740000D03*
%TO.P,C5,2*%
%TO.N,GND1*%
X187945000Y-74740000D03*
%TD*%
D28*
%TO.P,C4,2*%
%TO.N,GND1*%
X176425000Y-73090000D03*
%TO.P,C4,1*%
%TO.N,VCC*%
X177975000Y-73090000D03*
%TD*%
%TO.P,C3,1*%
%TO.N,VCC*%
X177125000Y-83490000D03*
%TO.P,C3,2*%
%TO.N,GND1*%
X175575000Y-83490000D03*
%TD*%
D27*
%TO.P,C2,1*%
%TO.N,VCC*%
X186655000Y-84010000D03*
%TO.P,C2,2*%
%TO.N,GND1*%
X188205000Y-84010000D03*
%TD*%
D29*
%TO.P,C1,1*%
%TO.N,/NRST*%
X181750000Y-69915000D03*
%TO.P,C1,2*%
%TO.N,GND1*%
X181750000Y-68365000D03*
%TD*%
D30*
%TO.N,/SWDIO*%
X181900000Y-80500000D03*
%TO.N,VCC*%
X176400000Y-82400000D03*
%TO.N,/NRST*%
X181300000Y-72400000D03*
X179700000Y-76800000D03*
X179400000Y-80500000D03*
%TO.N,/SWCLK*%
X184600000Y-80400000D03*
%TO.N,GND1*%
X165950000Y-68040000D03*
X171857500Y-82990000D03*
X167550000Y-83040000D03*
%TO.N,GND2*%
X203000000Y-67640000D03*
%TO.N,Net-(J2-CC2)*%
X171650000Y-69640000D03*
X165050000Y-76140000D03*
X168500000Y-69640000D03*
%TO.N,GND1*%
X190150000Y-83190000D03*
X190300000Y-76840000D03*
X190300000Y-75590000D03*
X188950000Y-70190000D03*
X189750000Y-67690000D03*
X180105000Y-68390000D03*
X173700000Y-69840000D03*
X176425000Y-74165000D03*
X176300000Y-81490000D03*
X184700000Y-84800000D03*
X189400000Y-84000000D03*
X187650000Y-76890000D03*
%TO.N,GND2*%
X203000000Y-83190000D03*
X203000000Y-74290000D03*
%TO.N,Net-(JP1-A)*%
X169800000Y-66540000D03*
X191350000Y-66940000D03*
%TO.N,/CAN_RX*%
X193790000Y-78850000D03*
%TO.N,/CAN_TX*%
X193880000Y-77710000D03*
X188340000Y-77300000D03*
%TO.N,/CAN_RX*%
X188300000Y-78200000D03*
%TO.N,GND1*%
X181300000Y-73756250D03*
%TO.N,/BOOT0*%
X181460000Y-77296250D03*
X180500000Y-73090000D03*
%TO.N,GND1*%
X168810000Y-72560000D03*
X168890000Y-78960000D03*
%TO.N,Net-(J2-CC1)*%
X170740000Y-74270000D03*
X168940000Y-74300000D03*
%TO.N,Net-(J2-CC2)*%
X168880000Y-77510000D03*
%TD*%
D31*
%TO.N,/CAN_RX*%
X188300000Y-78200000D02*
X188116250Y-78016250D01*
X188116250Y-78016250D02*
X186092500Y-78016250D01*
%TO.N,/CAN_TX*%
X188340000Y-77300000D02*
X188123750Y-77516250D01*
X188123750Y-77516250D02*
X186092500Y-77516250D01*
%TO.N,/SWDIO*%
X183680000Y-82280000D02*
X181900000Y-80500000D01*
X183680000Y-83428750D02*
X183680000Y-82280000D01*
%TO.N,VCC*%
X177767500Y-82016250D02*
X179400000Y-82016250D01*
X179400000Y-82016250D02*
X180680000Y-80736250D01*
X180680000Y-80736250D02*
X180680000Y-78400000D01*
X180680000Y-76366250D02*
X180680000Y-78400000D01*
X184680000Y-82086250D02*
X180993750Y-78400000D01*
X180993750Y-78400000D02*
X180680000Y-78400000D01*
%TO.N,/NRST*%
X179400000Y-80500000D02*
X179400000Y-77100000D01*
X179400000Y-77100000D02*
X179700000Y-76800000D01*
%TO.N,VCC*%
X177125000Y-83125000D02*
X176400000Y-82400000D01*
X177125000Y-83490000D02*
X177125000Y-83125000D01*
%TO.N,GND1*%
X189400000Y-84000000D02*
X188215000Y-84000000D01*
X188215000Y-84000000D02*
X188205000Y-84010000D01*
%TO.N,/NRST*%
X182040000Y-72400000D02*
X182040000Y-71080000D01*
X182040000Y-73866250D02*
X182040000Y-72400000D01*
X182040000Y-72400000D02*
X181300000Y-72400000D01*
%TO.N,GND1*%
X184700000Y-84800000D02*
X184180000Y-84280000D01*
X184180000Y-84280000D02*
X184180000Y-83428750D01*
%TO.N,/SWCLK*%
X184600000Y-80800000D02*
X184600000Y-80400000D01*
X185216250Y-82016250D02*
X184700000Y-81500000D01*
X186092500Y-82016250D02*
X185216250Y-82016250D01*
X184700000Y-81500000D02*
X184600000Y-81400000D01*
X184600000Y-81400000D02*
X184600000Y-80800000D01*
%TO.N,VCC*%
X186655000Y-84010000D02*
X187400000Y-83265000D01*
X187400000Y-83265000D02*
X187400000Y-82690000D01*
X187400000Y-82690000D02*
X188165000Y-81925000D01*
X188165000Y-81925000D02*
X191940000Y-81925000D01*
X184680000Y-83428750D02*
X184680000Y-83722500D01*
%TO.N,/USB_DP*%
X169600000Y-84160000D02*
X169600000Y-81800000D01*
X169572500Y-81827500D02*
X169600000Y-81800000D01*
X169600000Y-81800000D02*
X169600000Y-76430000D01*
X168600000Y-81827500D02*
X169572500Y-81827500D01*
X183180000Y-83722500D02*
X183180000Y-84560000D01*
X183180000Y-84560000D02*
X182750000Y-84990000D01*
X182750000Y-84990000D02*
X170430000Y-84990000D01*
X170430000Y-84990000D02*
X169600000Y-84160000D01*
X169600000Y-76430000D02*
X168840000Y-75670000D01*
%TO.N,/USB_DM*%
X182680000Y-83722500D02*
X182680000Y-84410000D01*
X170100000Y-76200000D02*
X168900000Y-75000000D01*
X182680000Y-84410000D02*
X182500000Y-84590000D01*
X182500000Y-84590000D02*
X170630000Y-84590000D01*
X170630000Y-84590000D02*
X170100000Y-84060000D01*
X170100000Y-84060000D02*
X170100000Y-76200000D01*
X168900000Y-75000000D02*
X168770000Y-75000000D01*
D32*
%TO.N,Net-(JP1-A)*%
X172770000Y-81050000D02*
X171722500Y-81050000D01*
X171200000Y-76350000D02*
X169800000Y-74950000D01*
X171722500Y-81050000D02*
X171200000Y-80527500D01*
X171200000Y-80527500D02*
X171200000Y-76350000D01*
X169800000Y-74950000D02*
X169800000Y-73980000D01*
X169800000Y-73980000D02*
X169180000Y-73360000D01*
D31*
%TO.N,GND1*%
X187945000Y-74740000D02*
X187945000Y-76595000D01*
X187945000Y-76595000D02*
X187650000Y-76890000D01*
D32*
%TO.N,VBUS*%
X201240000Y-78115000D02*
X202675000Y-78115000D01*
X202675000Y-78115000D02*
X203900000Y-76890000D01*
X203900000Y-70380000D02*
X204750000Y-69530000D01*
X203900000Y-76890000D02*
X203900000Y-70380000D01*
D31*
%TO.N,/BOOT0*%
X180500000Y-73090000D02*
X179560000Y-72150000D01*
X179560000Y-72150000D02*
X178900000Y-72150000D01*
X178900000Y-72150000D02*
X177955000Y-71205000D01*
%TO.N,VCC*%
X177975000Y-73090000D02*
X177975000Y-73015000D01*
X177975000Y-73015000D02*
X177050000Y-72090000D01*
X177050000Y-72090000D02*
X174830000Y-72090000D01*
X174830000Y-72090000D02*
X172800000Y-74120000D01*
%TO.N,GND1*%
X167000000Y-68040000D02*
X165950000Y-68040000D01*
D32*
%TO.N,Net-(JP1-A)*%
X169800000Y-68040000D02*
X169800000Y-72840000D01*
X169800000Y-66540000D02*
X169800000Y-68040000D01*
X169800000Y-68040000D02*
X168650000Y-68040000D01*
D31*
%TO.N,GND1*%
X171007500Y-82982500D02*
X171850000Y-82982500D01*
X167572500Y-83062500D02*
X167550000Y-83040000D01*
X168450000Y-83062500D02*
X167572500Y-83062500D01*
%TO.N,/USB_DM*%
X171007500Y-81837500D02*
X170200000Y-81837500D01*
%TO.N,GND1*%
X175575000Y-83490000D02*
X175575000Y-82215000D01*
X175575000Y-82215000D02*
X176300000Y-81490000D01*
%TO.N,GND2*%
X203010000Y-67630000D02*
X203000000Y-67640000D01*
X204750000Y-67630000D02*
X203010000Y-67630000D01*
%TO.N,Net-(J2-CC2)*%
X171650000Y-69640000D02*
X171650000Y-70645000D01*
X171650000Y-70645000D02*
X172055000Y-71050000D01*
X165450000Y-69790000D02*
X165600000Y-69640000D01*
X165050000Y-76140000D02*
X165050000Y-70190000D01*
X165600000Y-69640000D02*
X168500000Y-69640000D01*
X165050000Y-70190000D02*
X165450000Y-69790000D01*
%TO.N,Net-(JP1-A)*%
X167230000Y-78160000D02*
X166880000Y-77810000D01*
X166880000Y-77810000D02*
X166420000Y-77810000D01*
X166420000Y-77810000D02*
X165900000Y-77290000D01*
X165900000Y-77290000D02*
X165900000Y-76830000D01*
%TO.N,GND1*%
X190155000Y-83195000D02*
X190150000Y-83190000D01*
X191940000Y-83195000D02*
X190155000Y-83195000D01*
X190305000Y-76845000D02*
X190300000Y-76840000D01*
X191940000Y-76845000D02*
X190305000Y-76845000D01*
X190315000Y-75575000D02*
X190300000Y-75590000D01*
X191940000Y-75575000D02*
X190315000Y-75575000D01*
%TO.N,VCC*%
X186395000Y-74740000D02*
X185450000Y-74740000D01*
X185450000Y-74740000D02*
X185086250Y-75103750D01*
X185086250Y-75103750D02*
X184680000Y-75103750D01*
X177125000Y-83490000D02*
X177125000Y-83315000D01*
X177125000Y-83315000D02*
X177767500Y-82672500D01*
X177767500Y-82672500D02*
X177767500Y-82016250D01*
%TO.N,/LED1*%
X188165000Y-68680000D02*
X189340000Y-68680000D01*
X189340000Y-68680000D02*
X189620000Y-68960000D01*
X189620000Y-68960000D02*
X189620000Y-79380000D01*
X189620000Y-79380000D02*
X188483750Y-80516250D01*
X188483750Y-80516250D02*
X186092500Y-80516250D01*
%TO.N,GND1*%
X188380000Y-70760000D02*
X188950000Y-70190000D01*
X188060000Y-70760000D02*
X188380000Y-70760000D01*
X188790000Y-66730000D02*
X189750000Y-67690000D01*
X188125000Y-66730000D02*
X188790000Y-66730000D01*
%TO.N,Net-(D1-K)*%
X186290000Y-68680000D02*
X186475000Y-68495000D01*
X186475000Y-68495000D02*
X186475000Y-66730000D01*
%TO.N,Net-(D2-K)*%
X186410000Y-70760000D02*
X186410000Y-72537500D01*
X186410000Y-72537500D02*
X186287500Y-72660000D01*
D32*
%TO.N,GND1*%
X180105000Y-67055000D02*
X180105000Y-68390000D01*
X180105000Y-68390000D02*
X180105000Y-71205000D01*
X181750000Y-68365000D02*
X180130000Y-68365000D01*
X180130000Y-68365000D02*
X180105000Y-68390000D01*
X173645000Y-67980000D02*
X173645000Y-69785000D01*
X173645000Y-69785000D02*
X173700000Y-69840000D01*
X173705000Y-69845000D02*
X173700000Y-69840000D01*
X173705000Y-71050000D02*
X173705000Y-69845000D01*
X176425000Y-74165000D02*
X176425000Y-73090000D01*
X176380000Y-74120000D02*
X174700000Y-74120000D01*
X176425000Y-74165000D02*
X176380000Y-74120000D01*
X174680000Y-76542500D02*
X174680000Y-74140000D01*
X174680000Y-74140000D02*
X174700000Y-74120000D01*
X174670000Y-81050000D02*
X175860000Y-81050000D01*
X175860000Y-81050000D02*
X176300000Y-81490000D01*
%TO.N,Net-(JP1-A)*%
X173730000Y-78417500D02*
X173730000Y-80090000D01*
X173730000Y-80090000D02*
X172770000Y-81050000D01*
D31*
%TO.N,GND1*%
X176326250Y-81516250D02*
X176300000Y-81490000D01*
X177767500Y-81516250D02*
X176326250Y-81516250D01*
%TO.N,VCC*%
X186655000Y-84010000D02*
X185970000Y-84010000D01*
X185970000Y-84010000D02*
X185388750Y-83428750D01*
X185388750Y-83428750D02*
X184680000Y-83428750D01*
X184680000Y-83428750D02*
X184680000Y-82086250D01*
%TO.N,GND1*%
X187523750Y-77016250D02*
X187650000Y-76890000D01*
X186092500Y-77016250D02*
X187523750Y-77016250D01*
%TO.N,/VBUS_SENSE*%
X186092500Y-81516250D02*
X188873750Y-81516250D01*
X190525000Y-78115000D02*
X191940000Y-78115000D01*
X188873750Y-81516250D02*
X190200000Y-80190000D01*
X190200000Y-80190000D02*
X190200000Y-78440000D01*
X190200000Y-78440000D02*
X190525000Y-78115000D01*
D32*
%TO.N,GND2*%
X202995000Y-83195000D02*
X203000000Y-83190000D01*
X201240000Y-83195000D02*
X202995000Y-83195000D01*
D31*
%TO.N,/CANL*%
X205100000Y-84540000D02*
X206500000Y-84540000D01*
X204305000Y-83410000D02*
X204305000Y-83745000D01*
X204305000Y-83745000D02*
X205100000Y-84540000D01*
X206500000Y-84540000D02*
X212600000Y-78440000D01*
X212600000Y-78440000D02*
X213750000Y-78440000D01*
%TO.N,Net-(JP3-B)*%
X205955000Y-83410000D02*
X205955000Y-82025000D01*
X205955000Y-82025000D02*
X205130000Y-81200000D01*
%TO.N,/CANL*%
X201240000Y-80655000D02*
X202415000Y-80655000D01*
X202415000Y-80655000D02*
X204305000Y-82545000D01*
X204305000Y-82545000D02*
X204305000Y-83410000D01*
%TO.N,/CANH*%
X205130000Y-78660000D02*
X208430000Y-78660000D01*
X208430000Y-78660000D02*
X208450000Y-78640000D01*
X201240000Y-79385000D02*
X204405000Y-79385000D01*
X204405000Y-79385000D02*
X205130000Y-78660000D01*
D32*
%TO.N,GND2*%
X202985000Y-74305000D02*
X203000000Y-74290000D01*
X201240000Y-74305000D02*
X202985000Y-74305000D01*
%TO.N,VBUS*%
X201510000Y-69530000D02*
X203200000Y-69530000D01*
X203200000Y-69530000D02*
X204750000Y-69530000D01*
X204750000Y-69530000D02*
X212500000Y-69530000D01*
X212500000Y-69530000D02*
X213750000Y-68280000D01*
X197870000Y-71240000D02*
X199800000Y-71240000D01*
X199800000Y-71240000D02*
X201510000Y-69530000D01*
%TO.N,Net-(JP1-A)*%
X169800000Y-72840000D02*
X169280000Y-73360000D01*
X169280000Y-73360000D02*
X169180000Y-73360000D01*
X191350000Y-66940000D02*
X191550000Y-66940000D01*
X191550000Y-66940000D02*
X191900000Y-67290000D01*
X192550000Y-71240000D02*
X195330000Y-71240000D01*
X191900000Y-67290000D02*
X191900000Y-70590000D01*
X191900000Y-70590000D02*
X192550000Y-71240000D01*
D31*
%TO.N,VCC*%
X180680000Y-75103750D02*
X180680000Y-74120000D01*
X180680000Y-74120000D02*
X179650000Y-73090000D01*
X179650000Y-73090000D02*
X177975000Y-73090000D01*
%TO.N,/NRST*%
X181680000Y-75103750D02*
X181680000Y-74226250D01*
X181680000Y-74226250D02*
X182040000Y-73866250D01*
X182040000Y-71080000D02*
X181750000Y-70790000D01*
X181750000Y-70790000D02*
X181750000Y-69915000D01*
%TO.N,/LED2*%
X186092500Y-80016250D02*
X188083750Y-80016250D01*
X188083750Y-80016250D02*
X188990000Y-79110000D01*
X188990000Y-79110000D02*
X188990000Y-73487500D01*
X188990000Y-73487500D02*
X188162500Y-72660000D01*
%TO.N,/CAN_TX*%
X191940000Y-80655000D02*
X193625000Y-80655000D01*
X193625000Y-80655000D02*
X194750000Y-79530000D01*
X194540000Y-77710000D02*
X193880000Y-77710000D01*
X194750000Y-79530000D02*
X194750000Y-77920000D01*
X194750000Y-77920000D02*
X194540000Y-77710000D01*
%TO.N,/CAN_RX*%
X193790000Y-78850000D02*
X193790000Y-79090000D01*
X193790000Y-79090000D02*
X193495000Y-79385000D01*
X193495000Y-79385000D02*
X191940000Y-79385000D01*
%TO.N,GND1*%
X181180000Y-73876250D02*
X181300000Y-73756250D01*
X181180000Y-75103750D02*
X181180000Y-73876250D01*
%TO.N,/BOOT0*%
X177955000Y-71205000D02*
X177955000Y-67055000D01*
X181455000Y-77291250D02*
X181460000Y-77296250D01*
X186092500Y-78516250D02*
X182680000Y-78516250D01*
X182680000Y-78516250D02*
X181455000Y-77291250D01*
%TO.N,VCC*%
X186092500Y-76516250D02*
X184800000Y-76516250D01*
X184800000Y-76516250D02*
X184650000Y-76366250D01*
X180680000Y-75103750D02*
X180680000Y-76366250D01*
X180680000Y-76366250D02*
X184650000Y-76366250D01*
X184650000Y-76366250D02*
X184680000Y-76336250D01*
X184680000Y-76336250D02*
X184680000Y-75103750D01*
X184610000Y-82016250D02*
X184680000Y-82086250D01*
D32*
X172780000Y-76542500D02*
X172780000Y-74140000D01*
X172780000Y-74140000D02*
X172800000Y-74120000D01*
%TO.N,GND1*%
X167790000Y-72560000D02*
X168810000Y-72560000D01*
X167790000Y-78960000D02*
X168890000Y-78960000D01*
D31*
%TO.N,Net-(J2-CC1)*%
X170740000Y-74270000D02*
X170740000Y-68260000D01*
X170740000Y-68260000D02*
X171020000Y-67980000D01*
X171020000Y-67980000D02*
X171995000Y-67980000D01*
D32*
%TO.N,Net-(JP1-A)*%
X169180000Y-73360000D02*
X167790000Y-73360000D01*
D31*
%TO.N,/USB_DM*%
X168780000Y-75010000D02*
X167790000Y-75010000D01*
%TO.N,Net-(J2-CC1)*%
X168750000Y-74510000D02*
X168950000Y-74310000D01*
X167790000Y-74510000D02*
X168750000Y-74510000D01*
%TO.N,/USB_DP*%
X168850000Y-75680000D02*
X168850000Y-76260000D01*
X167790000Y-76510000D02*
X168600000Y-76510000D01*
X168600000Y-76510000D02*
X168850000Y-76260000D01*
%TO.N,Net-(J2-CC2)*%
X167790000Y-77510000D02*
X168880000Y-77510000D01*
%TO.N,/USB_DP*%
X167790000Y-75510000D02*
X168680000Y-75510000D01*
X168680000Y-75510000D02*
X168850000Y-75680000D01*
%TO.N,/USB_DM*%
X167790000Y-75010000D02*
X166820000Y-75010000D01*
X166820000Y-75010000D02*
X166630000Y-75200000D01*
X166630000Y-75200000D02*
X166630000Y-75800000D01*
X166630000Y-75800000D02*
X166840000Y-76010000D01*
X166840000Y-76010000D02*
X167790000Y-76010000D01*
%TO.N,Net-(JP1-A)*%
X167780000Y-78150000D02*
X167220000Y-78150000D01*
X165900000Y-76830000D02*
X165900000Y-74650000D01*
X165900000Y-74650000D02*
X167190000Y-73360000D01*
X167190000Y-73360000D02*
X167790000Y-73360000D01*
D33*
%TO.N,/CANH*%
X208450000Y-78640000D02*
X213770000Y-73320000D01*
%TD*%
M02*
