%TF.GenerationSoftware,KiCad,Pcbnew,7.0.0-da2b9df05c~171~ubuntu22.04.1*%
%TF.CreationDate,2023-03-05T16:33:25-08:00*%
%TF.ProjectId,UsbCanAdapter,55736243-616e-4416-9461-707465722e6b,rev?*%
%TF.SameCoordinates,Original*%
%TF.FileFunction,Legend,Top*%
%TF.FilePolarity,Positive*%
%FSLAX46Y46*%
G04 Gerber Fmt 4.6, Leading zero omitted, Abs format (unit mm)*
G04 Created by KiCad (PCBNEW 7.0.0-da2b9df05c~171~ubuntu22.04.1) date 2023-03-05 16:33:25*
%MOMM*%
%LPD*%
G01*
G04 APERTURE LIST*
%ADD10C,0.300000*%
%ADD11C,0.150000*%
%ADD12C,0.100000*%
%ADD13C,0.120000*%
G04 APERTURE END LIST*
D10*
X162364285Y-84113571D02*
X161864285Y-83399285D01*
X161507142Y-84113571D02*
X161507142Y-82613571D01*
X161507142Y-82613571D02*
X162078571Y-82613571D01*
X162078571Y-82613571D02*
X162221428Y-82685000D01*
X162221428Y-82685000D02*
X162292857Y-82756428D01*
X162292857Y-82756428D02*
X162364285Y-82899285D01*
X162364285Y-82899285D02*
X162364285Y-83113571D01*
X162364285Y-83113571D02*
X162292857Y-83256428D01*
X162292857Y-83256428D02*
X162221428Y-83327857D01*
X162221428Y-83327857D02*
X162078571Y-83399285D01*
X162078571Y-83399285D02*
X161507142Y-83399285D01*
X163435714Y-82613571D02*
X163435714Y-83685000D01*
X163435714Y-83685000D02*
X163364285Y-83899285D01*
X163364285Y-83899285D02*
X163221428Y-84042142D01*
X163221428Y-84042142D02*
X163007142Y-84113571D01*
X163007142Y-84113571D02*
X162864285Y-84113571D01*
X164149999Y-84113571D02*
X164149999Y-82613571D01*
X164149999Y-82613571D02*
X164649999Y-83685000D01*
X164649999Y-83685000D02*
X165149999Y-82613571D01*
X165149999Y-82613571D02*
X165149999Y-84113571D01*
X165864285Y-84113571D02*
X165864285Y-82613571D01*
X165864285Y-82613571D02*
X166435714Y-82613571D01*
X166435714Y-82613571D02*
X166578571Y-82685000D01*
X166578571Y-82685000D02*
X166650000Y-82756428D01*
X166650000Y-82756428D02*
X166721428Y-82899285D01*
X166721428Y-82899285D02*
X166721428Y-83113571D01*
X166721428Y-83113571D02*
X166650000Y-83256428D01*
X166650000Y-83256428D02*
X166578571Y-83327857D01*
X166578571Y-83327857D02*
X166435714Y-83399285D01*
X166435714Y-83399285D02*
X165864285Y-83399285D01*
D11*
G36*
X176346418Y-69533436D02*
G01*
X176418360Y-69605378D01*
X176452619Y-69673894D01*
X176452619Y-69828960D01*
X176418360Y-69897478D01*
X176346418Y-69969419D01*
X176185051Y-70009761D01*
X175870186Y-70009761D01*
X175708819Y-69969419D01*
X175636876Y-69897476D01*
X175602619Y-69828961D01*
X175602619Y-69673896D01*
X175636878Y-69605378D01*
X175708819Y-69533436D01*
X175870186Y-69493095D01*
X176185050Y-69493095D01*
X176346418Y-69533436D01*
G37*
G36*
X176346418Y-68485817D02*
G01*
X176418360Y-68557759D01*
X176452619Y-68626275D01*
X176452619Y-68781341D01*
X176418360Y-68849859D01*
X176346418Y-68921800D01*
X176185051Y-68962142D01*
X175870186Y-68962142D01*
X175708819Y-68921800D01*
X175636876Y-68849857D01*
X175602619Y-68781342D01*
X175602619Y-68626277D01*
X175636878Y-68557759D01*
X175708819Y-68485817D01*
X175870186Y-68445476D01*
X176185050Y-68445476D01*
X176346418Y-68485817D01*
G37*
G36*
X175976428Y-67739258D02*
G01*
X175938256Y-67853771D01*
X175911762Y-67880265D01*
X175843247Y-67914523D01*
X175735801Y-67914523D01*
X175667283Y-67880264D01*
X175636876Y-67849857D01*
X175602619Y-67781342D01*
X175602619Y-67493095D01*
X175976428Y-67493095D01*
X175976428Y-67739258D01*
G37*
G36*
X176452619Y-67733722D02*
G01*
X176418360Y-67802239D01*
X176387951Y-67832647D01*
X176319437Y-67866904D01*
X176259610Y-67866904D01*
X176191092Y-67832645D01*
X176160685Y-67802238D01*
X176127070Y-67735007D01*
X176127174Y-67732131D01*
X176126428Y-67730872D01*
X176126428Y-67493095D01*
X176452619Y-67493095D01*
X176452619Y-67733722D01*
G37*
G36*
X177052857Y-71580000D02*
G01*
X174942143Y-71580000D01*
X174942143Y-70667314D01*
X175450249Y-70667314D01*
X175468545Y-70707378D01*
X175505597Y-70731190D01*
X176452619Y-70731190D01*
X176452619Y-70952686D01*
X176461862Y-70984164D01*
X176495148Y-71013006D01*
X176538743Y-71019274D01*
X176578807Y-71000978D01*
X176602619Y-70963926D01*
X176602619Y-70661550D01*
X176604989Y-70645066D01*
X176602619Y-70639876D01*
X176602619Y-70359694D01*
X176593376Y-70328216D01*
X176560090Y-70299374D01*
X176516495Y-70293106D01*
X176476431Y-70311402D01*
X176452619Y-70348454D01*
X176452619Y-70581190D01*
X175516837Y-70581190D01*
X175485359Y-70590433D01*
X175456517Y-70623719D01*
X175450249Y-70667314D01*
X174942143Y-70667314D01*
X174942143Y-69664581D01*
X175449905Y-69664581D01*
X175452619Y-69671125D01*
X175452619Y-69842626D01*
X175450688Y-69860510D01*
X175457544Y-69874223D01*
X175461862Y-69888926D01*
X175467215Y-69893564D01*
X175503950Y-69967033D01*
X175506633Y-69979365D01*
X175521260Y-69993992D01*
X175535322Y-70009110D01*
X175536740Y-70009472D01*
X175616622Y-70089354D01*
X175630921Y-70104562D01*
X175642967Y-70107573D01*
X175653861Y-70113522D01*
X175663890Y-70112804D01*
X175830788Y-70154528D01*
X175838930Y-70159761D01*
X175851718Y-70159761D01*
X175853222Y-70160137D01*
X175862468Y-70159761D01*
X176181942Y-70159761D01*
X176191111Y-70162863D01*
X176203519Y-70159761D01*
X176205067Y-70159761D01*
X176213936Y-70157156D01*
X176401842Y-70110180D01*
X176422222Y-70105747D01*
X176431002Y-70096966D01*
X176441707Y-70090686D01*
X176446251Y-70081717D01*
X176526383Y-70001586D01*
X176537234Y-69995142D01*
X176546484Y-69976640D01*
X176556380Y-69958519D01*
X176556275Y-69957058D01*
X176592897Y-69883814D01*
X176602619Y-69868688D01*
X176602619Y-69853358D01*
X176605333Y-69838275D01*
X176602619Y-69831731D01*
X176602619Y-69660221D01*
X176604549Y-69642346D01*
X176597694Y-69628636D01*
X176593376Y-69613930D01*
X176588021Y-69609290D01*
X176551287Y-69535821D01*
X176548605Y-69523491D01*
X176533987Y-69508873D01*
X176519916Y-69493746D01*
X176518496Y-69493383D01*
X176438604Y-69413491D01*
X176424315Y-69398294D01*
X176412269Y-69395282D01*
X176401375Y-69389334D01*
X176391345Y-69390051D01*
X176224448Y-69348327D01*
X176216307Y-69343095D01*
X176203519Y-69343095D01*
X176202015Y-69342719D01*
X176192769Y-69343095D01*
X175873295Y-69343095D01*
X175864126Y-69339993D01*
X175851718Y-69343095D01*
X175850170Y-69343095D01*
X175841300Y-69345699D01*
X175653397Y-69392675D01*
X175633015Y-69397109D01*
X175624235Y-69405888D01*
X175613529Y-69412170D01*
X175608983Y-69421140D01*
X175528853Y-69501270D01*
X175518004Y-69507714D01*
X175508753Y-69526214D01*
X175498858Y-69544337D01*
X175498962Y-69545797D01*
X175462342Y-69619038D01*
X175452619Y-69634168D01*
X175452619Y-69649498D01*
X175449905Y-69664581D01*
X174942143Y-69664581D01*
X174942143Y-68616962D01*
X175449905Y-68616962D01*
X175452619Y-68623506D01*
X175452619Y-68795007D01*
X175450688Y-68812891D01*
X175457544Y-68826604D01*
X175461862Y-68841307D01*
X175467215Y-68845945D01*
X175503950Y-68919414D01*
X175506633Y-68931746D01*
X175521260Y-68946373D01*
X175535322Y-68961491D01*
X175536740Y-68961853D01*
X175616622Y-69041735D01*
X175630921Y-69056943D01*
X175642967Y-69059954D01*
X175653861Y-69065903D01*
X175663890Y-69065185D01*
X175830788Y-69106909D01*
X175838930Y-69112142D01*
X175851718Y-69112142D01*
X175853222Y-69112518D01*
X175862468Y-69112142D01*
X176181942Y-69112142D01*
X176191111Y-69115244D01*
X176203519Y-69112142D01*
X176205067Y-69112142D01*
X176213936Y-69109537D01*
X176401842Y-69062561D01*
X176422222Y-69058128D01*
X176431002Y-69049347D01*
X176441707Y-69043067D01*
X176446251Y-69034098D01*
X176526383Y-68953967D01*
X176537234Y-68947523D01*
X176546484Y-68929021D01*
X176556380Y-68910900D01*
X176556275Y-68909439D01*
X176592897Y-68836195D01*
X176602619Y-68821069D01*
X176602619Y-68805739D01*
X176605333Y-68790656D01*
X176602619Y-68784112D01*
X176602619Y-68612602D01*
X176604549Y-68594727D01*
X176597694Y-68581017D01*
X176593376Y-68566311D01*
X176588021Y-68561671D01*
X176551287Y-68488202D01*
X176548605Y-68475872D01*
X176533987Y-68461254D01*
X176519916Y-68446127D01*
X176518496Y-68445764D01*
X176438604Y-68365872D01*
X176424315Y-68350675D01*
X176412269Y-68347663D01*
X176401375Y-68341715D01*
X176391345Y-68342432D01*
X176224448Y-68300708D01*
X176216307Y-68295476D01*
X176203519Y-68295476D01*
X176202015Y-68295100D01*
X176192769Y-68295476D01*
X175873295Y-68295476D01*
X175864126Y-68292374D01*
X175851718Y-68295476D01*
X175850170Y-68295476D01*
X175841300Y-68298080D01*
X175653397Y-68345056D01*
X175633015Y-68349490D01*
X175624235Y-68358269D01*
X175613529Y-68364551D01*
X175608983Y-68373521D01*
X175528853Y-68453651D01*
X175518004Y-68460095D01*
X175508753Y-68478595D01*
X175498858Y-68496718D01*
X175498962Y-68498178D01*
X175462342Y-68571419D01*
X175452619Y-68586549D01*
X175452619Y-68601879D01*
X175449905Y-68616962D01*
X174942143Y-68616962D01*
X174942143Y-67429219D01*
X175450249Y-67429219D01*
X175452619Y-67434409D01*
X175452619Y-67795007D01*
X175450688Y-67812891D01*
X175457544Y-67826604D01*
X175461862Y-67841307D01*
X175467215Y-67845945D01*
X175503950Y-67919414D01*
X175506633Y-67931746D01*
X175521260Y-67946373D01*
X175535322Y-67961491D01*
X175536740Y-67961853D01*
X175563175Y-67988288D01*
X175569619Y-67999138D01*
X175588128Y-68008392D01*
X175606242Y-68018283D01*
X175607700Y-68018178D01*
X175680946Y-68054801D01*
X175696073Y-68064523D01*
X175711403Y-68064523D01*
X175726486Y-68067237D01*
X175733030Y-68064523D01*
X175856912Y-68064523D01*
X175874796Y-68066454D01*
X175888509Y-68059597D01*
X175903212Y-68055280D01*
X175907850Y-68049926D01*
X175981319Y-68013191D01*
X175993651Y-68010509D01*
X176008278Y-67995881D01*
X176023396Y-67981820D01*
X176023758Y-67980401D01*
X176053987Y-67950172D01*
X176067996Y-67938894D01*
X176072299Y-67925984D01*
X176086984Y-67940669D01*
X176093428Y-67951519D01*
X176111937Y-67960773D01*
X176130051Y-67970664D01*
X176131509Y-67970559D01*
X176204755Y-68007182D01*
X176219882Y-68016904D01*
X176235212Y-68016904D01*
X176250295Y-68019618D01*
X176256839Y-68016904D01*
X176333102Y-68016904D01*
X176350986Y-68018835D01*
X176364699Y-68011978D01*
X176379402Y-68007661D01*
X176384040Y-68002307D01*
X176457509Y-67965572D01*
X176469840Y-67962890D01*
X176484460Y-67948270D01*
X176499586Y-67934201D01*
X176499948Y-67932782D01*
X176526383Y-67906348D01*
X176537234Y-67899904D01*
X176546489Y-67881392D01*
X176556379Y-67863282D01*
X176556274Y-67861822D01*
X176592897Y-67788576D01*
X176602619Y-67773450D01*
X176602619Y-67758120D01*
X176605333Y-67743037D01*
X176602619Y-67736493D01*
X176602619Y-67423455D01*
X176604989Y-67406971D01*
X176598069Y-67391818D01*
X176593376Y-67375835D01*
X176589063Y-67372098D01*
X176586693Y-67366907D01*
X176572676Y-67357899D01*
X176560090Y-67346993D01*
X176554443Y-67346181D01*
X176549641Y-67343095D01*
X176532979Y-67343095D01*
X176516495Y-67340725D01*
X176511305Y-67343095D01*
X176056788Y-67343095D01*
X176040304Y-67340725D01*
X176035114Y-67343095D01*
X175532979Y-67343095D01*
X175516495Y-67340725D01*
X175501342Y-67347644D01*
X175485359Y-67352338D01*
X175481622Y-67356650D01*
X175476431Y-67359021D01*
X175467423Y-67373037D01*
X175456517Y-67385624D01*
X175455705Y-67391270D01*
X175452619Y-67396073D01*
X175452619Y-67412735D01*
X175450249Y-67429219D01*
X174942143Y-67429219D01*
X174942143Y-66812143D01*
X177052857Y-66812143D01*
X177052857Y-71580000D01*
G37*
G36*
X185292857Y-73897143D02*
G01*
X183182143Y-73897143D01*
X183182143Y-72554585D01*
X183690072Y-72554585D01*
X183707693Y-72594950D01*
X184132410Y-72878095D01*
X183717045Y-73155005D01*
X183695981Y-73180156D01*
X183690447Y-73223851D01*
X183709414Y-73263601D01*
X183746860Y-73286787D01*
X183790898Y-73286047D01*
X184267618Y-72968233D01*
X184734988Y-73279813D01*
X184766306Y-73289583D01*
X184808768Y-73277886D01*
X184838165Y-73245089D01*
X184845165Y-73201605D01*
X184827545Y-73161240D01*
X184402827Y-72878094D01*
X184818193Y-72601185D01*
X184839257Y-72576034D01*
X184844791Y-72532339D01*
X184825824Y-72492589D01*
X184788378Y-72469403D01*
X184744340Y-72470143D01*
X184267619Y-72787956D01*
X183800250Y-72476377D01*
X183768932Y-72466607D01*
X183726470Y-72478304D01*
X183697073Y-72511101D01*
X183690072Y-72554585D01*
X183182143Y-72554585D01*
X183182143Y-72032076D01*
X183690249Y-72032076D01*
X183708545Y-72072140D01*
X183745597Y-72095952D01*
X184692619Y-72095952D01*
X184692619Y-72317448D01*
X184701862Y-72348926D01*
X184735148Y-72377768D01*
X184778743Y-72384036D01*
X184818807Y-72365740D01*
X184842619Y-72328688D01*
X184842619Y-72026312D01*
X184844989Y-72009828D01*
X184842619Y-72004638D01*
X184842619Y-71724456D01*
X184833376Y-71692978D01*
X184800090Y-71664136D01*
X184756495Y-71657868D01*
X184716431Y-71676164D01*
X184692619Y-71713216D01*
X184692619Y-71945952D01*
X183756837Y-71945952D01*
X183725359Y-71955195D01*
X183696517Y-71988481D01*
X183690249Y-72032076D01*
X183182143Y-72032076D01*
X183182143Y-71272143D01*
X185292857Y-71272143D01*
X185292857Y-73897143D01*
G37*
G36*
X184692619Y-68191341D02*
G01*
X184658360Y-68259858D01*
X184627951Y-68290266D01*
X184559437Y-68324523D01*
X184451991Y-68324523D01*
X184383473Y-68290264D01*
X184353066Y-68259857D01*
X184318809Y-68191342D01*
X184318809Y-68070062D01*
X184320679Y-68052017D01*
X184318809Y-68048317D01*
X184318809Y-67903095D01*
X184692619Y-67903095D01*
X184692619Y-68191341D01*
G37*
G36*
X185292857Y-70085238D02*
G01*
X183182143Y-70085238D01*
X183182143Y-68742680D01*
X183690072Y-68742680D01*
X183707693Y-68783045D01*
X184132410Y-69066190D01*
X183717045Y-69343100D01*
X183695981Y-69368251D01*
X183690447Y-69411946D01*
X183709414Y-69451696D01*
X183746860Y-69474882D01*
X183790898Y-69474142D01*
X184267618Y-69156328D01*
X184734988Y-69467908D01*
X184766306Y-69477678D01*
X184808768Y-69465981D01*
X184838165Y-69433184D01*
X184845165Y-69389700D01*
X184827545Y-69349335D01*
X184402827Y-69066189D01*
X184818193Y-68789280D01*
X184839257Y-68764129D01*
X184844791Y-68720434D01*
X184825824Y-68680684D01*
X184788378Y-68657498D01*
X184744340Y-68658238D01*
X184267619Y-68976051D01*
X183800250Y-68664472D01*
X183768932Y-68654702D01*
X183726470Y-68666399D01*
X183697073Y-68699196D01*
X183690072Y-68742680D01*
X183182143Y-68742680D01*
X183182143Y-67839219D01*
X183690249Y-67839219D01*
X183708545Y-67879283D01*
X183745597Y-67903095D01*
X184168809Y-67903095D01*
X184168809Y-68027141D01*
X183715776Y-68344264D01*
X183695289Y-68369887D01*
X183690749Y-68413696D01*
X183710614Y-68453005D01*
X183748578Y-68475335D01*
X183792588Y-68473594D01*
X184168197Y-68210666D01*
X184166878Y-68222891D01*
X184173734Y-68236604D01*
X184178052Y-68251307D01*
X184183405Y-68255945D01*
X184220140Y-68329414D01*
X184222823Y-68341746D01*
X184237450Y-68356373D01*
X184251512Y-68371491D01*
X184252930Y-68371853D01*
X184279365Y-68398288D01*
X184285809Y-68409138D01*
X184304318Y-68418392D01*
X184322432Y-68428283D01*
X184323890Y-68428178D01*
X184397136Y-68464801D01*
X184412263Y-68474523D01*
X184427593Y-68474523D01*
X184442676Y-68477237D01*
X184449220Y-68474523D01*
X184573102Y-68474523D01*
X184590986Y-68476454D01*
X184604699Y-68469597D01*
X184619402Y-68465280D01*
X184624040Y-68459926D01*
X184697509Y-68423191D01*
X184709840Y-68420509D01*
X184724460Y-68405889D01*
X184739586Y-68391820D01*
X184739948Y-68390401D01*
X184766383Y-68363967D01*
X184777234Y-68357523D01*
X184786489Y-68339011D01*
X184796379Y-68320901D01*
X184796274Y-68319441D01*
X184832897Y-68246195D01*
X184842619Y-68231069D01*
X184842619Y-68215739D01*
X184845333Y-68200656D01*
X184842619Y-68194112D01*
X184842619Y-67833455D01*
X184844989Y-67816971D01*
X184838069Y-67801818D01*
X184833376Y-67785835D01*
X184829063Y-67782098D01*
X184826693Y-67776907D01*
X184812676Y-67767899D01*
X184800090Y-67756993D01*
X184794443Y-67756181D01*
X184789641Y-67753095D01*
X184772979Y-67753095D01*
X184756495Y-67750725D01*
X184751305Y-67753095D01*
X184249169Y-67753095D01*
X184232685Y-67750725D01*
X184227495Y-67753095D01*
X183756837Y-67753095D01*
X183725359Y-67762338D01*
X183696517Y-67795624D01*
X183690249Y-67839219D01*
X183182143Y-67839219D01*
X183182143Y-67222143D01*
X185292857Y-67222143D01*
X185292857Y-70085238D01*
G37*
G36*
X209032381Y-69297857D02*
G01*
X206312143Y-69297857D01*
X206312143Y-68611566D01*
X206792509Y-68611566D01*
X206801871Y-68654603D01*
X206858413Y-68711145D01*
X206864857Y-68721995D01*
X206883366Y-68731249D01*
X206901480Y-68741140D01*
X206902938Y-68741035D01*
X206976184Y-68777658D01*
X206991311Y-68787380D01*
X207006641Y-68787380D01*
X207021724Y-68790094D01*
X207028268Y-68787380D01*
X207247388Y-68787380D01*
X207265272Y-68789311D01*
X207278985Y-68782454D01*
X207293688Y-68778137D01*
X207298326Y-68772783D01*
X207371795Y-68736048D01*
X207384127Y-68733366D01*
X207398754Y-68718738D01*
X207413872Y-68704677D01*
X207414234Y-68703258D01*
X207440669Y-68676823D01*
X207451519Y-68670380D01*
X207460773Y-68651870D01*
X207470664Y-68633757D01*
X207470559Y-68632298D01*
X207507182Y-68559052D01*
X207516904Y-68543926D01*
X207516904Y-68528596D01*
X207519618Y-68513513D01*
X207516904Y-68506969D01*
X207516904Y-68287840D01*
X207518834Y-68269965D01*
X207511979Y-68256255D01*
X207507661Y-68241549D01*
X207502306Y-68236909D01*
X207465572Y-68163440D01*
X207462890Y-68151110D01*
X207448270Y-68136490D01*
X207434201Y-68121365D01*
X207432782Y-68121002D01*
X207406347Y-68094567D01*
X207399904Y-68083718D01*
X207381403Y-68074467D01*
X207363281Y-68064572D01*
X207361820Y-68064676D01*
X207288579Y-68028056D01*
X207273450Y-68018333D01*
X207258120Y-68018333D01*
X207243037Y-68015619D01*
X207236493Y-68018333D01*
X207017364Y-68018333D01*
X206999489Y-68016403D01*
X206985779Y-68023257D01*
X206971073Y-68027576D01*
X206966433Y-68032930D01*
X206961150Y-68035572D01*
X206985969Y-67787380D01*
X207405067Y-67787380D01*
X207436545Y-67778137D01*
X207465387Y-67744851D01*
X207469649Y-67715205D01*
X207649504Y-67715205D01*
X207985511Y-68723229D01*
X207985206Y-68731677D01*
X207992338Y-68743710D01*
X207993210Y-68746325D01*
X207997818Y-68752956D01*
X208007663Y-68769565D01*
X208010269Y-68770871D01*
X208011933Y-68773265D01*
X208029775Y-68780645D01*
X208047039Y-68789297D01*
X208049938Y-68788986D01*
X208052632Y-68790101D01*
X208071619Y-68786666D01*
X208090832Y-68784610D01*
X208093105Y-68782779D01*
X208095972Y-68782261D01*
X208110090Y-68769104D01*
X208125139Y-68756989D01*
X208126061Y-68754222D01*
X208128194Y-68752235D01*
X208132960Y-68733524D01*
X208468846Y-67725869D01*
X208470031Y-67693083D01*
X208447574Y-67655195D01*
X208408198Y-67635463D01*
X208364404Y-67640151D01*
X208330098Y-67667771D01*
X208060952Y-68475208D01*
X207795361Y-67678434D01*
X207776638Y-67651494D01*
X207735939Y-67634658D01*
X207692599Y-67642498D01*
X207660377Y-67672525D01*
X207649504Y-67715205D01*
X207469649Y-67715205D01*
X207471655Y-67701256D01*
X207453359Y-67661192D01*
X207416307Y-67637380D01*
X206927230Y-67637380D01*
X206914725Y-67634287D01*
X206895413Y-67640873D01*
X206875835Y-67646623D01*
X206874691Y-67647942D01*
X206873039Y-67648506D01*
X206860347Y-67664497D01*
X206846993Y-67679909D01*
X206846744Y-67681635D01*
X206845658Y-67683005D01*
X206843625Y-67703331D01*
X206840725Y-67723504D01*
X206841449Y-67725090D01*
X206797361Y-68165976D01*
X206794096Y-68171956D01*
X206795208Y-68187503D01*
X206794775Y-68191837D01*
X206795974Y-68198213D01*
X206797239Y-68215887D01*
X206799990Y-68219562D01*
X206800840Y-68224078D01*
X206813013Y-68236959D01*
X206823633Y-68251146D01*
X206827936Y-68252751D01*
X206831091Y-68256089D01*
X206848292Y-68260343D01*
X206864900Y-68266538D01*
X206869388Y-68265561D01*
X206873846Y-68266664D01*
X206890615Y-68260944D01*
X206907937Y-68257176D01*
X206911185Y-68253927D01*
X206915532Y-68252445D01*
X206926549Y-68238563D01*
X206962521Y-68202591D01*
X207031037Y-68168333D01*
X207233722Y-68168333D01*
X207302240Y-68202592D01*
X207332645Y-68232997D01*
X207366904Y-68301513D01*
X207366904Y-68504198D01*
X207332645Y-68572715D01*
X207302238Y-68603122D01*
X207233723Y-68637380D01*
X207031039Y-68637380D01*
X206962521Y-68603121D01*
X206915885Y-68556485D01*
X206887091Y-68540762D01*
X206843160Y-68543905D01*
X206807901Y-68570299D01*
X206792509Y-68611566D01*
X206312143Y-68611566D01*
X206312143Y-67187143D01*
X209032381Y-67187143D01*
X209032381Y-69297857D01*
G37*
G36*
X209012857Y-85007857D02*
G01*
X207102143Y-85007857D01*
X207102143Y-83990635D01*
X207582374Y-83990635D01*
X207585476Y-84003043D01*
X207585476Y-84004591D01*
X207588080Y-84013460D01*
X207632094Y-84189515D01*
X207631164Y-84198129D01*
X207637330Y-84210462D01*
X207637949Y-84212935D01*
X207642131Y-84220062D01*
X207684426Y-84304652D01*
X207687109Y-84316984D01*
X207701736Y-84331611D01*
X207715798Y-84346729D01*
X207717216Y-84347091D01*
X207795064Y-84424939D01*
X207806343Y-84438948D01*
X207820884Y-84443795D01*
X207834337Y-84451141D01*
X207841404Y-84450635D01*
X207961172Y-84490558D01*
X207971787Y-84497380D01*
X207992466Y-84497380D01*
X208013106Y-84498126D01*
X208014365Y-84497380D01*
X208079645Y-84497380D01*
X208091872Y-84500495D01*
X208111484Y-84493957D01*
X208131307Y-84488137D01*
X208132265Y-84487030D01*
X208251791Y-84447188D01*
X208269365Y-84443366D01*
X208280205Y-84432525D01*
X208292789Y-84423780D01*
X208295496Y-84417234D01*
X208322988Y-84389742D01*
X208330711Y-84386216D01*
X208338257Y-84374473D01*
X208340180Y-84372551D01*
X208344061Y-84365442D01*
X208354523Y-84349164D01*
X208354523Y-84346283D01*
X208355902Y-84343757D01*
X208354523Y-84324476D01*
X208354523Y-83999169D01*
X208356893Y-83982685D01*
X208349973Y-83967532D01*
X208345280Y-83951549D01*
X208340967Y-83947812D01*
X208338597Y-83942621D01*
X208324580Y-83933613D01*
X208311994Y-83922707D01*
X208306347Y-83921895D01*
X208301545Y-83918809D01*
X208284883Y-83918809D01*
X208268399Y-83916439D01*
X208263209Y-83918809D01*
X208078265Y-83918809D01*
X208046787Y-83928052D01*
X208017945Y-83961338D01*
X208011677Y-84004933D01*
X208029973Y-84044997D01*
X208067025Y-84068809D01*
X208204523Y-84068809D01*
X208204523Y-84296076D01*
X208191390Y-84309208D01*
X208076875Y-84347380D01*
X208005979Y-84347380D01*
X207891465Y-84309208D01*
X207817352Y-84235095D01*
X207778859Y-84158109D01*
X207735476Y-83984575D01*
X207735476Y-83860187D01*
X207778859Y-83686653D01*
X207817354Y-83609664D01*
X207891466Y-83535551D01*
X208005979Y-83497380D01*
X208118960Y-83497380D01*
X208208006Y-83541904D01*
X208240295Y-83547714D01*
X208280978Y-83530841D01*
X208306081Y-83494652D01*
X208307634Y-83450635D01*
X208285143Y-83412767D01*
X208173815Y-83357101D01*
X208158688Y-83347380D01*
X208143359Y-83347380D01*
X208128276Y-83344666D01*
X208121732Y-83347380D01*
X208003211Y-83347380D01*
X207990984Y-83344265D01*
X207971376Y-83350800D01*
X207951549Y-83356623D01*
X207950589Y-83357730D01*
X207831069Y-83397571D01*
X207813491Y-83401395D01*
X207802649Y-83412236D01*
X207790066Y-83420982D01*
X207787358Y-83427527D01*
X207709329Y-83505556D01*
X207698480Y-83512000D01*
X207689229Y-83530500D01*
X207679334Y-83548623D01*
X207679438Y-83550083D01*
X207646986Y-83614987D01*
X207640675Y-83620922D01*
X207637330Y-83634299D01*
X207636191Y-83636579D01*
X207634727Y-83644711D01*
X207590708Y-83820788D01*
X207585476Y-83828930D01*
X207585476Y-83841718D01*
X207585100Y-83843222D01*
X207585476Y-83852468D01*
X207585476Y-83981466D01*
X207582374Y-83990635D01*
X207102143Y-83990635D01*
X207102143Y-82897143D01*
X209012857Y-82897143D01*
X209012857Y-85007857D01*
G37*
G36*
X209022381Y-79677857D02*
G01*
X207302143Y-79677857D01*
X207302143Y-79103504D01*
X207830725Y-79103504D01*
X207837644Y-79118656D01*
X207842338Y-79134640D01*
X207846650Y-79138376D01*
X207849021Y-79143568D01*
X207863037Y-79152575D01*
X207875624Y-79163482D01*
X207881270Y-79164293D01*
X207886073Y-79167380D01*
X207902735Y-79167380D01*
X207919219Y-79169750D01*
X207924409Y-79167380D01*
X208395067Y-79167380D01*
X208426545Y-79158137D01*
X208455387Y-79124851D01*
X208461655Y-79081256D01*
X208443359Y-79041192D01*
X208406307Y-79017380D01*
X207983095Y-79017380D01*
X207983095Y-78081598D01*
X207973852Y-78050120D01*
X207940566Y-78021278D01*
X207896971Y-78015010D01*
X207856907Y-78033306D01*
X207833095Y-78070358D01*
X207833095Y-79087020D01*
X207830725Y-79103504D01*
X207302143Y-79103504D01*
X207302143Y-77567143D01*
X209022381Y-77567143D01*
X209022381Y-79677857D01*
G37*
G36*
X209030476Y-74517857D02*
G01*
X207072143Y-74517857D01*
X207072143Y-73419695D01*
X207600725Y-73419695D01*
X207603095Y-73424885D01*
X207603095Y-73943162D01*
X207612338Y-73974640D01*
X207645624Y-74003482D01*
X207689219Y-74009750D01*
X207729283Y-73991454D01*
X207753095Y-73954402D01*
X207753095Y-73483571D01*
X208174523Y-73483571D01*
X208174523Y-73943162D01*
X208183766Y-73974640D01*
X208217052Y-74003482D01*
X208260647Y-74009750D01*
X208300711Y-73991454D01*
X208324523Y-73954402D01*
X208324523Y-73413931D01*
X208326893Y-73397447D01*
X208324523Y-73392257D01*
X208324523Y-72921598D01*
X208315280Y-72890120D01*
X208281994Y-72861278D01*
X208238399Y-72855010D01*
X208198335Y-72873306D01*
X208174523Y-72910358D01*
X208174523Y-73333571D01*
X207753095Y-73333571D01*
X207753095Y-72921598D01*
X207743852Y-72890120D01*
X207710566Y-72861278D01*
X207666971Y-72855010D01*
X207626907Y-72873306D01*
X207603095Y-72910358D01*
X207603095Y-73403211D01*
X207600725Y-73419695D01*
X207072143Y-73419695D01*
X207072143Y-72407143D01*
X209030476Y-72407143D01*
X209030476Y-74517857D01*
G37*
G36*
X204936526Y-74493068D02*
G01*
X204966931Y-74523473D01*
X205001190Y-74591989D01*
X205001190Y-74713270D01*
X204999320Y-74731315D01*
X205001190Y-74735015D01*
X205001190Y-74880237D01*
X204627380Y-74880237D01*
X204627380Y-74591991D01*
X204661639Y-74523473D01*
X204692045Y-74493067D01*
X204760561Y-74458809D01*
X204868008Y-74458809D01*
X204936526Y-74493068D01*
G37*
G36*
X206137857Y-77227857D02*
G01*
X204027143Y-77227857D01*
X204027143Y-76490171D01*
X204475010Y-76490171D01*
X204477380Y-76495361D01*
X204477380Y-76775543D01*
X204486623Y-76807021D01*
X204519909Y-76835863D01*
X204563504Y-76842131D01*
X204603568Y-76823835D01*
X204627380Y-76786783D01*
X204627380Y-76554047D01*
X205563162Y-76554047D01*
X205594640Y-76544804D01*
X205623482Y-76511518D01*
X205629750Y-76467923D01*
X205611454Y-76427859D01*
X205574402Y-76404047D01*
X204627380Y-76404047D01*
X204627380Y-76182551D01*
X204618137Y-76151073D01*
X204584851Y-76122231D01*
X204541256Y-76115963D01*
X204501192Y-76134259D01*
X204477380Y-76171311D01*
X204477380Y-76473687D01*
X204475010Y-76490171D01*
X204027143Y-76490171D01*
X204027143Y-75871123D01*
X204475010Y-75871123D01*
X204481929Y-75886275D01*
X204486623Y-75902259D01*
X204490935Y-75905995D01*
X204493306Y-75911187D01*
X204507322Y-75920194D01*
X204519909Y-75931101D01*
X204525555Y-75931912D01*
X204530358Y-75934999D01*
X204547020Y-75934999D01*
X204563504Y-75937369D01*
X204568694Y-75934999D01*
X205023211Y-75934999D01*
X205039695Y-75937369D01*
X205044885Y-75934999D01*
X205547020Y-75934999D01*
X205563504Y-75937369D01*
X205578656Y-75930449D01*
X205594640Y-75925756D01*
X205598376Y-75921443D01*
X205603568Y-75919073D01*
X205612575Y-75905056D01*
X205623482Y-75892470D01*
X205624293Y-75886823D01*
X205627380Y-75882021D01*
X205627380Y-75865359D01*
X205629750Y-75848875D01*
X205627380Y-75843685D01*
X205627380Y-75373027D01*
X205618137Y-75341549D01*
X205584851Y-75312707D01*
X205541256Y-75306439D01*
X205501192Y-75324735D01*
X205477380Y-75361787D01*
X205477380Y-75784999D01*
X205103571Y-75784999D01*
X205103571Y-75515884D01*
X205094328Y-75484406D01*
X205061042Y-75455564D01*
X205017447Y-75449296D01*
X204977383Y-75467592D01*
X204953571Y-75504644D01*
X204953571Y-75784999D01*
X204627380Y-75784999D01*
X204627380Y-75373027D01*
X204618137Y-75341549D01*
X204584851Y-75312707D01*
X204541256Y-75306439D01*
X204501192Y-75324735D01*
X204477380Y-75361787D01*
X204477380Y-75854639D01*
X204475010Y-75871123D01*
X204027143Y-75871123D01*
X204027143Y-74582675D01*
X204474666Y-74582675D01*
X204477380Y-74589219D01*
X204477380Y-74949877D01*
X204475010Y-74966361D01*
X204481929Y-74981513D01*
X204486623Y-74997497D01*
X204490935Y-75001233D01*
X204493306Y-75006425D01*
X204507322Y-75015432D01*
X204519909Y-75026339D01*
X204525555Y-75027150D01*
X204530358Y-75030237D01*
X204547020Y-75030237D01*
X204563504Y-75032607D01*
X204568694Y-75030237D01*
X205070830Y-75030237D01*
X205087314Y-75032607D01*
X205092504Y-75030237D01*
X205563162Y-75030237D01*
X205594640Y-75020994D01*
X205623482Y-74987708D01*
X205629750Y-74944113D01*
X205611454Y-74904049D01*
X205574402Y-74880237D01*
X205151190Y-74880237D01*
X205151190Y-74756191D01*
X205604223Y-74439068D01*
X205624710Y-74413445D01*
X205629250Y-74369636D01*
X205609385Y-74330327D01*
X205571421Y-74307997D01*
X205527411Y-74309738D01*
X205151800Y-74572665D01*
X205153120Y-74560441D01*
X205146265Y-74546731D01*
X205141947Y-74532025D01*
X205136592Y-74527385D01*
X205099858Y-74453916D01*
X205097176Y-74441586D01*
X205082556Y-74426966D01*
X205068487Y-74411841D01*
X205067068Y-74411478D01*
X205040633Y-74385043D01*
X205034190Y-74374194D01*
X205015689Y-74364943D01*
X204997567Y-74355048D01*
X204996106Y-74355152D01*
X204922865Y-74318532D01*
X204907736Y-74308809D01*
X204892406Y-74308809D01*
X204877323Y-74306095D01*
X204870779Y-74308809D01*
X204746888Y-74308809D01*
X204729013Y-74306879D01*
X204715303Y-74313733D01*
X204700597Y-74318052D01*
X204695957Y-74323406D01*
X204622488Y-74360140D01*
X204610158Y-74362823D01*
X204595538Y-74377442D01*
X204580413Y-74391512D01*
X204580050Y-74392930D01*
X204553617Y-74419363D01*
X204542767Y-74425808D01*
X204533518Y-74444304D01*
X204523620Y-74462432D01*
X204523724Y-74463892D01*
X204487101Y-74537135D01*
X204477380Y-74552263D01*
X204477380Y-74567592D01*
X204474666Y-74582675D01*
X204027143Y-74582675D01*
X204027143Y-73955880D01*
X204474217Y-73955880D01*
X204475776Y-73961032D01*
X204475010Y-73966361D01*
X204482059Y-73981797D01*
X204486973Y-73998036D01*
X204491069Y-74001526D01*
X204493306Y-74006425D01*
X204507583Y-74015600D01*
X204520495Y-74026604D01*
X204525828Y-74027326D01*
X204530358Y-74030237D01*
X204547324Y-74030237D01*
X204564140Y-74032514D01*
X204569019Y-74030237D01*
X205563162Y-74030237D01*
X205594640Y-74020994D01*
X205623482Y-73987708D01*
X205629750Y-73944113D01*
X205611454Y-73904049D01*
X205574402Y-73880237D01*
X204890448Y-73880237D01*
X205297833Y-73690123D01*
X205317366Y-73681397D01*
X205323864Y-73671466D01*
X205332769Y-73663621D01*
X205335673Y-73653418D01*
X205341482Y-73644542D01*
X205341579Y-73632673D01*
X205344829Y-73621261D01*
X205341757Y-73611109D01*
X205341845Y-73600500D01*
X205335510Y-73590462D01*
X205332074Y-73579105D01*
X205324001Y-73572225D01*
X205318339Y-73563253D01*
X205307583Y-73558233D01*
X205298552Y-73550537D01*
X205288040Y-73549113D01*
X204890448Y-73363571D01*
X205563162Y-73363571D01*
X205594640Y-73354328D01*
X205623482Y-73321042D01*
X205629750Y-73277447D01*
X205611454Y-73237383D01*
X205574402Y-73213571D01*
X204558050Y-73213571D01*
X204541892Y-73211112D01*
X204526399Y-73218033D01*
X204510120Y-73222814D01*
X204506595Y-73226882D01*
X204501680Y-73229078D01*
X204492388Y-73243277D01*
X204481278Y-73256100D01*
X204480511Y-73261427D01*
X204477564Y-73265933D01*
X204477424Y-73282904D01*
X204475010Y-73299695D01*
X204477245Y-73304589D01*
X204477201Y-73309975D01*
X204486258Y-73324326D01*
X204493306Y-73339759D01*
X204497834Y-73342669D01*
X204500708Y-73347222D01*
X204516083Y-73354397D01*
X204530358Y-73363571D01*
X204535742Y-73363571D01*
X205089312Y-73621903D01*
X204525803Y-73884874D01*
X204510120Y-73889480D01*
X204499009Y-73902302D01*
X204486277Y-73913520D01*
X204484802Y-73918698D01*
X204481278Y-73922766D01*
X204478863Y-73939559D01*
X204474217Y-73955880D01*
X204027143Y-73955880D01*
X204027143Y-72507619D01*
X206137857Y-72507619D01*
X206137857Y-77227857D01*
G37*
G36*
X192656526Y-72219735D02*
G01*
X192686931Y-72250140D01*
X192721190Y-72318656D01*
X192721190Y-72606904D01*
X192347380Y-72606904D01*
X192347380Y-72318658D01*
X192381639Y-72250140D01*
X192412045Y-72219734D01*
X192480561Y-72185476D01*
X192588008Y-72185476D01*
X192656526Y-72219735D01*
G37*
G36*
X192656526Y-70076878D02*
G01*
X192686931Y-70107283D01*
X192721190Y-70175799D01*
X192721190Y-70297080D01*
X192719320Y-70315125D01*
X192721190Y-70318825D01*
X192721190Y-70464047D01*
X192347380Y-70464047D01*
X192347380Y-70175801D01*
X192381639Y-70107283D01*
X192412045Y-70076877D01*
X192480561Y-70042619D01*
X192588008Y-70042619D01*
X192656526Y-70076878D01*
G37*
G36*
X193091179Y-67006770D02*
G01*
X193163121Y-67078712D01*
X193197380Y-67147228D01*
X193197380Y-67302294D01*
X193163121Y-67370811D01*
X193091179Y-67442753D01*
X192929813Y-67483095D01*
X192614948Y-67483095D01*
X192453581Y-67442753D01*
X192381639Y-67370811D01*
X192347380Y-67302294D01*
X192347380Y-67147230D01*
X192381639Y-67078712D01*
X192453581Y-67006770D01*
X192614948Y-66966429D01*
X192929812Y-66966429D01*
X193091179Y-67006770D01*
G37*
G36*
X193857857Y-73287857D02*
G01*
X191747143Y-73287857D01*
X191747143Y-72309342D01*
X192194666Y-72309342D01*
X192197380Y-72315886D01*
X192197380Y-72676544D01*
X192195010Y-72693028D01*
X192201929Y-72708180D01*
X192206623Y-72724164D01*
X192210935Y-72727900D01*
X192213306Y-72733092D01*
X192227322Y-72742099D01*
X192239909Y-72753006D01*
X192245555Y-72753817D01*
X192250358Y-72756904D01*
X192267020Y-72756904D01*
X192283504Y-72759274D01*
X192288694Y-72756904D01*
X192790830Y-72756904D01*
X192807314Y-72759274D01*
X192812504Y-72756904D01*
X193283162Y-72756904D01*
X193314640Y-72747661D01*
X193343482Y-72714375D01*
X193349750Y-72670780D01*
X193331454Y-72630716D01*
X193294402Y-72606904D01*
X192871190Y-72606904D01*
X192871190Y-72304983D01*
X192873120Y-72287108D01*
X192866265Y-72273398D01*
X192861947Y-72258692D01*
X192856592Y-72254052D01*
X192819858Y-72180583D01*
X192817176Y-72168253D01*
X192802556Y-72153633D01*
X192788487Y-72138508D01*
X192787068Y-72138145D01*
X192760633Y-72111710D01*
X192754190Y-72100861D01*
X192735689Y-72091610D01*
X192717567Y-72081715D01*
X192716106Y-72081819D01*
X192642865Y-72045199D01*
X192627736Y-72035476D01*
X192612406Y-72035476D01*
X192597323Y-72032762D01*
X192590779Y-72035476D01*
X192466888Y-72035476D01*
X192449013Y-72033546D01*
X192435303Y-72040400D01*
X192420597Y-72044719D01*
X192415957Y-72050073D01*
X192342488Y-72086807D01*
X192330158Y-72089490D01*
X192315538Y-72104109D01*
X192300413Y-72118179D01*
X192300050Y-72119597D01*
X192273617Y-72146030D01*
X192262767Y-72152475D01*
X192253518Y-72170971D01*
X192243620Y-72189099D01*
X192243724Y-72190559D01*
X192207101Y-72263802D01*
X192197380Y-72278930D01*
X192197380Y-72294259D01*
X192194666Y-72309342D01*
X191747143Y-72309342D01*
X191747143Y-70912901D01*
X192194537Y-70912901D01*
X192203056Y-70956113D01*
X192233585Y-70987860D01*
X192965863Y-71162211D01*
X192547343Y-71273816D01*
X192534205Y-71274145D01*
X192517535Y-71285456D01*
X192500319Y-71295923D01*
X192499433Y-71297740D01*
X192497760Y-71298876D01*
X192489849Y-71317409D01*
X192481027Y-71335517D01*
X192481264Y-71337524D01*
X192480471Y-71339384D01*
X192483837Y-71359257D01*
X192486204Y-71379255D01*
X192487488Y-71380814D01*
X192487826Y-71382809D01*
X192501399Y-71397703D01*
X192514205Y-71413252D01*
X192516130Y-71413870D01*
X192517492Y-71415364D01*
X192536948Y-71420552D01*
X192556141Y-71426713D01*
X192558095Y-71426191D01*
X192965865Y-71534930D01*
X192244520Y-71706679D01*
X192216039Y-71722961D01*
X192195691Y-71762023D01*
X192199691Y-71805884D01*
X192226769Y-71840621D01*
X192268328Y-71855203D01*
X193282108Y-71613827D01*
X193296270Y-71613473D01*
X193312108Y-71602725D01*
X193328722Y-71593228D01*
X193330153Y-71590480D01*
X193332715Y-71588742D01*
X193340225Y-71571143D01*
X193349070Y-71554166D01*
X193348788Y-71551081D01*
X193350004Y-71548234D01*
X193346808Y-71529366D01*
X193345070Y-71510305D01*
X193343166Y-71507862D01*
X193342649Y-71504809D01*
X193329757Y-71490661D01*
X193317991Y-71475568D01*
X193315068Y-71474542D01*
X193312983Y-71472254D01*
X193294494Y-71467323D01*
X193276432Y-71460986D01*
X193273418Y-71461703D01*
X192849173Y-71348570D01*
X193284113Y-71232586D01*
X193298260Y-71231852D01*
X193313802Y-71220684D01*
X193330157Y-71210743D01*
X193331513Y-71207958D01*
X193334028Y-71206152D01*
X193341065Y-71188353D01*
X193349448Y-71171149D01*
X193349084Y-71168074D01*
X193350223Y-71165194D01*
X193346521Y-71146416D01*
X193344272Y-71127411D01*
X193342303Y-71125020D01*
X193341704Y-71121982D01*
X193328436Y-71108184D01*
X193316270Y-71093414D01*
X193313322Y-71092467D01*
X193311175Y-71090235D01*
X193292554Y-71085801D01*
X193274334Y-71079953D01*
X193271341Y-71080750D01*
X192279263Y-70844542D01*
X192246500Y-70846243D01*
X192210732Y-70871943D01*
X192194537Y-70912901D01*
X191747143Y-70912901D01*
X191747143Y-70166485D01*
X192194666Y-70166485D01*
X192197380Y-70173029D01*
X192197380Y-70533687D01*
X192195010Y-70550171D01*
X192201929Y-70565323D01*
X192206623Y-70581307D01*
X192210935Y-70585043D01*
X192213306Y-70590235D01*
X192227322Y-70599242D01*
X192239909Y-70610149D01*
X192245555Y-70610960D01*
X192250358Y-70614047D01*
X192267020Y-70614047D01*
X192283504Y-70616417D01*
X192288694Y-70614047D01*
X192790830Y-70614047D01*
X192807314Y-70616417D01*
X192812504Y-70614047D01*
X193283162Y-70614047D01*
X193314640Y-70604804D01*
X193343482Y-70571518D01*
X193349750Y-70527923D01*
X193331454Y-70487859D01*
X193294402Y-70464047D01*
X192871190Y-70464047D01*
X192871190Y-70340001D01*
X193324223Y-70022878D01*
X193344710Y-69997255D01*
X193349250Y-69953446D01*
X193329385Y-69914137D01*
X193291421Y-69891807D01*
X193247411Y-69893548D01*
X192871800Y-70156475D01*
X192873120Y-70144251D01*
X192866265Y-70130541D01*
X192861947Y-70115835D01*
X192856592Y-70111195D01*
X192819858Y-70037726D01*
X192817176Y-70025396D01*
X192802556Y-70010776D01*
X192788487Y-69995651D01*
X192787068Y-69995288D01*
X192760633Y-69968853D01*
X192754190Y-69958004D01*
X192735689Y-69948753D01*
X192717567Y-69938858D01*
X192716106Y-69938962D01*
X192642865Y-69902342D01*
X192627736Y-69892619D01*
X192612406Y-69892619D01*
X192597323Y-69889905D01*
X192590779Y-69892619D01*
X192466888Y-69892619D01*
X192449013Y-69890689D01*
X192435303Y-69897543D01*
X192420597Y-69901862D01*
X192415957Y-69907216D01*
X192342488Y-69943950D01*
X192330158Y-69946633D01*
X192315538Y-69961252D01*
X192300413Y-69975322D01*
X192300050Y-69976740D01*
X192273617Y-70003173D01*
X192262767Y-70009618D01*
X192253518Y-70028114D01*
X192243620Y-70046242D01*
X192243724Y-70047702D01*
X192207101Y-70120945D01*
X192197380Y-70136073D01*
X192197380Y-70151402D01*
X192194666Y-70166485D01*
X191747143Y-70166485D01*
X191747143Y-68950171D01*
X192195010Y-68950171D01*
X192213306Y-68990235D01*
X192250358Y-69014047D01*
X193283162Y-69014047D01*
X193314640Y-69004804D01*
X193343482Y-68971518D01*
X193349750Y-68927923D01*
X193331454Y-68887859D01*
X193294402Y-68864047D01*
X192261598Y-68864047D01*
X192230120Y-68873290D01*
X192201278Y-68906576D01*
X192195010Y-68950171D01*
X191747143Y-68950171D01*
X191747143Y-68333845D01*
X192195450Y-68333845D01*
X192202305Y-68347555D01*
X192206623Y-68362260D01*
X192211977Y-68366899D01*
X192248712Y-68440368D01*
X192251395Y-68452699D01*
X192266019Y-68467323D01*
X192280085Y-68482444D01*
X192281502Y-68482806D01*
X192307937Y-68509241D01*
X192314381Y-68520091D01*
X192332890Y-68529345D01*
X192351004Y-68539236D01*
X192352462Y-68539131D01*
X192425708Y-68575754D01*
X192440835Y-68585476D01*
X192456165Y-68585476D01*
X192471248Y-68588190D01*
X192477792Y-68585476D01*
X192554055Y-68585476D01*
X192571939Y-68587407D01*
X192585652Y-68580550D01*
X192600355Y-68576233D01*
X192604993Y-68570879D01*
X192678462Y-68534144D01*
X192690794Y-68531462D01*
X192705421Y-68516834D01*
X192720539Y-68502773D01*
X192720901Y-68501354D01*
X192747336Y-68474919D01*
X192758186Y-68468476D01*
X192767440Y-68449966D01*
X192777331Y-68431853D01*
X192777226Y-68430394D01*
X192809679Y-68365489D01*
X192815991Y-68359555D01*
X192819335Y-68346177D01*
X192820475Y-68343898D01*
X192821938Y-68335765D01*
X192866954Y-68155701D01*
X192905449Y-68078712D01*
X192935854Y-68048306D01*
X193004370Y-68014048D01*
X193064198Y-68014048D01*
X193132716Y-68048307D01*
X193163121Y-68078712D01*
X193197380Y-68147228D01*
X193197380Y-68355449D01*
X193150200Y-68496988D01*
X193149015Y-68529773D01*
X193171472Y-68567661D01*
X193210848Y-68587393D01*
X193254641Y-68582706D01*
X193288948Y-68555085D01*
X193340558Y-68400255D01*
X193347380Y-68389641D01*
X193347380Y-68368962D01*
X193348126Y-68348322D01*
X193347380Y-68347063D01*
X193347380Y-68133555D01*
X193349310Y-68115680D01*
X193342455Y-68101970D01*
X193338137Y-68087264D01*
X193332782Y-68082624D01*
X193296048Y-68009155D01*
X193293366Y-67996825D01*
X193278746Y-67982205D01*
X193264677Y-67967080D01*
X193263258Y-67966717D01*
X193236823Y-67940282D01*
X193230380Y-67929433D01*
X193211879Y-67920182D01*
X193193757Y-67910287D01*
X193192296Y-67910391D01*
X193119055Y-67873771D01*
X193103926Y-67864048D01*
X193088596Y-67864048D01*
X193073513Y-67861334D01*
X193066969Y-67864048D01*
X192990697Y-67864048D01*
X192972822Y-67862118D01*
X192959112Y-67868972D01*
X192944406Y-67873291D01*
X192939766Y-67878645D01*
X192866297Y-67915379D01*
X192853967Y-67918062D01*
X192839347Y-67932681D01*
X192824222Y-67946751D01*
X192823859Y-67948169D01*
X192797424Y-67974604D01*
X192786575Y-67981048D01*
X192777324Y-67999548D01*
X192767429Y-68017671D01*
X192767533Y-68019131D01*
X192735081Y-68084035D01*
X192728770Y-68089970D01*
X192725425Y-68103347D01*
X192724286Y-68105627D01*
X192722822Y-68113759D01*
X192677806Y-68293822D01*
X192639312Y-68370811D01*
X192608905Y-68401218D01*
X192540390Y-68435476D01*
X192480563Y-68435476D01*
X192412045Y-68401217D01*
X192381639Y-68370811D01*
X192347380Y-68302294D01*
X192347380Y-68094076D01*
X192394561Y-67952537D01*
X192395747Y-67919751D01*
X192373290Y-67881863D01*
X192333914Y-67862131D01*
X192290120Y-67866818D01*
X192255813Y-67894438D01*
X192204201Y-68049268D01*
X192197380Y-68059883D01*
X192197380Y-68080562D01*
X192196634Y-68101202D01*
X192197380Y-68102461D01*
X192197380Y-68315966D01*
X192195450Y-68333845D01*
X191747143Y-68333845D01*
X191747143Y-67137914D01*
X192194666Y-67137914D01*
X192197380Y-67144458D01*
X192197380Y-67315966D01*
X192195450Y-67333845D01*
X192202305Y-67347555D01*
X192206623Y-67362260D01*
X192211977Y-67366899D01*
X192248712Y-67440368D01*
X192251395Y-67452699D01*
X192266019Y-67467323D01*
X192280085Y-67482444D01*
X192281502Y-67482806D01*
X192361384Y-67562688D01*
X192375683Y-67577896D01*
X192387729Y-67580907D01*
X192398623Y-67586856D01*
X192408652Y-67586138D01*
X192575550Y-67627862D01*
X192583692Y-67633095D01*
X192596480Y-67633095D01*
X192597984Y-67633471D01*
X192607230Y-67633095D01*
X192926704Y-67633095D01*
X192935873Y-67636197D01*
X192948281Y-67633095D01*
X192949829Y-67633095D01*
X192958698Y-67630490D01*
X193146601Y-67583514D01*
X193166984Y-67579081D01*
X193175764Y-67570300D01*
X193186469Y-67564020D01*
X193191013Y-67555051D01*
X193271145Y-67474919D01*
X193281995Y-67468476D01*
X193291245Y-67449974D01*
X193301141Y-67431853D01*
X193301036Y-67430392D01*
X193337658Y-67357148D01*
X193347380Y-67342022D01*
X193347380Y-67326692D01*
X193350094Y-67311609D01*
X193347380Y-67305065D01*
X193347380Y-67133555D01*
X193349310Y-67115680D01*
X193342455Y-67101970D01*
X193338137Y-67087264D01*
X193332782Y-67082624D01*
X193296048Y-67009155D01*
X193293366Y-66996825D01*
X193278746Y-66982205D01*
X193264677Y-66967080D01*
X193263258Y-66966717D01*
X193183367Y-66886826D01*
X193169077Y-66871628D01*
X193157032Y-66868616D01*
X193146138Y-66862668D01*
X193136107Y-66863385D01*
X192969210Y-66821661D01*
X192961069Y-66816429D01*
X192948281Y-66816429D01*
X192946777Y-66816053D01*
X192937531Y-66816429D01*
X192618057Y-66816429D01*
X192608888Y-66813327D01*
X192596480Y-66816429D01*
X192594932Y-66816429D01*
X192586062Y-66819033D01*
X192398159Y-66866009D01*
X192377777Y-66870443D01*
X192368997Y-66879222D01*
X192358291Y-66885504D01*
X192353745Y-66894474D01*
X192273617Y-66974602D01*
X192262767Y-66981047D01*
X192253518Y-66999543D01*
X192243620Y-67017671D01*
X192243724Y-67019131D01*
X192207101Y-67092374D01*
X192197380Y-67107502D01*
X192197380Y-67122831D01*
X192194666Y-67137914D01*
X191747143Y-67137914D01*
X191747143Y-66158096D01*
X193857857Y-66158096D01*
X193857857Y-73287857D01*
G37*
%TO.C,H4*%
X161838095Y-59667380D02*
X161838095Y-58667380D01*
X161838095Y-59143571D02*
X162409523Y-59143571D01*
X162409523Y-59667380D02*
X162409523Y-58667380D01*
X163314285Y-59000714D02*
X163314285Y-59667380D01*
X163076190Y-58619761D02*
X162838095Y-59334047D01*
X162838095Y-59334047D02*
X163457142Y-59334047D01*
%TO.C,H1*%
X214638095Y-59667380D02*
X214638095Y-58667380D01*
X214638095Y-59143571D02*
X215209523Y-59143571D01*
X215209523Y-59667380D02*
X215209523Y-58667380D01*
X216209523Y-59667380D02*
X215638095Y-59667380D01*
X215923809Y-59667380D02*
X215923809Y-58667380D01*
X215923809Y-58667380D02*
X215828571Y-58810238D01*
X215828571Y-58810238D02*
X215733333Y-58905476D01*
X215733333Y-58905476D02*
X215638095Y-58953095D01*
D12*
%TO.C,RV1*%
X167348810Y-66903904D02*
X167082143Y-66522952D01*
X166891667Y-66903904D02*
X166891667Y-66103904D01*
X166891667Y-66103904D02*
X167196429Y-66103904D01*
X167196429Y-66103904D02*
X167272619Y-66142000D01*
X167272619Y-66142000D02*
X167310714Y-66180095D01*
X167310714Y-66180095D02*
X167348810Y-66256285D01*
X167348810Y-66256285D02*
X167348810Y-66370571D01*
X167348810Y-66370571D02*
X167310714Y-66446761D01*
X167310714Y-66446761D02*
X167272619Y-66484857D01*
X167272619Y-66484857D02*
X167196429Y-66522952D01*
X167196429Y-66522952D02*
X166891667Y-66522952D01*
X167577381Y-66103904D02*
X167844048Y-66903904D01*
X167844048Y-66903904D02*
X168110714Y-66103904D01*
X168796428Y-66903904D02*
X168339285Y-66903904D01*
X168567857Y-66903904D02*
X168567857Y-66103904D01*
X168567857Y-66103904D02*
X168491666Y-66218190D01*
X168491666Y-66218190D02*
X168415476Y-66294380D01*
X168415476Y-66294380D02*
X168339285Y-66332476D01*
%TO.C,D4*%
X168943904Y-84840475D02*
X168143904Y-84840475D01*
X168143904Y-84840475D02*
X168143904Y-84649999D01*
X168143904Y-84649999D02*
X168182000Y-84535713D01*
X168182000Y-84535713D02*
X168258190Y-84459523D01*
X168258190Y-84459523D02*
X168334380Y-84421428D01*
X168334380Y-84421428D02*
X168486761Y-84383332D01*
X168486761Y-84383332D02*
X168601047Y-84383332D01*
X168601047Y-84383332D02*
X168753428Y-84421428D01*
X168753428Y-84421428D02*
X168829619Y-84459523D01*
X168829619Y-84459523D02*
X168905809Y-84535713D01*
X168905809Y-84535713D02*
X168943904Y-84649999D01*
X168943904Y-84649999D02*
X168943904Y-84840475D01*
X168410571Y-83697618D02*
X168943904Y-83697618D01*
X168105809Y-83888094D02*
X168677238Y-84078571D01*
X168677238Y-84078571D02*
X168677238Y-83583332D01*
%TO.C,D3*%
X171451404Y-84830475D02*
X170651404Y-84830475D01*
X170651404Y-84830475D02*
X170651404Y-84639999D01*
X170651404Y-84639999D02*
X170689500Y-84525713D01*
X170689500Y-84525713D02*
X170765690Y-84449523D01*
X170765690Y-84449523D02*
X170841880Y-84411428D01*
X170841880Y-84411428D02*
X170994261Y-84373332D01*
X170994261Y-84373332D02*
X171108547Y-84373332D01*
X171108547Y-84373332D02*
X171260928Y-84411428D01*
X171260928Y-84411428D02*
X171337119Y-84449523D01*
X171337119Y-84449523D02*
X171413309Y-84525713D01*
X171413309Y-84525713D02*
X171451404Y-84639999D01*
X171451404Y-84639999D02*
X171451404Y-84830475D01*
X170651404Y-84106666D02*
X170651404Y-83611428D01*
X170651404Y-83611428D02*
X170956166Y-83878094D01*
X170956166Y-83878094D02*
X170956166Y-83763809D01*
X170956166Y-83763809D02*
X170994261Y-83687618D01*
X170994261Y-83687618D02*
X171032357Y-83649523D01*
X171032357Y-83649523D02*
X171108547Y-83611428D01*
X171108547Y-83611428D02*
X171299023Y-83611428D01*
X171299023Y-83611428D02*
X171375214Y-83649523D01*
X171375214Y-83649523D02*
X171413309Y-83687618D01*
X171413309Y-83687618D02*
X171451404Y-83763809D01*
X171451404Y-83763809D02*
X171451404Y-83992380D01*
X171451404Y-83992380D02*
X171413309Y-84068571D01*
X171413309Y-84068571D02*
X171375214Y-84106666D01*
%TO.C,U3*%
X175623904Y-78089523D02*
X176271523Y-78089523D01*
X176271523Y-78089523D02*
X176347714Y-78051428D01*
X176347714Y-78051428D02*
X176385809Y-78013333D01*
X176385809Y-78013333D02*
X176423904Y-77937142D01*
X176423904Y-77937142D02*
X176423904Y-77784761D01*
X176423904Y-77784761D02*
X176385809Y-77708571D01*
X176385809Y-77708571D02*
X176347714Y-77670476D01*
X176347714Y-77670476D02*
X176271523Y-77632380D01*
X176271523Y-77632380D02*
X175623904Y-77632380D01*
X175623904Y-77327619D02*
X175623904Y-76832381D01*
X175623904Y-76832381D02*
X175928666Y-77099047D01*
X175928666Y-77099047D02*
X175928666Y-76984762D01*
X175928666Y-76984762D02*
X175966761Y-76908571D01*
X175966761Y-76908571D02*
X176004857Y-76870476D01*
X176004857Y-76870476D02*
X176081047Y-76832381D01*
X176081047Y-76832381D02*
X176271523Y-76832381D01*
X176271523Y-76832381D02*
X176347714Y-76870476D01*
X176347714Y-76870476D02*
X176385809Y-76908571D01*
X176385809Y-76908571D02*
X176423904Y-76984762D01*
X176423904Y-76984762D02*
X176423904Y-77213333D01*
X176423904Y-77213333D02*
X176385809Y-77289524D01*
X176385809Y-77289524D02*
X176347714Y-77327619D01*
%TO.C,U2*%
X200690476Y-71963904D02*
X200690476Y-72611523D01*
X200690476Y-72611523D02*
X200728571Y-72687714D01*
X200728571Y-72687714D02*
X200766666Y-72725809D01*
X200766666Y-72725809D02*
X200842857Y-72763904D01*
X200842857Y-72763904D02*
X200995238Y-72763904D01*
X200995238Y-72763904D02*
X201071428Y-72725809D01*
X201071428Y-72725809D02*
X201109523Y-72687714D01*
X201109523Y-72687714D02*
X201147619Y-72611523D01*
X201147619Y-72611523D02*
X201147619Y-71963904D01*
X201490475Y-72040095D02*
X201528571Y-72002000D01*
X201528571Y-72002000D02*
X201604761Y-71963904D01*
X201604761Y-71963904D02*
X201795237Y-71963904D01*
X201795237Y-71963904D02*
X201871428Y-72002000D01*
X201871428Y-72002000D02*
X201909523Y-72040095D01*
X201909523Y-72040095D02*
X201947618Y-72116285D01*
X201947618Y-72116285D02*
X201947618Y-72192476D01*
X201947618Y-72192476D02*
X201909523Y-72306761D01*
X201909523Y-72306761D02*
X201452380Y-72763904D01*
X201452380Y-72763904D02*
X201947618Y-72763904D01*
%TO.C,U1*%
X187273904Y-79875773D02*
X187921523Y-79875773D01*
X187921523Y-79875773D02*
X187997714Y-79837678D01*
X187997714Y-79837678D02*
X188035809Y-79799583D01*
X188035809Y-79799583D02*
X188073904Y-79723392D01*
X188073904Y-79723392D02*
X188073904Y-79571011D01*
X188073904Y-79571011D02*
X188035809Y-79494821D01*
X188035809Y-79494821D02*
X187997714Y-79456726D01*
X187997714Y-79456726D02*
X187921523Y-79418630D01*
X187921523Y-79418630D02*
X187273904Y-79418630D01*
X188073904Y-78618631D02*
X188073904Y-79075774D01*
X188073904Y-78847202D02*
X187273904Y-78847202D01*
X187273904Y-78847202D02*
X187388190Y-78923393D01*
X187388190Y-78923393D02*
X187464380Y-78999583D01*
X187464380Y-78999583D02*
X187502476Y-79075774D01*
%TO.C,R5*%
X189666667Y-71283904D02*
X189400000Y-70902952D01*
X189209524Y-71283904D02*
X189209524Y-70483904D01*
X189209524Y-70483904D02*
X189514286Y-70483904D01*
X189514286Y-70483904D02*
X189590476Y-70522000D01*
X189590476Y-70522000D02*
X189628571Y-70560095D01*
X189628571Y-70560095D02*
X189666667Y-70636285D01*
X189666667Y-70636285D02*
X189666667Y-70750571D01*
X189666667Y-70750571D02*
X189628571Y-70826761D01*
X189628571Y-70826761D02*
X189590476Y-70864857D01*
X189590476Y-70864857D02*
X189514286Y-70902952D01*
X189514286Y-70902952D02*
X189209524Y-70902952D01*
X190390476Y-70483904D02*
X190009524Y-70483904D01*
X190009524Y-70483904D02*
X189971428Y-70864857D01*
X189971428Y-70864857D02*
X190009524Y-70826761D01*
X190009524Y-70826761D02*
X190085714Y-70788666D01*
X190085714Y-70788666D02*
X190276190Y-70788666D01*
X190276190Y-70788666D02*
X190352381Y-70826761D01*
X190352381Y-70826761D02*
X190390476Y-70864857D01*
X190390476Y-70864857D02*
X190428571Y-70941047D01*
X190428571Y-70941047D02*
X190428571Y-71131523D01*
X190428571Y-71131523D02*
X190390476Y-71207714D01*
X190390476Y-71207714D02*
X190352381Y-71245809D01*
X190352381Y-71245809D02*
X190276190Y-71283904D01*
X190276190Y-71283904D02*
X190085714Y-71283904D01*
X190085714Y-71283904D02*
X190009524Y-71245809D01*
X190009524Y-71245809D02*
X189971428Y-71207714D01*
%TO.C,R4*%
X189596667Y-67163904D02*
X189330000Y-66782952D01*
X189139524Y-67163904D02*
X189139524Y-66363904D01*
X189139524Y-66363904D02*
X189444286Y-66363904D01*
X189444286Y-66363904D02*
X189520476Y-66402000D01*
X189520476Y-66402000D02*
X189558571Y-66440095D01*
X189558571Y-66440095D02*
X189596667Y-66516285D01*
X189596667Y-66516285D02*
X189596667Y-66630571D01*
X189596667Y-66630571D02*
X189558571Y-66706761D01*
X189558571Y-66706761D02*
X189520476Y-66744857D01*
X189520476Y-66744857D02*
X189444286Y-66782952D01*
X189444286Y-66782952D02*
X189139524Y-66782952D01*
X190282381Y-66630571D02*
X190282381Y-67163904D01*
X190091905Y-66325809D02*
X189901428Y-66897238D01*
X189901428Y-66897238D02*
X190396667Y-66897238D01*
%TO.C,R3*%
X204966667Y-85093904D02*
X204700000Y-84712952D01*
X204509524Y-85093904D02*
X204509524Y-84293904D01*
X204509524Y-84293904D02*
X204814286Y-84293904D01*
X204814286Y-84293904D02*
X204890476Y-84332000D01*
X204890476Y-84332000D02*
X204928571Y-84370095D01*
X204928571Y-84370095D02*
X204966667Y-84446285D01*
X204966667Y-84446285D02*
X204966667Y-84560571D01*
X204966667Y-84560571D02*
X204928571Y-84636761D01*
X204928571Y-84636761D02*
X204890476Y-84674857D01*
X204890476Y-84674857D02*
X204814286Y-84712952D01*
X204814286Y-84712952D02*
X204509524Y-84712952D01*
X205233333Y-84293904D02*
X205728571Y-84293904D01*
X205728571Y-84293904D02*
X205461905Y-84598666D01*
X205461905Y-84598666D02*
X205576190Y-84598666D01*
X205576190Y-84598666D02*
X205652381Y-84636761D01*
X205652381Y-84636761D02*
X205690476Y-84674857D01*
X205690476Y-84674857D02*
X205728571Y-84751047D01*
X205728571Y-84751047D02*
X205728571Y-84941523D01*
X205728571Y-84941523D02*
X205690476Y-85017714D01*
X205690476Y-85017714D02*
X205652381Y-85055809D01*
X205652381Y-85055809D02*
X205576190Y-85093904D01*
X205576190Y-85093904D02*
X205347619Y-85093904D01*
X205347619Y-85093904D02*
X205271428Y-85055809D01*
X205271428Y-85055809D02*
X205233333Y-85017714D01*
%TO.C,R2*%
X172686667Y-66843904D02*
X172420000Y-66462952D01*
X172229524Y-66843904D02*
X172229524Y-66043904D01*
X172229524Y-66043904D02*
X172534286Y-66043904D01*
X172534286Y-66043904D02*
X172610476Y-66082000D01*
X172610476Y-66082000D02*
X172648571Y-66120095D01*
X172648571Y-66120095D02*
X172686667Y-66196285D01*
X172686667Y-66196285D02*
X172686667Y-66310571D01*
X172686667Y-66310571D02*
X172648571Y-66386761D01*
X172648571Y-66386761D02*
X172610476Y-66424857D01*
X172610476Y-66424857D02*
X172534286Y-66462952D01*
X172534286Y-66462952D02*
X172229524Y-66462952D01*
X172991428Y-66120095D02*
X173029524Y-66082000D01*
X173029524Y-66082000D02*
X173105714Y-66043904D01*
X173105714Y-66043904D02*
X173296190Y-66043904D01*
X173296190Y-66043904D02*
X173372381Y-66082000D01*
X173372381Y-66082000D02*
X173410476Y-66120095D01*
X173410476Y-66120095D02*
X173448571Y-66196285D01*
X173448571Y-66196285D02*
X173448571Y-66272476D01*
X173448571Y-66272476D02*
X173410476Y-66386761D01*
X173410476Y-66386761D02*
X172953333Y-66843904D01*
X172953333Y-66843904D02*
X173448571Y-66843904D01*
%TO.C,R1*%
X172746667Y-69913904D02*
X172480000Y-69532952D01*
X172289524Y-69913904D02*
X172289524Y-69113904D01*
X172289524Y-69113904D02*
X172594286Y-69113904D01*
X172594286Y-69113904D02*
X172670476Y-69152000D01*
X172670476Y-69152000D02*
X172708571Y-69190095D01*
X172708571Y-69190095D02*
X172746667Y-69266285D01*
X172746667Y-69266285D02*
X172746667Y-69380571D01*
X172746667Y-69380571D02*
X172708571Y-69456761D01*
X172708571Y-69456761D02*
X172670476Y-69494857D01*
X172670476Y-69494857D02*
X172594286Y-69532952D01*
X172594286Y-69532952D02*
X172289524Y-69532952D01*
X173508571Y-69913904D02*
X173051428Y-69913904D01*
X173280000Y-69913904D02*
X173280000Y-69113904D01*
X173280000Y-69113904D02*
X173203809Y-69228190D01*
X173203809Y-69228190D02*
X173127619Y-69304380D01*
X173127619Y-69304380D02*
X173051428Y-69342476D01*
%TO.C,J2*%
X170116095Y-75493333D02*
X169544666Y-75493333D01*
X169544666Y-75493333D02*
X169430380Y-75455238D01*
X169430380Y-75455238D02*
X169354190Y-75379047D01*
X169354190Y-75379047D02*
X169316095Y-75264762D01*
X169316095Y-75264762D02*
X169316095Y-75188571D01*
X170039904Y-75836190D02*
X170078000Y-75874286D01*
X170078000Y-75874286D02*
X170116095Y-75950476D01*
X170116095Y-75950476D02*
X170116095Y-76140952D01*
X170116095Y-76140952D02*
X170078000Y-76217143D01*
X170078000Y-76217143D02*
X170039904Y-76255238D01*
X170039904Y-76255238D02*
X169963714Y-76293333D01*
X169963714Y-76293333D02*
X169887523Y-76293333D01*
X169887523Y-76293333D02*
X169773238Y-76255238D01*
X169773238Y-76255238D02*
X169316095Y-75798095D01*
X169316095Y-75798095D02*
X169316095Y-76293333D01*
%TO.C,J1*%
X214756095Y-68013333D02*
X214184666Y-68013333D01*
X214184666Y-68013333D02*
X214070380Y-67975238D01*
X214070380Y-67975238D02*
X213994190Y-67899047D01*
X213994190Y-67899047D02*
X213956095Y-67784762D01*
X213956095Y-67784762D02*
X213956095Y-67708571D01*
X213956095Y-68813333D02*
X213956095Y-68356190D01*
X213956095Y-68584762D02*
X214756095Y-68584762D01*
X214756095Y-68584762D02*
X214641809Y-68508571D01*
X214641809Y-68508571D02*
X214565619Y-68432381D01*
X214565619Y-68432381D02*
X214527523Y-68356190D01*
%TO.C,D2*%
X189204524Y-73043904D02*
X189204524Y-72243904D01*
X189204524Y-72243904D02*
X189395000Y-72243904D01*
X189395000Y-72243904D02*
X189509286Y-72282000D01*
X189509286Y-72282000D02*
X189585476Y-72358190D01*
X189585476Y-72358190D02*
X189623571Y-72434380D01*
X189623571Y-72434380D02*
X189661667Y-72586761D01*
X189661667Y-72586761D02*
X189661667Y-72701047D01*
X189661667Y-72701047D02*
X189623571Y-72853428D01*
X189623571Y-72853428D02*
X189585476Y-72929619D01*
X189585476Y-72929619D02*
X189509286Y-73005809D01*
X189509286Y-73005809D02*
X189395000Y-73043904D01*
X189395000Y-73043904D02*
X189204524Y-73043904D01*
X189966428Y-72320095D02*
X190004524Y-72282000D01*
X190004524Y-72282000D02*
X190080714Y-72243904D01*
X190080714Y-72243904D02*
X190271190Y-72243904D01*
X190271190Y-72243904D02*
X190347381Y-72282000D01*
X190347381Y-72282000D02*
X190385476Y-72320095D01*
X190385476Y-72320095D02*
X190423571Y-72396285D01*
X190423571Y-72396285D02*
X190423571Y-72472476D01*
X190423571Y-72472476D02*
X190385476Y-72586761D01*
X190385476Y-72586761D02*
X189928333Y-73043904D01*
X189928333Y-73043904D02*
X190423571Y-73043904D01*
%TO.C,D1*%
X189237024Y-69033904D02*
X189237024Y-68233904D01*
X189237024Y-68233904D02*
X189427500Y-68233904D01*
X189427500Y-68233904D02*
X189541786Y-68272000D01*
X189541786Y-68272000D02*
X189617976Y-68348190D01*
X189617976Y-68348190D02*
X189656071Y-68424380D01*
X189656071Y-68424380D02*
X189694167Y-68576761D01*
X189694167Y-68576761D02*
X189694167Y-68691047D01*
X189694167Y-68691047D02*
X189656071Y-68843428D01*
X189656071Y-68843428D02*
X189617976Y-68919619D01*
X189617976Y-68919619D02*
X189541786Y-68995809D01*
X189541786Y-68995809D02*
X189427500Y-69033904D01*
X189427500Y-69033904D02*
X189237024Y-69033904D01*
X190456071Y-69033904D02*
X189998928Y-69033904D01*
X190227500Y-69033904D02*
X190227500Y-68233904D01*
X190227500Y-68233904D02*
X190151309Y-68348190D01*
X190151309Y-68348190D02*
X190075119Y-68424380D01*
X190075119Y-68424380D02*
X189998928Y-68462476D01*
%TO.C,C8*%
X173516667Y-82907714D02*
X173478571Y-82945809D01*
X173478571Y-82945809D02*
X173364286Y-82983904D01*
X173364286Y-82983904D02*
X173288095Y-82983904D01*
X173288095Y-82983904D02*
X173173809Y-82945809D01*
X173173809Y-82945809D02*
X173097619Y-82869619D01*
X173097619Y-82869619D02*
X173059524Y-82793428D01*
X173059524Y-82793428D02*
X173021428Y-82641047D01*
X173021428Y-82641047D02*
X173021428Y-82526761D01*
X173021428Y-82526761D02*
X173059524Y-82374380D01*
X173059524Y-82374380D02*
X173097619Y-82298190D01*
X173097619Y-82298190D02*
X173173809Y-82222000D01*
X173173809Y-82222000D02*
X173288095Y-82183904D01*
X173288095Y-82183904D02*
X173364286Y-82183904D01*
X173364286Y-82183904D02*
X173478571Y-82222000D01*
X173478571Y-82222000D02*
X173516667Y-82260095D01*
X173973809Y-82526761D02*
X173897619Y-82488666D01*
X173897619Y-82488666D02*
X173859524Y-82450571D01*
X173859524Y-82450571D02*
X173821428Y-82374380D01*
X173821428Y-82374380D02*
X173821428Y-82336285D01*
X173821428Y-82336285D02*
X173859524Y-82260095D01*
X173859524Y-82260095D02*
X173897619Y-82222000D01*
X173897619Y-82222000D02*
X173973809Y-82183904D01*
X173973809Y-82183904D02*
X174126190Y-82183904D01*
X174126190Y-82183904D02*
X174202381Y-82222000D01*
X174202381Y-82222000D02*
X174240476Y-82260095D01*
X174240476Y-82260095D02*
X174278571Y-82336285D01*
X174278571Y-82336285D02*
X174278571Y-82374380D01*
X174278571Y-82374380D02*
X174240476Y-82450571D01*
X174240476Y-82450571D02*
X174202381Y-82488666D01*
X174202381Y-82488666D02*
X174126190Y-82526761D01*
X174126190Y-82526761D02*
X173973809Y-82526761D01*
X173973809Y-82526761D02*
X173897619Y-82564857D01*
X173897619Y-82564857D02*
X173859524Y-82602952D01*
X173859524Y-82602952D02*
X173821428Y-82679142D01*
X173821428Y-82679142D02*
X173821428Y-82831523D01*
X173821428Y-82831523D02*
X173859524Y-82907714D01*
X173859524Y-82907714D02*
X173897619Y-82945809D01*
X173897619Y-82945809D02*
X173973809Y-82983904D01*
X173973809Y-82983904D02*
X174126190Y-82983904D01*
X174126190Y-82983904D02*
X174202381Y-82945809D01*
X174202381Y-82945809D02*
X174240476Y-82907714D01*
X174240476Y-82907714D02*
X174278571Y-82831523D01*
X174278571Y-82831523D02*
X174278571Y-82679142D01*
X174278571Y-82679142D02*
X174240476Y-82602952D01*
X174240476Y-82602952D02*
X174202381Y-82564857D01*
X174202381Y-82564857D02*
X174126190Y-82526761D01*
%TO.C,C7*%
X203287714Y-68713332D02*
X203325809Y-68751428D01*
X203325809Y-68751428D02*
X203363904Y-68865713D01*
X203363904Y-68865713D02*
X203363904Y-68941904D01*
X203363904Y-68941904D02*
X203325809Y-69056190D01*
X203325809Y-69056190D02*
X203249619Y-69132380D01*
X203249619Y-69132380D02*
X203173428Y-69170475D01*
X203173428Y-69170475D02*
X203021047Y-69208571D01*
X203021047Y-69208571D02*
X202906761Y-69208571D01*
X202906761Y-69208571D02*
X202754380Y-69170475D01*
X202754380Y-69170475D02*
X202678190Y-69132380D01*
X202678190Y-69132380D02*
X202602000Y-69056190D01*
X202602000Y-69056190D02*
X202563904Y-68941904D01*
X202563904Y-68941904D02*
X202563904Y-68865713D01*
X202563904Y-68865713D02*
X202602000Y-68751428D01*
X202602000Y-68751428D02*
X202640095Y-68713332D01*
X202563904Y-68446666D02*
X202563904Y-67913332D01*
X202563904Y-67913332D02*
X203363904Y-68256190D01*
%TO.C,C6*%
X173516667Y-72807714D02*
X173478571Y-72845809D01*
X173478571Y-72845809D02*
X173364286Y-72883904D01*
X173364286Y-72883904D02*
X173288095Y-72883904D01*
X173288095Y-72883904D02*
X173173809Y-72845809D01*
X173173809Y-72845809D02*
X173097619Y-72769619D01*
X173097619Y-72769619D02*
X173059524Y-72693428D01*
X173059524Y-72693428D02*
X173021428Y-72541047D01*
X173021428Y-72541047D02*
X173021428Y-72426761D01*
X173021428Y-72426761D02*
X173059524Y-72274380D01*
X173059524Y-72274380D02*
X173097619Y-72198190D01*
X173097619Y-72198190D02*
X173173809Y-72122000D01*
X173173809Y-72122000D02*
X173288095Y-72083904D01*
X173288095Y-72083904D02*
X173364286Y-72083904D01*
X173364286Y-72083904D02*
X173478571Y-72122000D01*
X173478571Y-72122000D02*
X173516667Y-72160095D01*
X174202381Y-72083904D02*
X174050000Y-72083904D01*
X174050000Y-72083904D02*
X173973809Y-72122000D01*
X173973809Y-72122000D02*
X173935714Y-72160095D01*
X173935714Y-72160095D02*
X173859524Y-72274380D01*
X173859524Y-72274380D02*
X173821428Y-72426761D01*
X173821428Y-72426761D02*
X173821428Y-72731523D01*
X173821428Y-72731523D02*
X173859524Y-72807714D01*
X173859524Y-72807714D02*
X173897619Y-72845809D01*
X173897619Y-72845809D02*
X173973809Y-72883904D01*
X173973809Y-72883904D02*
X174126190Y-72883904D01*
X174126190Y-72883904D02*
X174202381Y-72845809D01*
X174202381Y-72845809D02*
X174240476Y-72807714D01*
X174240476Y-72807714D02*
X174278571Y-72731523D01*
X174278571Y-72731523D02*
X174278571Y-72541047D01*
X174278571Y-72541047D02*
X174240476Y-72464857D01*
X174240476Y-72464857D02*
X174202381Y-72426761D01*
X174202381Y-72426761D02*
X174126190Y-72388666D01*
X174126190Y-72388666D02*
X173973809Y-72388666D01*
X173973809Y-72388666D02*
X173897619Y-72426761D01*
X173897619Y-72426761D02*
X173859524Y-72464857D01*
X173859524Y-72464857D02*
X173821428Y-72541047D01*
%TO.C,C5*%
X189586667Y-74997714D02*
X189548571Y-75035809D01*
X189548571Y-75035809D02*
X189434286Y-75073904D01*
X189434286Y-75073904D02*
X189358095Y-75073904D01*
X189358095Y-75073904D02*
X189243809Y-75035809D01*
X189243809Y-75035809D02*
X189167619Y-74959619D01*
X189167619Y-74959619D02*
X189129524Y-74883428D01*
X189129524Y-74883428D02*
X189091428Y-74731047D01*
X189091428Y-74731047D02*
X189091428Y-74616761D01*
X189091428Y-74616761D02*
X189129524Y-74464380D01*
X189129524Y-74464380D02*
X189167619Y-74388190D01*
X189167619Y-74388190D02*
X189243809Y-74312000D01*
X189243809Y-74312000D02*
X189358095Y-74273904D01*
X189358095Y-74273904D02*
X189434286Y-74273904D01*
X189434286Y-74273904D02*
X189548571Y-74312000D01*
X189548571Y-74312000D02*
X189586667Y-74350095D01*
X190310476Y-74273904D02*
X189929524Y-74273904D01*
X189929524Y-74273904D02*
X189891428Y-74654857D01*
X189891428Y-74654857D02*
X189929524Y-74616761D01*
X189929524Y-74616761D02*
X190005714Y-74578666D01*
X190005714Y-74578666D02*
X190196190Y-74578666D01*
X190196190Y-74578666D02*
X190272381Y-74616761D01*
X190272381Y-74616761D02*
X190310476Y-74654857D01*
X190310476Y-74654857D02*
X190348571Y-74731047D01*
X190348571Y-74731047D02*
X190348571Y-74921523D01*
X190348571Y-74921523D02*
X190310476Y-74997714D01*
X190310476Y-74997714D02*
X190272381Y-75035809D01*
X190272381Y-75035809D02*
X190196190Y-75073904D01*
X190196190Y-75073904D02*
X190005714Y-75073904D01*
X190005714Y-75073904D02*
X189929524Y-75035809D01*
X189929524Y-75035809D02*
X189891428Y-74997714D01*
%TO.C,C4*%
X177266667Y-74657714D02*
X177228571Y-74695809D01*
X177228571Y-74695809D02*
X177114286Y-74733904D01*
X177114286Y-74733904D02*
X177038095Y-74733904D01*
X177038095Y-74733904D02*
X176923809Y-74695809D01*
X176923809Y-74695809D02*
X176847619Y-74619619D01*
X176847619Y-74619619D02*
X176809524Y-74543428D01*
X176809524Y-74543428D02*
X176771428Y-74391047D01*
X176771428Y-74391047D02*
X176771428Y-74276761D01*
X176771428Y-74276761D02*
X176809524Y-74124380D01*
X176809524Y-74124380D02*
X176847619Y-74048190D01*
X176847619Y-74048190D02*
X176923809Y-73972000D01*
X176923809Y-73972000D02*
X177038095Y-73933904D01*
X177038095Y-73933904D02*
X177114286Y-73933904D01*
X177114286Y-73933904D02*
X177228571Y-73972000D01*
X177228571Y-73972000D02*
X177266667Y-74010095D01*
X177952381Y-74200571D02*
X177952381Y-74733904D01*
X177761905Y-73895809D02*
X177571428Y-74467238D01*
X177571428Y-74467238D02*
X178066667Y-74467238D01*
%TO.C,C3*%
X176216667Y-85137714D02*
X176178571Y-85175809D01*
X176178571Y-85175809D02*
X176064286Y-85213904D01*
X176064286Y-85213904D02*
X175988095Y-85213904D01*
X175988095Y-85213904D02*
X175873809Y-85175809D01*
X175873809Y-85175809D02*
X175797619Y-85099619D01*
X175797619Y-85099619D02*
X175759524Y-85023428D01*
X175759524Y-85023428D02*
X175721428Y-84871047D01*
X175721428Y-84871047D02*
X175721428Y-84756761D01*
X175721428Y-84756761D02*
X175759524Y-84604380D01*
X175759524Y-84604380D02*
X175797619Y-84528190D01*
X175797619Y-84528190D02*
X175873809Y-84452000D01*
X175873809Y-84452000D02*
X175988095Y-84413904D01*
X175988095Y-84413904D02*
X176064286Y-84413904D01*
X176064286Y-84413904D02*
X176178571Y-84452000D01*
X176178571Y-84452000D02*
X176216667Y-84490095D01*
X176483333Y-84413904D02*
X176978571Y-84413904D01*
X176978571Y-84413904D02*
X176711905Y-84718666D01*
X176711905Y-84718666D02*
X176826190Y-84718666D01*
X176826190Y-84718666D02*
X176902381Y-84756761D01*
X176902381Y-84756761D02*
X176940476Y-84794857D01*
X176940476Y-84794857D02*
X176978571Y-84871047D01*
X176978571Y-84871047D02*
X176978571Y-85061523D01*
X176978571Y-85061523D02*
X176940476Y-85137714D01*
X176940476Y-85137714D02*
X176902381Y-85175809D01*
X176902381Y-85175809D02*
X176826190Y-85213904D01*
X176826190Y-85213904D02*
X176597619Y-85213904D01*
X176597619Y-85213904D02*
X176521428Y-85175809D01*
X176521428Y-85175809D02*
X176483333Y-85137714D01*
%TO.C,C2*%
X189596667Y-84287714D02*
X189558571Y-84325809D01*
X189558571Y-84325809D02*
X189444286Y-84363904D01*
X189444286Y-84363904D02*
X189368095Y-84363904D01*
X189368095Y-84363904D02*
X189253809Y-84325809D01*
X189253809Y-84325809D02*
X189177619Y-84249619D01*
X189177619Y-84249619D02*
X189139524Y-84173428D01*
X189139524Y-84173428D02*
X189101428Y-84021047D01*
X189101428Y-84021047D02*
X189101428Y-83906761D01*
X189101428Y-83906761D02*
X189139524Y-83754380D01*
X189139524Y-83754380D02*
X189177619Y-83678190D01*
X189177619Y-83678190D02*
X189253809Y-83602000D01*
X189253809Y-83602000D02*
X189368095Y-83563904D01*
X189368095Y-83563904D02*
X189444286Y-83563904D01*
X189444286Y-83563904D02*
X189558571Y-83602000D01*
X189558571Y-83602000D02*
X189596667Y-83640095D01*
X189901428Y-83640095D02*
X189939524Y-83602000D01*
X189939524Y-83602000D02*
X190015714Y-83563904D01*
X190015714Y-83563904D02*
X190206190Y-83563904D01*
X190206190Y-83563904D02*
X190282381Y-83602000D01*
X190282381Y-83602000D02*
X190320476Y-83640095D01*
X190320476Y-83640095D02*
X190358571Y-83716285D01*
X190358571Y-83716285D02*
X190358571Y-83792476D01*
X190358571Y-83792476D02*
X190320476Y-83906761D01*
X190320476Y-83906761D02*
X189863333Y-84363904D01*
X189863333Y-84363904D02*
X190358571Y-84363904D01*
%TO.C,C1*%
X181987714Y-66943332D02*
X182025809Y-66981428D01*
X182025809Y-66981428D02*
X182063904Y-67095713D01*
X182063904Y-67095713D02*
X182063904Y-67171904D01*
X182063904Y-67171904D02*
X182025809Y-67286190D01*
X182025809Y-67286190D02*
X181949619Y-67362380D01*
X181949619Y-67362380D02*
X181873428Y-67400475D01*
X181873428Y-67400475D02*
X181721047Y-67438571D01*
X181721047Y-67438571D02*
X181606761Y-67438571D01*
X181606761Y-67438571D02*
X181454380Y-67400475D01*
X181454380Y-67400475D02*
X181378190Y-67362380D01*
X181378190Y-67362380D02*
X181302000Y-67286190D01*
X181302000Y-67286190D02*
X181263904Y-67171904D01*
X181263904Y-67171904D02*
X181263904Y-67095713D01*
X181263904Y-67095713D02*
X181302000Y-66981428D01*
X181302000Y-66981428D02*
X181340095Y-66943332D01*
X182063904Y-66181428D02*
X182063904Y-66638571D01*
X182063904Y-66409999D02*
X181263904Y-66409999D01*
X181263904Y-66409999D02*
X181378190Y-66486190D01*
X181378190Y-66486190D02*
X181454380Y-66562380D01*
X181454380Y-66562380D02*
X181492476Y-66638571D01*
D13*
%TO.C,RV1*%
X167587742Y-68562500D02*
X168062258Y-68562500D01*
X167587742Y-67517500D02*
X168062258Y-67517500D01*
D12*
%TO.C,D4*%
X168650000Y-81135000D02*
G75*
G03*
X168650000Y-81135000I-50000J0D01*
G01*
%TO.C,D3*%
X171057500Y-81145000D02*
G75*
G03*
X171057500Y-81145000I-50000J0D01*
G01*
D13*
%TO.C,JP3*%
X205130000Y-80260000D02*
X205130000Y-79560000D01*
D10*
X206530000Y-81860000D02*
X206530000Y-77960000D01*
X203730000Y-81860000D02*
X203730000Y-77960000D01*
D13*
%TO.C,JP2*%
X196940000Y-68000000D02*
X196240000Y-68000000D01*
D10*
X198540000Y-66600000D02*
X194640000Y-66600000D01*
X198540000Y-69400000D02*
X194640000Y-69400000D01*
D13*
%TO.C,JP1*%
X196930000Y-71240000D02*
X196230000Y-71240000D01*
D10*
X198530000Y-69840000D02*
X194630000Y-69840000D01*
X198530000Y-72640000D02*
X194630000Y-72640000D01*
D13*
%TO.C,U3*%
X175290000Y-77480000D02*
X175290000Y-78130000D01*
X172170000Y-77480000D02*
X172170000Y-78130000D01*
X175290000Y-77480000D02*
X175290000Y-75805000D01*
X172170000Y-77480000D02*
X172170000Y-76830000D01*
%TO.C,U2*%
X200450000Y-84010000D02*
X200450000Y-83755000D01*
X196590000Y-84010000D02*
X200450000Y-84010000D01*
X192730000Y-84010000D02*
X192730000Y-83755000D01*
X192730000Y-73745000D02*
X190915000Y-73745000D01*
X196590000Y-84010000D02*
X192730000Y-84010000D01*
X200450000Y-73490000D02*
X200450000Y-73745000D01*
X192730000Y-73490000D02*
X192730000Y-73745000D01*
X196590000Y-73490000D02*
X200450000Y-73490000D01*
X196590000Y-73490000D02*
X192730000Y-73490000D01*
%TO.C,U1*%
X185540000Y-82426250D02*
X185540000Y-82876250D01*
X178320000Y-75656250D02*
X178770000Y-75656250D01*
X185540000Y-75656250D02*
X185090000Y-75656250D01*
X178320000Y-82426250D02*
X178320000Y-82876250D01*
X178320000Y-82876250D02*
X178770000Y-82876250D01*
X185540000Y-76106250D02*
X185540000Y-75656250D01*
X178320000Y-76106250D02*
X178320000Y-75656250D01*
X185090000Y-75656250D02*
X185090000Y-74366250D01*
X185540000Y-82876250D02*
X185090000Y-82876250D01*
%TO.C,SW1*%
X177450000Y-66930000D02*
X177330000Y-66930000D01*
X180610000Y-71330000D02*
X180730000Y-71330000D01*
X177330000Y-66930000D02*
X177330000Y-71330000D01*
X180730000Y-71330000D02*
X180730000Y-66930000D01*
X178460000Y-71330000D02*
X179600000Y-71330000D01*
X177330000Y-71330000D02*
X177450000Y-71330000D01*
X180730000Y-66930000D02*
X180610000Y-66930000D01*
X179600000Y-66930000D02*
X178460000Y-66930000D01*
%TO.C,R5*%
X187472258Y-70237500D02*
X186997742Y-70237500D01*
X187472258Y-71282500D02*
X186997742Y-71282500D01*
%TO.C,R4*%
X187537258Y-67252500D02*
X187062742Y-67252500D01*
X187537258Y-66207500D02*
X187062742Y-66207500D01*
%TO.C,R3*%
X204892742Y-83932500D02*
X205367258Y-83932500D01*
X204892742Y-82887500D02*
X205367258Y-82887500D01*
%TO.C,R2*%
X172582742Y-68502500D02*
X173057258Y-68502500D01*
X172582742Y-67457500D02*
X173057258Y-67457500D01*
%TO.C,R1*%
X172642742Y-71572500D02*
X173117258Y-71572500D01*
X172642742Y-70527500D02*
X173117258Y-70527500D01*
%TO.C,J2*%
X164110000Y-80430000D02*
X165910000Y-80430000D01*
X162010000Y-80430000D02*
X160860000Y-80430000D01*
X162010000Y-71090000D02*
X160860000Y-71090000D01*
X164110000Y-71090000D02*
X165910000Y-71090000D01*
%TO.C,J1*%
X217550000Y-65780000D02*
X217550000Y-85780000D01*
X209350000Y-65780000D02*
X217550000Y-65780000D01*
X217050000Y-67280000D02*
X217550000Y-67280000D01*
X217550000Y-69180000D02*
X217050000Y-69180000D01*
X217050000Y-69180000D02*
X217050000Y-67280000D01*
X217050000Y-72380000D02*
X217550000Y-72380000D01*
X217550000Y-74280000D02*
X217050000Y-74280000D01*
X217050000Y-74280000D02*
X217050000Y-72380000D01*
X217050000Y-77580000D02*
X217550000Y-77580000D01*
X217550000Y-79280000D02*
X217050000Y-79280000D01*
X217050000Y-79280000D02*
X217050000Y-77580000D01*
X217050000Y-82780000D02*
X217550000Y-82780000D01*
X217550000Y-84380000D02*
X217050000Y-84380000D01*
X217050000Y-84380000D02*
X217050000Y-82780000D01*
X217550000Y-85780000D02*
X209350000Y-85780000D01*
X209350000Y-85780000D02*
X209350000Y-65780000D01*
%TO.C,D2*%
X185540000Y-73620000D02*
X188225000Y-73620000D01*
X185540000Y-71700000D02*
X185540000Y-73620000D01*
X188225000Y-71700000D02*
X185540000Y-71700000D01*
%TO.C,D1*%
X185542500Y-69640000D02*
X188227500Y-69640000D01*
X185542500Y-67720000D02*
X185542500Y-69640000D01*
X188227500Y-67720000D02*
X185542500Y-67720000D01*
%TO.C,C8*%
X173458748Y-81785000D02*
X173981252Y-81785000D01*
X173458748Y-80315000D02*
X173981252Y-80315000D01*
%TO.C,C7*%
X205485000Y-68841252D02*
X205485000Y-68318748D01*
X204015000Y-68841252D02*
X204015000Y-68318748D01*
%TO.C,C6*%
X173488748Y-74855000D02*
X174011252Y-74855000D01*
X173488748Y-73385000D02*
X174011252Y-73385000D01*
%TO.C,C5*%
X187029420Y-75250000D02*
X187310580Y-75250000D01*
X187029420Y-74230000D02*
X187310580Y-74230000D01*
%TO.C,C4*%
X177340580Y-73600000D02*
X177059420Y-73600000D01*
X177340580Y-72580000D02*
X177059420Y-72580000D01*
%TO.C,C3*%
X176490580Y-82980000D02*
X176209420Y-82980000D01*
X176490580Y-84000000D02*
X176209420Y-84000000D01*
%TO.C,C2*%
X187289420Y-84520000D02*
X187570580Y-84520000D01*
X187289420Y-83500000D02*
X187570580Y-83500000D01*
%TO.C,C1*%
X182260000Y-69280580D02*
X182260000Y-68999420D01*
X181240000Y-69280580D02*
X181240000Y-68999420D01*
%TD*%
M02*
